<?xml version="1.0" encoding="utf-8"?>
<!-- Generator: Adobe Illustrator 21.0.0, SVG Export Plug-In . SVG Version: 6.00 Build 0)  -->
<svg version="1.1" id="Layer_1" xmlns="http://www.w3.org/2000/svg" xmlns:xlink="http://www.w3.org/1999/xlink" x="0px" y="0px"
	 viewBox="0 0 64 64" style="enable-background:new 0 0 64 64;" xml:space="preserve">
<style type="text/css">
	.st0{fill:#FE6421;}
</style>
<path class="st0" d="M1.7,43.5V32.2c0-1.6,1.1-2.9,2.6-3.2l3-0.8L9,27.7c0.2-0.1,0.4-0.3,0.4-0.5v-2.1L9.3,25
	c-0.9-0.7-1.5-1.8-1.6-2.9c-0.1-0.4-0.1-0.7-0.1-0.9H7.4c-0.3,0-0.6-0.3-0.7-0.6L6.4,19c-0.1-0.5,0.3-1,0.8-1l0.1-3.3
	c0-2,1.7-3.7,3.7-3.7h2.4c2,0,3.7,1.6,3.7,3.7l0.1,3.3c0.5,0,0.9,0.5,0.9,1l-0.3,1.7c-0.1,0.3-0.3,0.5-0.7,0.5h-0.3
	c0,0.2,0,0.5-0.1,0.9c-0.1,1.1-0.7,2.2-1.6,2.9L15,25.1v2c0,0.3,0.2,0.4,0.4,0.5l1.4,0.4c0.8-0.5,1.6-0.9,2.5-1h0.1l-2.6-0.7v-0.4
	c0.9-0.9,1.5-2,1.6-3.2c0.6-0.3,1.1-1,1.1-1.7l0.3-1.7c0.1-0.7-0.1-1.5-0.6-2.1c-0.1-0.1-0.2-0.2-0.3-0.3l0.1-2.2
	c0-2.9-2.4-5.3-5.4-5.3h-2.4c-3,0-5.4,2.4-5.4,5.3l-0.1,2.2c-0.1,0.1-0.2,0.2-0.3,0.3c-0.5,0.5-0.7,1.3-0.6,2.1L5,21
	c0.1,0.7,0.6,1.3,1.2,1.7c0.2,1.2,0.8,2.4,1.6,3.2v0.4l-0.9,0.2l-3,0.9C1.6,27.9,0,29.9,0,32.2v11.2v1L0.9,45l12.2,7.2v-1.9
	L1.7,43.5z"/>
<path class="st0" d="M60,27.4l-3.9-1.1v-0.4c0.8-0.8,1.4-2,1.6-3.2c0.6-0.3,1-0.9,1.1-1.7l0.3-1.7c0.1-0.7-0.1-1.5-0.6-2.1
	c-0.1-0.1-0.2-0.2-0.3-0.3v-2.2c0-2.9-2.4-5.3-5.4-5.3h-2.4c-3,0-5.4,2.4-5.4,5.3v2.2c-0.1,0.1-0.2,0.2-0.3,0.3
	c-0.5,0.6-0.7,1.3-0.6,2.1l0.3,1.7c0.1,0.7,0.5,1.3,1.1,1.7c0.2,1.2,0.8,2.3,1.6,3.2v0.4l-0.9,0.2L44.7,27c0.9,0.2,1.7,0.5,2.5,1.1
	l1.3-0.4c0.2-0.1,0.4-0.3,0.4-0.5v-2.1L48.8,25c-0.9-0.7-1.5-1.8-1.6-2.9c-0.1-0.4-0.1-0.7-0.1-0.9h-0.3c-0.4,0-0.6-0.3-0.7-0.6
	l-0.3-1.7c-0.1-0.5,0.4-1,0.9-1l0.1-3.3c0-2,1.7-3.6,3.7-3.6h2.4c2.1,0,3.7,1.6,3.7,3.6l0.1,3.3c0.5,0,0.9,0.5,0.9,1l-0.3,1.7
	c-0.1,0.3-0.3,0.6-0.7,0.6h-0.3c0,0.2,0,0.5-0.1,0.9c-0.1,1.1-0.7,2.2-1.6,2.9l-0.1,0.1v2.1c0,0.2,0.2,0.4,0.4,0.5l4.8,1.3
	c1.5,0.3,2.6,1.7,2.6,3.2v11.2L51,50.1V52l12-7.1l0.9-0.5v-1V32.3C63.9,30,62.3,27.9,60,27.4z"/>
<path class="st0" d="M26.6,10.9c1.2,0,2.2-0.6,2.8-1.7l0.1-0.1c1.1,1.1,2.5,1.8,4.1,1.8h4.6V9.3V9.1h-4.6c-1.5,0-2.8-0.8-3.5-2.1
	l-0.8-1.4l-1.4,2.7c-0.2,0.5-0.7,0.8-1.3,0.8h-0.8l-0.1,1.7L26.6,10.9L26.6,10.9z"/>
<path class="st0" d="M44.4,28.2l-6.5-1.9v-0.5v-1.1c1.5-1.3,2.3-3.1,2.5-5.1c0.9-0.4,1.5-1.2,1.7-2.2l0.4-2.6
	c0.1-0.9-0.1-1.7-0.7-2.4c-0.2-0.2-0.4-0.4-0.6-0.5l-0.1-3.8c0-4-3.3-7.2-7.3-7.2h-3.6c-4,0-7.3,3.2-7.3,7.2L22.8,12
	c-0.2,0.2-0.4,0.3-0.6,0.5c-0.5,0.6-0.8,1.5-0.7,2.4l0.4,2.6c0.2,1,0.8,1.8,1.7,2.1c0.2,2,1.1,3.8,2.5,5.1v1.6l-2,0.5l-4.5,1.3
	c-3.1,0.6-5.2,3.4-5.2,6.6v16.9v1l0.9,0.5l16.2,9.6l0.9,0.5l0.9-0.5l15.8-9.6l0.8-0.5v-1V34.8C49.7,31.6,47.4,28.9,44.4,28.2z
	 M48,51.8l-15.8,9.6L16,51.8v-17c0-2.4,1.7-4.4,4-4.9l4.6-1.3l2.6-0.8c0.3-0.1,0.6-0.4,0.6-0.7V26l0.1,0.1c0.9,0.6,1.9,0.9,3,0.9
	h0.9v-1.7h-0.9c-0.7,0-1.4-0.2-2-0.6l-1.1-0.8l-0.2-0.1c-1.4-1.1-2.2-2.6-2.4-4.4c-0.1-0.5-0.1-1.1-0.1-1.3h-0.6
	c-0.5,0-0.9-0.4-1-0.8l-0.4-2.6c-0.1-0.8,0.5-1.5,1.3-1.5l0.1-5c0-3.1,2.5-5.6,5.6-5.6h3.6c3.1,0,5.6,2.5,5.6,5.6l0.1,5
	c0.8,0,1.4,0.7,1.3,1.5l-0.4,2.6c-0.1,0.5-0.5,0.8-1,0.8h-0.5c-0.1,0.3-0.1,0.8-0.1,1.3c-0.1,1.7-1,3.3-2.4,4.4l-0.2,0.1v1.9V27v3.2
	h1.7V28l6.1,1.7c2.3,0.5,4,2.5,4,4.9L48,51.8z"/>
<path class="st0" d="M36.5,35.2c-1.5-1.3-3.4-1.9-5.3-1.7c-3.2,0.3-5.8,3-6.1,6.2c-0.2,1.8,0.3,3.5,1.4,4.8c0.9,1.2,1.4,2.7,1.4,4.4
	V52c0,2.2,1.8,4,4,4s4-1.8,4-4v-3.1c0-1.6,0.5-3.1,1.5-4.5c0.9-1.2,1.3-2.6,1.3-4C38.8,38.4,38,36.5,36.5,35.2z M34.3,52
	c0,1.3-1,2.3-2.3,2.3s-2.3-1-2.3-2.3v-1.9h4.6V52z M36.1,43.4c-1.1,1.5-1.8,3.2-1.9,4.9c-0.8,0-3.7,0-4.6,0
	c-0.1-1.8-0.7-3.5-1.8-4.8c-0.8-1-1.1-2.3-1.1-3.6c0.2-2.4,2.2-4.4,4.5-4.7c1.5-0.2,2.9,0.3,4,1.3c1.1,1,1.7,2.4,1.7,3.9
	C37.1,41.5,36.8,42.5,36.1,43.4z"/>
</svg>
