<?xml version="1.0" encoding="utf-8"?>
<!-- Generator: Adobe Illustrator 21.0.0, SVG Export Plug-In . SVG Version: 6.00 Build 0)  -->
<svg version="1.1" id="Layer_1" xmlns="http://www.w3.org/2000/svg" xmlns:xlink="http://www.w3.org/1999/xlink" x="0px" y="0px"
	 viewBox="0 0 123 123" style="enable-background:new 0 0 123 123;" xml:space="preserve">
<style type="text/css">
	.st0{fill:#1CCCFD;}
	.st1{fill:#FFFFFF;}
	.st2{fill:#0A7AC8;}
	.st3{fill:#7F7F7F;}
</style>
<g>
	<path class="st0" d="M61.7,121.6c33,0,59.9-26.9,59.9-59.9S94.7,1.8,61.7,1.8S1.8,28.7,1.8,61.7C1.9,94.8,28.7,121.6,61.7,121.6z"
		/>
	<path class="st1" d="M61.7,122.5c-33.4,0-60.6-27.3-60.8-60.7c0-33.5,27.3-60.8,60.8-60.8s60.8,27.3,60.8,60.8
		S95.2,122.5,61.7,122.5z M61.7,2.7c-32.6,0-59,26.5-59,59c0.1,32.6,26.6,59,59,59c32.6,0,59-26.5,59-59
		C120.7,29.1,94.3,2.7,61.7,2.7z"/>
</g>
<path class="st2" d="M42.6,19h41.6c3.3,0,6,2.7,6,6s-2.7,6-6,6H42.6c-3.3,0-6-2.7-6-6S39.3,19,42.6,19z"/>
<path class="st2" d="M42.6,36.1h41.6c3.3,0,6,2.7,6,6s-2.7,6-6,6H42.6c-3.3,0-6-2.7-6-6S39.3,36.1,42.6,36.1z"/>
<g>
	<path class="st1" d="M42.6,31.9h41.6c3.8,0,6.9-3.1,6.9-6.9s-3.1-6.9-6.9-6.9H42.6c-3.8,0-6.9,3.1-6.9,6.9S38.8,31.9,42.6,31.9z
		 M42.6,19.9h41.6c2.8,0,5.1,2.3,5.1,5.1s-2.3,5.1-5.1,5.1H42.6c-2.8,0-5.1-2.3-5.1-5.1S39.8,19.9,42.6,19.9z"/>
	<path class="st1" d="M75.2,26.7c0.9,0,1.6-0.7,1.6-1.6c0-0.9-0.7-1.6-1.6-1.6c-0.9,0-1.6,0.7-1.6,1.6
		C73.6,25.9,74.3,26.7,75.2,26.7z"/>
	<path class="st1" d="M82.7,26.7c0.9,0,1.6-0.7,1.6-1.6c0-0.9-0.7-1.6-1.6-1.6c-0.9,0-1.6,0.7-1.6,1.6C81,25.9,81.8,26.7,82.7,26.7z
		"/>
	<path class="st1" d="M67.7,26.7c0.9,0,1.6-0.7,1.6-1.6c0-0.9-0.7-1.6-1.6-1.6c-0.9,0-1.6,0.7-1.6,1.6
		C66.1,25.9,66.9,26.7,67.7,26.7z"/>
	<path class="st1" d="M42.6,49h20v5.3H43.5v8.4l-3.9-3.9l-1.2,1.2l6,6l6.1-6l-1.2-1.2l-4.1,4V56h36.4v6.7l-4.1-4l-1.2,1.2l6.1,6
		l6.1-6l-1.2-1.2l-4.1,4v-8.4h-19V49h19.8c3.8,0,6.9-3.1,6.9-6.9s-3.1-6.9-6.9-6.9H42.6c-3.8,0-6.9,3.1-6.9,6.9S38.8,49,42.6,49z
		 M42.6,37h41.6c2.8,0,5.1,2.3,5.1,5.1s-2.3,5.1-5.1,5.1H42.6c-2.8,0-5.1-2.3-5.1-5.1S39.8,37,42.6,37z"/>
	<path class="st1" d="M75.2,43.7c0.9,0,1.6-0.7,1.6-1.6c0-0.9-0.7-1.6-1.6-1.6c-0.9,0-1.6,0.7-1.6,1.6C73.6,43,74.3,43.7,75.2,43.7z
		"/>
	<path class="st1" d="M82.7,43.7c0.9,0,1.6-0.7,1.6-1.6c0-0.9-0.7-1.6-1.6-1.6c-0.9,0-1.6,0.7-1.6,1.6C81,43,81.8,43.7,82.7,43.7z"
		/>
	<path class="st1" d="M67.7,43.7c0.9,0,1.6-0.7,1.6-1.6c0-0.9-0.7-1.6-1.6-1.6c-0.9,0-1.6,0.7-1.6,1.6C66.1,43,66.9,43.7,67.7,43.7z
		"/>
	<rect x="23.8" y="72.3" class="st1" width="34.5" height="21"/>
	<rect x="67.5" y="72.3" class="st1" width="34.5" height="21"/>
</g>
<g>
	<path class="st3" d="M22.9,94.2h36.2V71.4H22.9V94.2z M24.7,73.2h32.8V76l-16.4,5.9L24.7,76V73.2z M24.7,77.8l16.5,5.9l16.3-5.9
		v14.6H24.7V77.8z"/>
	<path class="st3" d="M66.6,71.4v22.7h36.2V71.4H66.6z M101.1,92.4H68.4V77.8l16.3,5.9l16.5-5.9V92.4z M101.1,76l-16.4,5.9L68.4,76
		v-2.9h32.8V76z"/>
</g>
</svg>
