<?xml version="1.0" encoding="utf-8"?>
<!-- Generator: Adobe Illustrator 21.0.0, SVG Export Plug-In . SVG Version: 6.00 Build 0)  -->
<svg version="1.1" id="Layer_1" xmlns="http://www.w3.org/2000/svg" xmlns:xlink="http://www.w3.org/1999/xlink" x="0px" y="0px"
	 viewBox="0 0 123 123" style="enable-background:new 0 0 123 123;" xml:space="preserve">
<style type="text/css">
	.st0{fill:#1FCCB1;}
	.st1{fill:#FFFFFF;}
	.st2{fill:#1CCCFD;}
	.st3{fill:#7F7F7F;}
</style>
<g>
	<path class="st0" d="M61.7,121.6c33,0,59.9-26.9,59.9-59.9S94.7,1.8,61.7,1.8S1.8,28.7,1.8,61.7C1.9,94.8,28.8,121.6,61.7,121.6z"
		/>
	<path class="st1" d="M61.7,122.5c-33.4,0-60.6-27.3-60.8-60.7c0-33.5,27.3-60.8,60.8-60.8s60.8,27.3,60.8,60.8
		S95.2,122.5,61.7,122.5z M61.7,2.7c-32.6,0-59,26.5-59,59c0.1,32.6,26.6,59,59,59c32.6,0,59-26.5,59-59
		C120.7,29.1,94.3,2.7,61.7,2.7z"/>
</g>
<path class="st2" d="M44.9,26.3c1.5,0,3,0.3,4.3,0.9C51.3,21.2,57,17,63.6,17c8.1,0,14.8,6.4,15.3,14.4h3.6c4.5,0,8.1,3.6,8.1,8.1
	s-3.7,8.1-8.1,8.1c-11.4,0-25.1,0-37.6,0c-5.9,0-10.6-4.8-10.6-10.6C34.2,31.1,39,26.3,44.9,26.3z"/>
<g>
	<path class="st1" d="M44.9,48.5h16.6v5.8h-19v8.4l-4.1-4l-1.2,1.2l6.1,6l6-6l-1.2-1.2l-3.9,3.9V56h36.3v6.7l-4.1-4l-1.2,1.2l6.1,6
		l6.1-6l-1.2-1.2l-4.1,4v-8.4h-19v-5.8h19.2c4.9,0,9-4,9-9s-4-9-9-9h-2.8c-0.9-8.1-7.8-14.4-16.1-14.4c-6.5,0-12.4,4-14.9,9.9
		c-1.2-0.4-2.5-0.6-3.8-0.6c-3.1,0-6,1.2-8.2,3.4c-2.2,2.2-3.3,5.1-3.3,8.1C33.4,43.3,38.6,48.5,44.9,48.5z M37.9,30.1
		c1.9-1.9,4.3-2.9,7-2.9c1.4,0,2.8,0.3,3.9,0.8l0.9,0.4l0.3-0.9c2-5.8,7.5-9.6,13.6-9.6c7.6,0,14,6,14.5,13.6l0,0.8h4.4
		c4,0,7.2,3.3,7.2,7.2s-3.3,7.2-7.2,7.2H44.9c-5.4,0-9.7-4.4-9.8-9.8C35.1,34.4,36.1,31.9,37.9,30.1z"/>
	<rect x="66.4" y="72.3" class="st1" width="34.5" height="21"/>
	<rect x="22.7" y="72.3" class="st1" width="34.5" height="21"/>
</g>
<g>
	<path class="st3" d="M65.5,71.4v22.7h36.2V71.4H65.5z M100,73.2V76l-16.4,5.9L67.3,76v-2.9H100z M67.3,92.4V77.8l16.5,5.9l16.3-5.9
		v14.6H67.3z"/>
	<path class="st3" d="M21.8,94.2h36.2V71.4H21.8V94.2z M23.6,92.4V77.8L40,83.7l16.3-5.9v14.6H23.6z M56.3,73.2V76L40,81.9L23.6,76
		v-2.9H56.3z"/>
</g>
</svg>
