<?xml version="1.0" encoding="utf-8"?>
<!-- Generator: Adobe Illustrator 21.0.0, SVG Export Plug-In . SVG Version: 6.00 Build 0)  -->
<svg version="1.1" id="Layer_1" xmlns="http://www.w3.org/2000/svg" xmlns:xlink="http://www.w3.org/1999/xlink" x="0px" y="0px"
	 viewBox="0 0 121 121" style="enable-background:new 0 0 121 121;" xml:space="preserve">
<style type="text/css">
	.st0{fill:#979AFB;}
	.st1{fill:#FFFFFF;}
	.st2{fill:#FE6421;}
	.st3{fill:#1FCCB1;}
	.st4{fill:#1CCCFD;}
	.st5{fill:#FC8D92;}
	.st6{fill:#CE3254;}
</style>
<g>
	<path class="st0" d="M60.8,119.8c32.5,0,59-26.5,59-59s-26.5-59-59-59s-59,26.5-59,59C1.9,93.3,28.4,119.8,60.8,119.8z"/>
	<path class="st1" d="M60.8,120.7c-32.9,0-59.7-26.8-59.9-59.8c0-33,26.8-59.9,59.9-59.9c33,0,59.9,26.8,59.9,59.9
		C120.7,93.8,93.8,120.7,60.8,120.7z M60.8,2.7C28.7,2.7,2.7,28.7,2.7,60.8c0.1,32.1,26.2,58.1,58.1,58.1
		c32.1,0,58.1-26.1,58.1-58.1C118.9,28.7,92.9,2.7,60.8,2.7z"/>
</g>
<g>
	<polygon class="st1" points="52.5,81.7 52.5,79.9 39.6,79.9 39.6,60.1 43.7,64.2 44.9,63 38.7,56.9 32.6,63 33.8,64.2 37.8,60.2 
		37.8,81.7 	"/>
	<path class="st1" d="M101.6,35.9H84.8c-2.2,0-4.1,1.8-4.1,4.1v9.6c0,2.2,1.8,4.1,4.1,4.1h2.6l-1.2,7.8l12.4-7.8h3.1
		c2.2,0,4.1-1.8,4.1-4.1V40C105.7,37.8,103.8,35.9,101.6,35.9z M103.9,49.6c0,1.3-1.1,2.3-2.3,2.3h-3.5l-9.6,6l1-6h-4.6
		c-1.3,0-2.3-1.1-2.3-2.3V40c0-1.3,1.1-2.3,2.3-2.3h16.8c1.3,0,2.3,1.1,2.3,2.3V49.6z"/>
	<path class="st1" d="M82,87.5L73.7,86v-1.1c1.5-0.9,2.6-1.9,3.7-3.3H80c1.8,0,3.2-1.5,3.2-3.2V64c0-8.4-6.8-15.2-15.2-15.2
		c-8.4,0-15.2,6.8-15.2,15.2v8.4c0,2.1,1.5,3.9,3.5,4.4h0.2l0.1,0.2c0.6,3.3,2.7,6.1,5.6,7.8l0.2,0.1V86l-1.3,0.3l-6.9,1.3
		c-2.9,0.5-5.3,2.6-6.2,5.3l-2.6,7.9c13,7.5,28.3,6.8,45.4-0.1l-2.6-7.9C87.3,90,84.9,88,82,87.5z"/>
	<path class="st1" d="M57.4,44.7c0-3.7-2.9-6.6-6.6-6.6h-1.7c-0.7-5.8-5.6-10.2-11.6-10.2c-4.6,0-8.8,2.8-10.7,7.1
		c-0.8-0.2-1.6-0.4-2.5-0.4c-4.5,0-8.3,3.7-8.5,8.3c0,4.6,3.7,8.4,8.4,8.4h26.6C54.4,51.3,57.4,48.3,57.4,44.7z M17.6,42.9
		c0.1-3.6,3.1-6.6,6.7-6.6c1,0,1.9,0.2,2.7,0.5l0.8,0.4l0.3-0.9c1.4-4,5.2-6.7,9.4-6.7c5.3,0,9.7,4.1,10,9.4l0,0.8h3.3
		c2.7,0,4.8,2.1,4.8,4.8c0,2.7-2.2,4.8-4.8,4.8H24.2C20.6,49.5,17.6,46.5,17.6,42.9z"/>
	<rect x="86.4" y="41.6" class="st1" width="13.7" height="1.7"/>
	<rect x="86.4" y="46.3" class="st1" width="8.9" height="1.7"/>
	<rect x="98.3" y="46.3" class="st1" width="1.7" height="1.7"/>
</g>
<path class="st2" d="M97.7,51.1l-8.2,5.1l0.9-5.1h-5.6c-0.9,0-1.5-0.7-1.5-1.6V40c0-0.9,0.7-1.5,1.5-1.5h16.8c0.9,0,1.5,0.7,1.5,1.5
	v9.6c0,0.9-0.7,1.6-1.5,1.6L97.7,51.1C97.7,51.2,97.7,51.1,97.7,51.1z"/>
<path class="st3" d="M87.3,59.7l11-6.9h3.3c1.8,0,3.2-1.5,3.2-3.2V40c0-1.8-1.5-3.2-3.2-3.2H84.8c-1.8,0-3.2,1.5-3.2,3.2v9.6
	c0,1.8,1.5,3.2,3.2,3.2h3.6L87.3,59.7z"/>
<path class="st4" d="M24.3,35.5c1.1,0,2.1,0.2,3,0.6c1.5-4.2,5.5-7.3,10.2-7.3c5.8,0,10.5,4.5,10.8,10.2h2.5c3.2,0,5.7,2.5,5.7,5.7
	s-2.6,5.7-5.7,5.7c-8.1,0-17.7,0-26.6,0c-4.1,0-7.5-3.4-7.5-7.5C16.8,38.8,20.2,35.5,24.3,35.5z"/>
<path class="st5" d="M68.4,79.9v1.7h6.9l-0.7,0.6c-1.8,1.6-4.1,2.5-6.6,2.5c-5.5,0-9.9-4.5-9.9-9.9v-6.3h0.4
	c3.5-0.3,6.8-1.7,9.4-4.2L68,64l0.3,0.2c2.5,2.5,5.8,3.9,9.4,4.2H78v6.3c0,1.9-0.5,3.5-1.4,5.2C76.6,79.9,68.4,79.9,68.4,79.9z"/>
<path class="st6" d="M56.4,66.7V68c-0.5,0.2-0.9,0.3-1.4,0.5l-0.5,0.3V64c0-7.5,6-13.5,13.5-13.5s13.5,6,13.5,13.5v4.8
	c-0.5-0.3-1-0.6-1.6-0.8h-0.2v-1.3h-0.9c-3.6,0-7.1-1.4-9.6-4L68,61.6l-1.1,1.2c-2.6,2.5-6,4-9.6,4h-0.9V66.7z"/>
<path class="st5" d="M54.6,72.3c0-1,0.5-1.9,1.4-2.4l0.5-0.3V75L56,74.7C55.1,74.2,54.6,73.3,54.6,72.3z"/>
<path class="st5" d="M80.2,70c0.9,0.5,1.4,1.4,1.4,2.4s-0.5,1.9-1.4,2.4L79.7,75v-5.3L80.2,70z"/>
<path class="st0" d="M80,79.9h-1.6c0.4-1,0.8-1.8,1-2.9v-0.2c0.6-0.1,1-0.3,1.6-0.6l0.5-0.3v2.5C81.6,79.2,80.9,79.9,80,79.9z"/>
<path class="st5" d="M68,90.3l-3.9-3.9v-0.7l0.4,0.2c2.3,0.7,4.7,0.7,7,0l0.4-0.2v0.7L68,90.3z"/>
</svg>
