<?xml version="1.0" encoding="utf-8"?>
<!-- Generator: Adobe Illustrator 21.0.0, SVG Export Plug-In . SVG Version: 6.00 Build 0)  -->
<svg version="1.1" id="Layer_1" xmlns="http://www.w3.org/2000/svg" xmlns:xlink="http://www.w3.org/1999/xlink" x="0px" y="0px"
	 viewBox="0 0 66 66" style="enable-background:new 0 0 66 66;" xml:space="preserve">
<style type="text/css">
	.st0{fill:#FE6421;}
</style>
<rect x="49" y="4.3" class="st0" width="12.2" height="1.5"/>
<path class="st0" d="M9.3,26.1l-0.8-1.3l-3.3,2l0.2-0.7C8.5,13.5,19.8,4.7,32.7,4.7c2.7,0,5.4,0.4,8,1.2l0.5-1.4
	c-2.7-0.8-5.6-1.2-8.5-1.2C19,3.3,7,12.8,3.9,26.2L3.7,27l-2.3-3.8L0.1,24l3.4,5.7L9.3,26.1z"/>
<path class="st0" d="M62.6,0h-15c-1.6,0-2.9,1.3-2.9,2.9v8.6c0,1.6,1.3,2.9,2.9,2.9h3.2l-1,6.1l9.8-6.1h3c1.6,0,2.9-1.3,2.9-2.9V2.9
	C65.5,1.3,64.2,0,62.6,0z M64,11.5c0,0.7-0.6,1.4-1.4,1.4h-3.5v-0.1l-7.3,4.6l0.8-4.6h-5c-0.7,0-1.4-0.6-1.4-1.4V2.9
	c0-0.8,0.6-1.4,1.4-1.4h15c0.8,0,1.4,0.6,1.4,1.4V11.5z"/>
<rect x="59.7" y="8.6" class="st0" width="1.5" height="1.5"/>
<path class="st0" d="M50.6,50.1c-0.8-2.5-2.9-4.3-5.5-4.8l-7.4-1.4v-1l0.2-0.1c1.2-0.7,2.2-1.6,3.1-2.7V40h2.3
	c1.6,0,2.9-1.3,2.9-2.9V24.3c0-7.5-6.1-13.6-13.6-13.6S19,16.8,19,24.3v7.5c0,1.9,1.3,3.5,3.1,3.9l0.2,0.1l0.1,0.2
	c0.6,2.9,2.4,5.5,5,7l0.1,0.1v1l-7.4,1.4c-2.6,0.5-4.7,2.3-5.5,4.8L14,52.1l-4-4c-0.5-0.5-0.5-1.4,0-2l4.1-4.2l-7.5-7.5L2,39
	c-1.3,1.3-2,3.1-2,5c0,1.9,0.7,3.7,2.1,5.1l14.4,14.4c1.4,1.4,3.2,2.1,5.1,2.1c1.9,0,3.7-0.7,5-2.1l5-4.5l-1.9-1.9h23.2L50.6,50.1z
	 M44.8,36.9c-0.1,0.9-0.7,1.6-1.5,1.6H42l0.2-0.5c0.3-0.7,0.5-1.4,0.7-2.2v-0.2l0.2-0.1c0.4-0.1,0.8-0.3,1.2-0.5l0.5-0.3V36.9z
	 M43,34.1v-4.7l0.5,0.2c0.8,0.5,1.2,1.2,1.2,2.1c0,0.9-0.5,1.6-1.2,2.1L43,34.1z M22.3,34l-0.5-0.3c-0.7-0.3-1.2-1.1-1.2-2
	c0-0.9,0.5-1.7,1.2-2.1l0.5-0.3V34z M22.3,26.7v1.2L22.1,28c-0.3,0.1-0.7,0.2-1,0.4l-0.5,0.3v-4.3c0-6.7,5.4-12.1,12.1-12.1
	c6.6,0,12,5.4,12,12.1v4.3l-0.5-0.3c-0.3-0.2-0.7-0.3-1-0.4L43,27.9v-1.2h-0.8c-3.2,0-6.3-1.2-8.6-3.5l-1-1l-1,1
	c-2.3,2.3-5.3,3.5-8.6,3.5H22.3z M23.8,33.9v-5.7h0.3c3.1-0.2,6.1-1.5,8.3-3.7l0.2-0.2l0.2,0.2c2.3,2.2,5.2,3.5,8.4,3.7h0.3v5.7
	c0,1.6-0.4,3.1-1.2,4.4l-0.1,0.2H33V40h6.1l-0.6,0.5c-1.6,1.4-3.7,2.2-5.8,2.2C27.8,42.7,23.8,38.7,23.8,33.9z M36.2,43.7v0.6
	l-3.5,3.5l-3.5-3.5v-0.6l0.4,0.1c1,0.3,2.1,0.5,3.1,0.5s2.1-0.2,3.1-0.5L36.2,43.7z M6.6,36.5l5.4,5.4l-1.6,1.6L5,38.1L6.6,36.5z
	 M25.6,62.6c-1.1,0.9-2.5,1.5-4,1.5s-2.9-0.6-4-1.7L3.2,48c-1.1-1-1.6-2.5-1.6-4s0.6-2.9,1.6-4L4,39.2l5.4,5.3l-0.3,0.3
	c-1.1,1.1-1.1,3,0,4.1l7.7,7.7c0.5,0.5,1.3,0.9,2,0.9s1.5-0.3,2-0.8l0.3-0.3l5.4,5.4L25.6,62.6z M27.6,60.6l-5.4-5.4l1.9-1.7
	l5.4,5.3L27.6,60.6z M28.2,55.5l-4.1-4l-4.4,4c-0.5,0.5-1.4,0.5-1.9,0L15.3,53l0.8-2.5c0.7-2,2.3-3.4,4.3-3.8l7.6-1.4l4.5,4.5
	l4.5-4.5l7.6,1.4c2,0.4,3.7,1.8,4.3,3.8l1.7,5H28.2z"/>
<path class="st0" d="M55.6,25.7l1.3,0.8l2.1-3.4l0.2,0.6c1,2.9,1.5,6,1.5,9.1c0,6.3-2.1,12.5-6.1,17.4l1.2,1
	c4.1-5.2,6.4-11.7,6.4-18.4c0-3.2-0.5-6.4-1.5-9.4l-0.3-0.8l3.6,2.2l0.8-1.3L59.1,20L55.6,25.7z"/>
<rect x="49" y="8.6" class="st0" width="7.9" height="1.5"/>
</svg>
