<?xml version="1.0" encoding="utf-8"?>
<!-- Generator: Adobe Illustrator 21.0.0, SVG Export Plug-In . SVG Version: 6.00 Build 0)  -->
<svg version="1.1" id="Layer_1" xmlns="http://www.w3.org/2000/svg" xmlns:xlink="http://www.w3.org/1999/xlink" x="0px" y="0px"
	 viewBox="0 0 82 66" style="enable-background:new 0 0 82 66;" xml:space="preserve">
<style type="text/css">
	.st0{fill:#FE6421;}
</style>
<polygon class="st0" points="30.4,48.8 30.4,47 19.4,47 19.4,30.2 22.7,33.5 23.9,32.3 18.5,26.9 13.1,32.3 14.3,33.5 17.6,30.2 
	17.6,48.8 "/>
<rect x="76.2" y="18" class="st0" width="1.5" height="1.5"/>
<path class="st0" d="M62,53.8l-7.2-1.3v-1c1.4-0.8,2.3-1.6,3.3-2.9h2.2c1.6,0,2.8-1.3,2.8-2.8V33.3c0-7.3-5.9-13.2-13.2-13.2
	c-7.3,0-13.2,5.9-13.2,13.2v7.3c0,1.8,1.3,3.4,3.1,3.8l0.2,0.1l0.1,0.2c0.5,2.8,2.3,5.3,4.8,6.8l0.1,0.1v1l-0.6,0.1l-0.5,0l-6,1.1
	c-2.1,0.3-3.8,1.6-4.9,3.4c-0.3,0.4-0.5,0.8-0.6,1.3l-0.3,1c0,0,0,0,0,0l-1.9,5.7h18H50h19.7l-2.3-6.8C66.6,56,64.6,54.2,62,53.8z
	 M61.8,45.7c-0.1,0.8-0.8,1.4-1.5,1.4H59c0.4-0.9,0.7-1.6,0.9-2.5v-0.2c0.5-0.1,0.9-0.2,1.4-0.5l0.5-0.3V45.7z M60.5,42.5L60,42.9
	v-4.6l0.5,0.2c0.7,0.4,1.2,1.2,1.2,2C61.7,41.3,61.2,42.1,60.5,42.5z M39.9,42.8l-0.5-0.3c-0.8-0.3-1.2-1.1-1.2-2
	c0-0.9,0.5-1.6,1.2-2l0.5-0.3V42.8z M39.8,35.7v1c-0.5,0.1-0.8,0.2-1.2,0.5l-0.5,0.3v-4.2c0-6.5,5.3-11.7,11.7-11.7
	c6.4,0,11.7,5.2,11.7,11.7v4.2c-0.5-0.3-0.9-0.5-1.4-0.7H60v-1.1h-0.7c-3.2,0-6.1-1.2-8.4-3.5l-1-1l-1,1c-2.2,2.2-5.2,3.5-8.3,3.5
	H39.8z M41.3,42.7v-5.5h0.3c3.1-0.2,5.9-1.5,8.1-3.6l0.2-0.2l0.2,0.2c2.2,2.1,5.1,3.4,8.1,3.6h0.3v5.5c0,1.6-0.5,3.1-1.2,4.5h-7.1
	v1.4h6l-0.6,0.5c-1.6,1.4-3.6,2.2-5.7,2.2C45.1,51.3,41.3,47.4,41.3,42.7z M50,56L50,56l-3.5-3.3v-0.6l0.4,0.1c2,0.6,4.1,0.6,6.1,0
	l0.4-0.1v0.6L50,56L50,56L50,56z M50,63.8v-0.1H32.3l1.6-4.9c0.1-0.3,0.2-0.6,0.4-0.9c0.8-1.4,2.2-2.4,3.8-2.7l7.4-1.3l4.4,4.4
	l4.4-4.4l7.4,1.3c2,0.4,3.6,1.8,4.2,3.7l1.6,4.9H50z"/>
<path class="st0" d="M79,9.7H64.5c-1.6,0-2.8,1.3-2.8,2.8v8.3c0,1.5,1.2,2.8,2.8,2.8h3.1l-1,6l9.6-6H79c1.6,0,2.8-1.3,2.8-2.8v-8.3
	C81.8,11,80.6,9.7,79,9.7z M80.3,20.8c0,0.7-0.6,1.3-1.3,1.3h-3.3l-7.1,4.4l0.8-4.4h-4.9c-0.7,0-1.3-0.6-1.3-1.3v-8.3
	c0-0.7,0.6-1.3,1.3-1.3H79c0.7,0,1.3,0.6,1.3,1.3V20.8z"/>
<rect x="65.8" y="13.8" class="st0" width="11.9" height="1.5"/>
<rect x="65.8" y="18" class="st0" width="7.7" height="1.5"/>
<path class="st0" d="M36.4,15.6c0-3.2-2.6-5.9-5.9-5.9h-1.4c-0.7-5-5-8.8-10.2-8.8c-4.1,0-7.8,2.4-9.4,6.1c-5-1.4-9.4,2.2-9.4,7.1
	c0,4.1,3.3,7.4,7.4,7.4h23C33.7,21.5,36.4,18.8,36.4,15.6z M1.9,14.1c0-3.2,2.4-5.6,5.5-5.6c0.7,0,1.5,0.2,2.3,0.4l0.8,0.3l0.3-0.8
	C12,5,15.3,2.7,18.9,2.7c4.5,0,8.3,3.5,8.6,8l0,0.8h3c2.3,0,4.1,1.9,4.1,4.1s-1.9,4.1-4.1,4.1h-23C4.4,19.7,1.9,17.2,1.9,14.1z"/>
</svg>
