<?xml version="1.0" encoding="utf-8"?>
<!-- Generator: Adobe Illustrator 21.0.0, SVG Export Plug-In . SVG Version: 6.00 Build 0)  -->
<svg version="1.1" id="Layer_1" xmlns="http://www.w3.org/2000/svg" xmlns:xlink="http://www.w3.org/1999/xlink" x="0px" y="0px"
	 viewBox="0 0 66 65" style="enable-background:new 0 0 66 65;" xml:space="preserve">
<style type="text/css">
	.st0{fill:#FE6421;}
</style>
<path class="st0" d="M39.1,25.5c3.9,0,7.2-3.2,7.2-7.2s-3.2-7.2-7.2-7.2h-1.9C36.4,4.9,31,0,24.6,0c-5.1,0-9.7,3-11.7,7.7
	c-1-0.3-1.9-0.5-2.8-0.5c-5,0-9,4-9.2,9.2c0,5,4.1,9.1,9.1,9.1H39.1z M2.6,16.4C2.7,12.2,6,9,10.1,9c0.9,0,1.9,0.2,3,0.6l0.8,0.3
	l0.3-0.8c1.5-4.4,5.7-7.3,10.4-7.3c5.8,0,10.6,4.5,11,10.3l0.1,0.8h3.5c3,0,5.5,2.4,5.5,5.4s-2.4,5.4-5.5,5.4H10
	C5.9,23.7,2.7,20.5,2.6,16.4z"/>
<path class="st0" d="M47.9,28.1c-7.7,0-15.6,1.8-15.5,5.3c0,0.2,0,0.3,0.1,0.5v12.2h-0.1c0,0.2,0,0.4,0.1,0.6v12.2
	c0,3.4,7.8,5.2,15.6,5.2s15.6-1.8,15.6-5.2V33.3h-0.1C63.3,29.9,55.6,28.1,47.9,28.1z M61.8,46.1h-0.1c0,1.4-5.5,3.5-13.8,3.5
	c-7.7,0-13-1.8-13.8-3.2V35.9c2.8,1.8,8.4,2.7,13.8,2.7c5.5,0,11.2-1,13.9-2.8V46.1z M47.9,29.9c8.3,0,13.8,2.1,13.8,3.5
	c0,1.2-4.9,3.4-13.8,3.4c-8.2,0-13-2-13.8-3.2v-0.4h-0.1C34.3,31.9,39.8,29.9,47.9,29.9z M48,62.4c-8.3,0-13.8-2.1-13.8-3.5V48.7
	c2.8,1.8,8.3,2.7,13.8,2.7c5.6,0,11.3-1,13.9-2.8v10.4C61.8,60.3,56.3,62.4,48,62.4z"/>
<polygon class="st0" points="58.7,20.5 55,16.8 53.8,18 59.6,23.8 65.4,18 64.2,16.8 60.5,20.5 60.5,3.3 41.6,3.3 41.6,5.1 
	58.7,5.1 "/>
<polygon class="st0" points="12.2,34.4 15.6,37.8 16.8,36.6 11.4,31.2 6,36.6 7.2,37.8 10.4,34.6 10.4,50.4 28,50.4 28,48.6 
	12.2,48.6 "/>
</svg>
