<?xml version="1.0" encoding="utf-8"?>
<!-- Generator: Adobe Illustrator 21.0.0, SVG Export Plug-In . SVG Version: 6.00 Build 0)  -->
<svg version="1.1" id="Layer_1" xmlns="http://www.w3.org/2000/svg" xmlns:xlink="http://www.w3.org/1999/xlink" x="0px" y="0px"
	 viewBox="0 0 71 69" style="enable-background:new 0 0 71 69;" xml:space="preserve">
<style type="text/css">
	.st0{fill:#FE6421;}
</style>
<path class="st0" d="M20.4,28.6h14.3v4.8H18v7.2l-3.4-3.3l-1.2,1.2l5.5,5.4l5.4-5.4l-1.2-1.2l-3.4,3.4v-5.7h31.7v5.6l-3.3-3.3
	l-1.2,1.2l5.4,5.4l5.4-5.4l-1.2-1.2l-3.3,3.3v-7.3H36.5v-4.8h16.8c4.4,0,8-3.6,8-8s-3.6-8-8-8H51C50.2,5.5,44.1,0,36.8,0
	c-5.8,0-11,3.5-13.2,8.8c-3.9-1.3-8-0.2-10.7,2.5c-1.8,1.9-2.8,4.4-2.7,7.1C10.2,24,14.8,28.6,20.4,28.6z M14.2,12.5
	c1.6-1.7,3.8-2.6,6.1-2.6c1.1,0,2.3,0.3,3.5,0.7l0.8,0.3l0.3-0.9c1.7-5,6.5-8.4,11.9-8.4c6.7,0,12.2,5.2,12.6,11.8l0,0.8h3.9
	c3.4,0,6.2,2.8,6.2,6.2s-2.8,6.2-6.2,6.2H20.4c-4.7,0-8.4-3.8-8.5-8.5C11.9,16.2,12.7,14.1,14.2,12.5z"/>
<path class="st0" d="M38.2,48.5v20.2h32V48.5H38.2z M68.5,50.3v2.3l-14.3,5.2L40,52.5v-2.3H68.5z M40,67V54.3l14.4,5.2l14.2-5.2V67
	H40z"/>
<path class="st0" d="M0,68.8h32V48.5H0V68.8z M1.8,67V54.3L16,59.5l14.3-5.2V67H1.8z M30.3,50.3v2.2L16,57.7L1.8,52.5v-2.3H30.3z"/>
</svg>
