<?xml version="1.0" encoding="utf-8"?>
<!-- Generator: Adobe Illustrator 21.0.0, SVG Export Plug-In . SVG Version: 6.00 Build 0)  -->
<svg version="1.1" id="Layer_1" xmlns="http://www.w3.org/2000/svg" xmlns:xlink="http://www.w3.org/1999/xlink" x="0px" y="0px"
	 viewBox="0 0 71 67" style="enable-background:new 0 0 71 67;" xml:space="preserve">
<style type="text/css">
	.st0{fill:#FE6421;}
</style>
<path class="st0" d="M38.2,46.7V67h32V46.7H38.2z M68.5,48.5v2.3l-14.3,5.2L40,50.7v-2.3H68.5z M40,65.2V52.5l14.4,5.2l14.2-5.2
	v12.7H40z"/>
<path class="st0" d="M0,67h32V46.7H0V67z M1.8,65.2V52.5L16,57.7l14.3-5.2v12.8H1.8z M30.3,48.5v2.2L16,55.9L1.8,50.7v-2.3H30.3z"/>
<path class="st0" d="M17.4,12.4h36.5c3.4,0,6.2-2.8,6.2-6.2c0-3.4-2.8-6.2-6.2-6.2H17.4c-3.4,0-6.2,2.8-6.2,6.2
	C11.2,9.6,14,12.4,17.4,12.4z M17.4,1.8h36.5c2.4,0,4.4,2,4.4,4.4c0,2.4-2,4.4-4.4,4.4H17.4c-2.4,0-4.4-2-4.4-4.4
	C13,3.7,14.9,1.8,17.4,1.8z"/>
<path class="st0" d="M45.9,7.6c0.8,0,1.4-0.7,1.4-1.4c0-0.8-0.7-1.4-1.4-1.4c-0.8,0-1.4,0.7-1.4,1.4S45.2,7.6,45.9,7.6z"/>
<path class="st0" d="M52.5,7.6c0.8,0,1.4-0.7,1.4-1.4c0-0.8-0.6-1.4-1.4-1.4s-1.4,0.7-1.4,1.4S51.7,7.6,52.5,7.6z"/>
<path class="st0" d="M39.4,7.6c0.8,0,1.4-0.7,1.4-1.4c0-0.8-0.7-1.4-1.4-1.4c-0.8,0-1.4,0.7-1.4,1.4S38.6,7.6,39.4,7.6z"/>
<path class="st0" d="M17.4,27.3h17.3v4.4H18v7.1l-3.4-3.3l-1.2,1.2l5.5,5.4l5.4-5.4l-1.2-1.2l-3.4,3.4v-5.6h31.7v5.5l-3.3-3.3
	l-1.2,1.2l5.4,5.4l5.4-5.4l-1.2-1.2l-3.3,3.3v-7.2H36.5v-4.4h17.5c3.4,0,6.2-2.8,6.2-6.2c0-3.4-2.8-6.2-6.2-6.2H17.4
	c-3.4,0-6.2,2.8-6.2,6.2C11.2,24.5,14,27.3,17.4,27.3z M17.4,16.7h36.5c2.4,0,4.4,2,4.4,4.4c0,2.4-2,4.4-4.4,4.4H17.4
	c-2.4,0-4.4-2-4.4-4.4C13,18.7,15,16.7,17.4,16.7z"/>
<path class="st0" d="M45.9,22.5c0.8,0,1.4-0.6,1.4-1.4s-0.7-1.4-1.4-1.4c-0.8,0-1.4,0.6-1.4,1.4S45.2,22.5,45.9,22.5z"/>
<path class="st0" d="M52.5,22.5c0.8,0,1.4-0.6,1.4-1.4s-0.6-1.4-1.4-1.4s-1.4,0.6-1.4,1.4S51.7,22.5,52.5,22.5z"/>
<path class="st0" d="M39.4,22.5c0.8,0,1.4-0.6,1.4-1.4s-0.7-1.4-1.4-1.4c-0.8,0-1.4,0.6-1.4,1.4S38.6,22.5,39.4,22.5z"/>
</svg>
