<?xml version="1.0" encoding="utf-8"?>
<!-- Generator: Adobe Illustrator 21.0.0, SVG Export Plug-In . SVG Version: 6.00 Build 0)  -->
<svg version="1.1" id="Layer_1" xmlns="http://www.w3.org/2000/svg" xmlns:xlink="http://www.w3.org/1999/xlink" x="0px" y="0px"
	 viewBox="0 0 57 57" style="enable-background:new 0 0 57 57;" xml:space="preserve">
<style type="text/css">
	.st0{fill:#FE6421;}
</style>
<path class="st0" d="M51.2,0H5.1C2.3,0,0,2.3,0,5.1v46.1c0,2.8,2.3,5.1,5.1,5.1h1.6c0,0,0.1,0,0.1,0.1c0.1,0,0.2,0,0.3,0
	c0.1,0,0.3,0,0.4-0.1h41.2c0.2,0.1,0.4,0.2,0.6,0.2c0.1,0,0.2,0,0.3,0c0.1,0,0.2-0.1,0.3-0.2h1.3c2.8,0,5.1-2.3,5.1-5.1V5.1
	C56.3,2.3,54,0,51.2,0z M5.1,2h46.1c1.7,0,3.1,1.5,3.1,3.1v6.5H2V5.1C2,3.4,3.4,2,5.1,2z M24.2,34.4c-1.1-1.1-1.6-2.2-1.7-3.3
	c0-0.4-0.3-0.7-0.6-0.8c-0.6-0.2-0.7-0.5-0.7-0.8l-0.3-2c0-0.1,0-0.1,0-0.2c-0.1-0.2,0-0.5,0.2-0.7c0.1-0.1,0.2-0.2,0.3-0.3
	c0.3-0.2,0.5-0.5,0.5-0.9l0.1-2.9c0-3.2,3.1-4.6,6.2-4.6s6.2,1.4,6.2,4.6l0.1,2.9c0,0.4,0.2,0.7,0.5,0.9c0.1,0.1,0.1,0.1,0.3,0.2
	c0.2,0.3,0.3,0.6,0.2,0.9l-0.3,2c0,0.1-0.1,0.5-0.8,0.8c-0.3,0.1-0.6,0.5-0.6,0.8c-0.1,1.1-0.6,2.2-1.7,3.3
	c-0.2,0.2-0.3,0.4-0.3,0.7v1.2c0,0.5,0.3,0.9,0.8,1l1.7,0.4l5.9,1c2.3,0.5,3.8,2,4.1,4.2c0,0.1,0,0.1,0,0.2l3.6,11.3h-5.1l-2.3-7.5
	c-0.2-0.5-0.7-0.8-1.2-0.7c-0.5,0.2-0.8,0.7-0.7,1.2l2.1,6.9H15.7l2.1-6.9c0.2-0.5-0.1-1.1-0.7-1.2c-0.5-0.2-1.1,0.1-1.2,0.7
	l-2.3,7.5H8.5l3.7-11.4c0-0.1,0-0.1,0-0.2c0.3-2.1,1.8-3.7,4.1-4.2l5.9-1l1.5-0.3c0.5-0.1,0.8-0.5,0.8-1v-1.2
	C24.5,34.8,24.4,34.6,24.2,34.4z M51.2,54.3H50l-3.8-11.8c-0.5-2.9-2.6-5.1-5.7-5.8l-5.8-1l-0.8-0.2v0c1.1-1.2,1.7-2.4,1.9-3.7
	c0.8-0.5,1.4-1.2,1.5-2.1l0.3-2c0.1-0.9-0.1-1.9-0.7-2.6c-0.1-0.1-0.2-0.2-0.3-0.3l-0.1-2.4c0-4.5-4.2-6.6-8.2-6.6
	c-3.9,0-8.2,2.1-8.2,6.6l-0.1,2.5c-0.1,0-0.2,0.1-0.2,0.2c-0.8,0.8-1,1.8-0.8,2.7l0.3,1.9c0.1,0.7,0.4,1.5,1.4,2.1
	c0.2,1.3,0.9,2.5,1.9,3.7l-6.6,1.1c-3.1,0.6-5.2,2.8-5.7,5.7L6.4,54.3H5.1c-1.7,0-3.1-1.4-3.1-3.1V13.6h52.3v37.6
	C54.3,52.9,52.9,54.3,51.2,54.3z"/>
<path class="st0" d="M13.8,8.1c0.8,0,1.4-0.6,1.4-1.4s-0.7-1.4-1.4-1.4c-0.8,0-1.4,0.6-1.4,1.4S13,8.1,13.8,8.1z"/>
<path class="st0" d="M20.4,8.1c0.8,0,1.4-0.6,1.4-1.4s-0.6-1.4-1.4-1.4c-0.8,0-1.4,0.6-1.4,1.4S19.6,8.1,20.4,8.1z"/>
<path class="st0" d="M7.3,8.1c0.8,0,1.4-0.6,1.4-1.4c0-0.8-0.6-1.5-1.4-1.5c-0.8,0-1.4,0.6-1.4,1.4S6.5,8.1,7.3,8.1z"/>
</svg>
