<svg height="414pt" viewBox="0 -24 414 414" width="414pt" xmlns="http://www.w3.org/2000/svg"><path d="m367 365.304688h-320c-25.914062 0-47-21.085938-47-47v-271.304688c0-25.914062 21.085938-47 47-47h320c25.914062 0 47 21.085938 47 47v271.304688c0 25.914062-21.085938 47-47 47zm-320-351.304688c-18.195312 0-33 14.804688-33 33v271.304688c0 18.195312 14.804688 33 33 33h320c18.195312 0 33-14.804688 33-33v-271.304688c0-18.195312-14.804688-33-33-33zm0 0"/><path d="m350.820312 258.433594h-109.996093c-3.867188 0-7-3.132813-7-7 0-3.863282 3.132812-7 7-7h109.996093c3.863282 0 7 3.136718 7 7 0 3.867187-3.132812 7-7 7zm0 0"/><path d="m350.820312 309.042969h-109.996093c-3.867188 0-7-3.132813-7-7 0-3.863281 3.132812-7 7-7h109.996093c3.863282 0 7 3.136719 7 7 0 3.867187-3.132812 7-7 7zm0 0"/><path d="m350.820312 157.214844h-109.996093c-3.867188 0-7-3.132813-7-7 0-3.863282 3.132812-7 7-7h109.996093c3.863282 0 7 3.136718 7 7 0 3.867187-3.132812 7-7 7zm0 0"/><path d="m350.820312 207.824219h-109.996093c-3.867188 0-7-3.132813-7-7 0-3.863281 3.132812-7 7-7h109.996093c3.863282 0 7 3.136719 7 7 0 3.867187-3.132812 7-7 7zm0 0"/><path d="m407 93.730469h-400c-3.867188 0-7-3.132813-7-7 0-3.867188 3.132812-7 7-7h400c3.867188 0 7 3.132812 7 7 0 3.867187-3.132812 7-7 7zm0 0"/><path d="m100.914062 68.78125c-12.011718 0-21.785156-9.769531-21.785156-21.78125s9.773438-21.78125 21.785156-21.78125c12.011719 0 21.78125 9.769531 21.78125 21.78125s-9.769531 21.78125-21.78125 21.78125zm0-29.5625c-4.292968 0-7.785156 3.492188-7.785156 7.78125s3.492188 7.78125 7.785156 7.78125c4.289063 0 7.78125-3.492188 7.78125-7.78125s-3.492187-7.78125-7.78125-7.78125zm0 0"/><path d="m50.476562 68.78125c-12.007812 0-21.78125-9.769531-21.78125-21.78125s9.773438-21.78125 21.78125-21.78125c12.011719 0 21.785157 9.769531 21.785157 21.78125s-9.773438 21.78125-21.785157 21.78125zm0-29.5625c-4.289062 0-7.78125 3.492188-7.78125 7.78125s3.492188 7.78125 7.78125 7.78125c4.292969 0 7.785157-3.492188 7.785157-7.78125s-3.492188-7.78125-7.785157-7.78125zm0 0"/><path d="m151.347656 68.78125c-12.011718 0-21.78125-9.769531-21.78125-21.78125s9.769532-21.78125 21.78125-21.78125c12.011719 0 21.785156 9.769531 21.785156 21.78125s-9.773437 21.78125-21.785156 21.78125zm0-29.5625c-4.292968 0-7.78125 3.492188-7.78125 7.78125s3.492188 7.78125 7.78125 7.78125c4.292969 0 7.785156-3.492188 7.785156-7.78125s-3.492187-7.78125-7.785156-7.78125zm0 0"/><path d="m188 309.042969h-127c-3.867188 0-7-3.132813-7-7v-151.828125c0-3.863282 3.132812-7 7-7h127c3.867188 0 7 3.136718 7 7v151.828125c0 3.867187-3.132812 7-7 7zm-120-14h113v-137.828125h-113zm0 0"/></svg>