<?xml version="1.0" encoding="iso-8859-1"?>
<!-- Generator: Adobe Illustrator 19.0.0, SVG Export Plug-In . SVG Version: 6.00 Build 0)  -->
<svg version="1.1" id="Capa_1" xmlns="http://www.w3.org/2000/svg" xmlns:xlink="http://www.w3.org/1999/xlink" x="0px" y="0px"
	 viewBox="0 0 496 496" style="enable-background:new 0 0 496 496;" xml:space="preserve">
<g>
	<g>
		<path d="M472,112H288V40c0-22.056-17.944-40-40-40H40C17.944,0,0,17.944,0,40v416c0,22.056,17.944,40,40,40h208
			c22.056,0,40-17.944,40-40V336h-16v80H16V80h256v32h-72c-13.232,0-24,10.768-24,24v116.688L108.688,320H472
			c13.232,0,24-10.768,24-24V136C496,122.768,485.232,112,472,112z M272,432v24c0,13.232-10.768,24-24,24H40
			c-13.232,0-24-10.768-24-24v-24H272z M16,64V40c0-13.232,10.768-24,24-24h208c13.232,0,24,10.768,24,24v24H16z M480,296
			c0,4.416-3.584,8-8,8H147.312L192,259.312V136c0-4.416,3.584-8,8-8h272c4.416,0,8,3.584,8,8V296z"/>
	</g>
</g>
<g>
	<g>
		<path d="M416,208c-8.824,0-16-7.176-16-16c0-8.824,7.176-16,16-16c8.824,0,16,7.176,16,16h16c0-17.648-14.352-32-32-32
			s-32,14.352-32,32s14.352,32,32,32c8.824,0,16,7.176,16,16c0,8.824-7.176,16-16,16c-8.824,0-16-7.176-16-16h-16
			c0,17.648,14.352,32,32,32s32-14.352,32-32S433.648,208,416,208z"/>
	</g>
</g>
<g>
	<g>
		<path d="M256,208c-8.824,0-16-7.176-16-16c0-8.824,7.176-16,16-16c8.824,0,16,7.176,16,16h16c0-17.648-14.352-32-32-32
			s-32,14.352-32,32s14.352,32,32,32c8.824,0,16,7.176,16,16c0,8.824-7.176,16-16,16c-8.824,0-16-7.176-16-16h-16
			c0,17.648,14.352,32,32,32s32-14.352,32-32S273.648,208,256,208z"/>
	</g>
</g>
<g>
	<g>
		<polygon points="345.752,160 336,199.016 326.248,160 304,160 304,264 320,264 320,200.984 336,264.984 352,200.984 352,264 
			368,264 368,160 		"/>
	</g>
</g>
<g>
	<g>
		<rect x="112" y="448" width="64" height="16"/>
	</g>
</g>
<g>
	<g>
		<rect x="240" y="336" width="16" height="16"/>
	</g>
</g>
<g>
	<g>
		<rect x="208" y="336" width="16" height="16"/>
	</g>
</g>
<g>
	<g>
		<rect x="176" y="336" width="16" height="16"/>
	</g>
</g>
<g>
	<g>
		<rect x="144" y="336" width="16" height="16"/>
	</g>
</g>
<g>
</g>
<g>
</g>
<g>
</g>
<g>
</g>
<g>
</g>
<g>
</g>
<g>
</g>
<g>
</g>
<g>
</g>
<g>
</g>
<g>
</g>
<g>
</g>
<g>
</g>
<g>
</g>
<g>
</g>
</svg>
