<svg id="svg" version="1.1" xmlns="http://www.w3.org/2000/svg" xmlns:xlink="http://www.w3.org/1999/xlink" width="400" height="400" viewBox="0, 0, 400,400"><g id="svgg"><path id="path0" d="M210.200 36.397 C 183.548 36.531,169.841 36.736,169.919 37.000 C 169.985 37.220,170.435 38.030,170.918 38.800 C 172.050 40.601,173.362 42.967,174.382 45.047 C 174.827 45.953,175.451 46.911,175.770 47.175 C 176.088 47.439,176.464 48.183,176.606 48.828 C 176.748 49.472,177.031 50.000,177.236 50.000 C 177.583 50.000,178.428 51.463,180.383 55.447 C 180.827 56.353,181.451 57.311,181.770 57.575 C 182.088 57.839,182.464 58.583,182.606 59.228 C 182.748 59.872,183.036 60.400,183.246 60.400 C 183.456 60.400,183.993 61.165,184.439 62.100 C 184.884 63.035,185.777 64.700,186.423 65.800 C 187.069 66.900,187.963 68.558,188.410 69.483 C 188.857 70.409,189.400 71.277,189.617 71.411 C 189.835 71.545,190.289 72.227,190.628 72.927 C 190.966 73.627,191.773 75.100,192.420 76.200 C 193.067 77.300,193.955 78.941,194.394 79.847 C 194.832 80.753,195.451 81.711,195.770 81.975 C 196.088 82.239,196.464 82.983,196.606 83.628 C 196.748 84.272,197.036 84.800,197.246 84.800 C 197.456 84.800,197.995 85.565,198.444 86.500 C 199.755 89.235,201.120 91.649,201.751 92.349 C 202.074 92.707,202.462 93.497,202.613 94.105 C 202.765 94.713,203.110 95.343,203.380 95.505 C 203.650 95.667,204.058 96.144,204.288 96.565 C 204.675 97.276,205.217 97.328,212.110 97.305 C 220.827 97.277,221.030 97.234,221.381 95.363 C 221.526 94.588,221.994 93.655,222.421 93.289 C 222.847 92.924,223.308 92.030,223.445 91.303 C 223.581 90.575,223.995 89.760,224.364 89.490 C 224.732 89.221,225.253 88.254,225.521 87.341 C 225.788 86.429,226.259 85.586,226.566 85.468 C 226.873 85.351,227.244 84.710,227.390 84.046 C 227.536 83.381,227.977 82.424,228.369 81.919 C 228.762 81.413,229.308 80.312,229.582 79.472 C 229.856 78.632,230.332 77.847,230.640 77.729 C 230.948 77.611,231.200 77.199,231.200 76.813 C 231.200 76.427,231.628 75.481,232.151 74.710 C 232.674 73.939,233.322 72.642,233.591 71.826 C 233.860 71.011,234.321 70.252,234.616 70.139 C 234.910 70.026,235.272 69.363,235.419 68.667 C 235.566 67.970,236.002 67.040,236.388 66.600 C 236.774 66.160,237.288 65.207,237.530 64.481 C 237.773 63.756,238.338 62.697,238.786 62.127 C 239.234 61.558,239.600 60.784,239.600 60.408 C 239.600 60.032,239.950 59.407,240.377 59.021 C 240.805 58.634,241.267 57.804,241.405 57.177 C 241.543 56.550,241.977 55.624,242.369 55.119 C 242.762 54.613,243.299 53.541,243.561 52.735 C 243.824 51.930,244.283 51.177,244.582 51.062 C 244.880 50.948,245.251 50.257,245.405 49.527 C 245.560 48.797,246.005 47.840,246.394 47.400 C 246.783 46.960,247.322 45.912,247.591 45.072 C 247.860 44.232,248.315 43.454,248.601 43.344 C 248.887 43.234,249.239 42.517,249.383 41.750 C 249.527 40.983,249.950 40.048,250.322 39.672 C 251.778 38.204,252.154 35.508,250.820 36.097 C 250.699 36.151,232.420 36.286,210.200 36.397 M252.255 48.890 C 251.869 49.611,251.032 51.100,250.395 52.200 C 249.758 53.300,248.999 54.650,248.709 55.200 C 248.419 55.750,247.556 57.252,246.791 58.537 C 244.730 62.001,243.352 64.406,242.400 66.200 C 241.484 67.927,240.913 68.927,238.780 72.537 C 236.579 76.265,235.311 78.483,234.400 80.200 C 233.484 81.927,232.913 82.927,230.780 86.537 C 228.506 90.388,227.295 92.512,226.411 94.200 C 225.950 95.080,225.035 96.700,224.379 97.800 C 221.510 102.608,221.498 102.754,223.700 106.633 C 224.635 108.280,225.850 110.421,226.400 111.389 C 226.950 112.358,228.750 115.505,230.400 118.382 C 232.050 121.260,233.760 124.286,234.200 125.107 C 234.640 125.928,235.111 126.690,235.246 126.800 C 235.382 126.910,235.922 127.783,236.446 128.740 C 236.971 129.697,237.888 131.317,238.484 132.340 C 239.080 133.363,239.944 134.920,240.405 135.800 C 240.866 136.680,241.771 138.210,242.417 139.200 C 243.063 140.190,243.965 141.720,244.420 142.600 C 244.876 143.480,245.733 145.025,246.324 146.033 C 246.916 147.042,247.850 148.647,248.400 149.600 C 248.950 150.553,249.886 152.158,250.480 153.167 C 251.074 154.175,251.943 155.720,252.410 156.600 C 252.877 157.480,254.219 159.820,255.392 161.800 C 256.564 163.780,258.828 167.689,260.422 170.487 C 262.017 173.285,263.722 175.951,264.212 176.411 L 265.103 177.249 268.572 170.924 C 270.479 167.446,272.215 164.330,272.430 164.000 C 272.644 163.670,273.194 162.680,273.651 161.800 C 274.108 160.920,275.001 159.300,275.635 158.200 C 276.269 157.100,277.142 155.480,277.575 154.600 C 278.008 153.720,278.631 152.550,278.960 152.000 C 279.690 150.779,291.760 128.841,292.164 128.000 C 292.323 127.670,292.979 126.500,293.623 125.400 C 294.267 124.300,295.049 122.860,295.360 122.200 C 295.672 121.540,296.301 120.525,296.758 119.944 C 297.752 118.681,297.283 118.061,295.136 117.798 C 288.620 117.002,285.060 116.759,274.800 116.411 C 263.826 116.038,253.151 115.410,250.103 114.958 C 248.469 114.715,248.214 113.837,248.775 110.384 C 249.006 108.963,249.469 103.267,249.805 97.727 C 250.140 92.188,250.590 86.338,250.803 84.727 C 251.017 83.117,251.468 77.120,251.805 71.400 C 252.142 65.680,252.588 59.920,252.794 58.600 C 253.974 51.060,253.704 46.189,252.255 48.890 M258.496 48.395 C 258.223 48.832,258.000 49.635,258.000 50.180 C 258.000 50.725,257.664 52.032,257.252 53.085 C 256.709 54.477,256.427 56.638,256.218 61.000 C 256.060 64.300,255.677 69.160,255.366 71.800 C 255.056 74.440,254.610 80.200,254.376 84.600 C 254.141 89.000,253.784 93.860,253.582 95.400 C 252.916 100.476,252.294 109.923,252.557 110.971 L 252.815 112.000 258.308 112.007 C 261.328 112.010,265.870 112.189,268.400 112.404 C 282.376 113.592,296.736 114.214,297.543 113.668 C 298.146 113.259,297.879 111.936,297.020 111.077 C 296.730 110.787,296.100 109.841,295.620 108.975 C 295.140 108.109,294.315 106.680,293.788 105.800 C 293.260 104.920,292.366 103.390,291.801 102.400 C 291.236 101.410,290.245 99.790,289.599 98.800 C 288.450 97.040,288.163 96.557,285.891 92.554 C 285.281 91.479,284.335 89.880,283.789 89.000 C 283.243 88.120,282.428 86.770,281.978 86.000 C 281.528 85.230,280.545 83.610,279.794 82.400 C 279.043 81.190,278.261 79.840,278.057 79.400 C 277.853 78.960,276.951 77.430,276.052 76.000 C 275.154 74.570,273.598 71.960,272.594 70.200 C 270.907 67.242,268.136 62.617,267.202 61.200 C 266.985 60.870,266.354 59.790,265.800 58.800 C 264.873 57.143,262.135 52.617,261.203 51.200 C 260.986 50.870,260.443 49.925,259.996 49.100 C 259.045 47.344,259.128 47.383,258.496 48.395 M221.800 272.038 C 221.140 272.185,219.938 272.327,219.129 272.353 C 216.354 272.442,216.400 272.208,216.400 286.200 C 216.400 300.302,216.235 301.138,213.789 299.458 C 209.124 296.256,194.622 296.222,190.800 299.404 C 190.470 299.679,189.660 300.184,189.000 300.526 C 185.615 302.282,181.674 307.422,180.202 312.000 C 179.813 313.210,179.341 314.395,179.153 314.634 C 177.700 316.482,177.902 333.182,179.403 335.325 C 179.731 335.794,180.000 336.471,180.000 336.829 C 180.000 337.685,182.689 342.748,183.761 343.910 C 188.469 349.016,191.598 350.891,197.850 352.349 C 205.023 354.022,222.296 352.504,224.821 349.979 C 225.629 349.171,226.090 273.752,225.294 272.560 C 224.893 271.959,223.253 271.714,221.800 272.038 M155.940 276.248 C 155.136 276.581,154.368 277.157,154.233 277.527 C 154.098 277.897,153.723 278.650,153.400 279.200 C 151.392 282.616,155.261 288.024,159.280 287.420 C 161.948 287.018,163.519 285.767,164.190 283.510 C 165.831 277.981,161.323 274.012,155.940 276.248 M244.562 276.361 C 241.011 277.974,240.560 283.701,243.789 286.165 C 247.792 289.218,253.200 286.454,253.200 281.356 C 253.200 276.874,248.904 274.390,244.562 276.361 M22.427 280.567 C 21.787 281.338,22.049 332.332,22.703 334.400 C 26.862 347.535,34.847 353.345,48.800 353.385 C 62.150 353.423,70.369 348.128,74.546 336.800 L 75.800 333.400 76.000 307.200 C 76.175 284.231,76.126 280.940,75.600 280.513 C 74.873 279.922,69.288 279.834,67.826 280.390 L 66.800 280.780 66.792 304.090 C 66.782 333.942,66.554 335.412,61.115 340.745 C 54.951 346.788,42.921 346.647,36.586 340.456 C 31.556 335.542,31.208 333.134,31.203 303.290 L 31.200 280.780 30.174 280.390 C 28.541 279.769,22.984 279.896,22.427 280.567 M103.600 297.825 C 94.715 299.154,94.981 299.084,94.461 300.225 C 93.787 301.705,93.805 350.845,94.480 351.520 C 95.064 352.104,100.701 352.170,102.174 351.610 L 103.200 351.220 103.200 329.072 C 103.200 303.387,102.697 305.889,107.994 305.224 C 119.042 303.839,124.484 305.943,127.075 312.600 L 128.164 315.400 128.312 333.195 C 128.408 344.796,128.606 351.166,128.879 351.495 C 129.392 352.113,135.055 352.187,136.609 351.597 L 137.670 351.193 137.494 333.297 C 137.320 315.703,137.300 315.336,136.306 311.600 C 132.927 298.897,123.361 294.868,103.600 297.825 M279.400 297.847 C 274.028 298.770,273.026 299.047,270.800 300.222 L 269.800 300.749 269.696 325.875 C 269.576 354.890,269.078 352.000,274.196 352.000 C 278.805 352.000,278.400 354.189,278.400 329.302 L 278.400 307.564 279.313 306.651 C 281.148 304.815,289.725 304.094,294.896 305.340 C 297.914 306.067,299.600 303.988,299.600 299.540 C 299.600 297.083,289.012 296.196,279.400 297.847 M327.117 297.017 C 326.997 297.136,325.572 297.608,323.950 298.065 C 322.327 298.523,320.910 299.031,320.800 299.195 C 320.690 299.359,319.880 299.857,319.000 300.303 C 305.711 307.038,302.838 334.276,314.200 345.818 C 320.629 352.350,331.023 354.617,343.462 352.203 C 349.702 350.991,350.125 350.658,349.744 347.258 C 349.329 343.564,348.893 343.170,346.101 343.971 C 331.226 348.237,320.196 343.757,317.261 332.256 C 315.908 326.953,314.973 327.200,336.442 327.200 L 353.564 327.200 353.837 325.743 C 355.543 316.650,350.649 303.900,343.852 299.729 C 340.329 297.567,328.486 295.648,327.117 297.017 M155.800 298.375 L 154.600 298.608 154.497 324.759 C 154.422 343.744,154.518 351.060,154.846 351.456 C 155.385 352.105,160.979 352.216,162.574 351.610 L 163.600 351.220 163.600 325.034 C 163.600 307.550,163.463 298.763,163.189 298.593 C 162.627 298.246,157.277 298.087,155.800 298.375 M244.000 298.384 L 243.000 298.636 242.897 324.927 L 242.794 351.218 243.823 351.609 C 245.299 352.170,250.935 352.105,251.520 351.520 C 252.152 350.888,252.221 298.984,251.590 298.594 C 251.017 298.239,245.211 298.079,244.000 298.384 M336.647 305.370 C 340.940 307.335,343.935 311.662,344.297 316.423 C 344.619 320.661,345.350 320.453,330.616 320.316 C 316.244 320.183,316.718 320.297,317.276 317.097 C 318.958 307.444,328.526 301.652,336.647 305.370 M208.600 305.478 C 211.892 306.214,215.799 308.400,216.148 309.701 C 216.281 310.195,216.392 317.907,216.395 326.838 C 216.401 346.046,217.057 344.099,210.261 345.034 C 199.895 346.459,193.098 343.295,189.260 335.257 L 187.800 332.200 187.800 324.800 C 187.800 311.845,191.892 305.974,201.800 304.715 C 203.385 304.514,205.200 304.717,208.600 305.478 " stroke="none" fill="#10496c" fill-rule="evenodd"></path><path id="path1" d="M96.464 65.019 C 96.209 65.579,95.997 67.244,95.993 68.719 C 95.989 70.193,95.812 73.020,95.601 75.000 C 94.751 82.938,94.394 87.353,93.983 95.000 C 93.746 99.400,93.383 104.170,93.176 105.600 C 92.445 110.641,91.533 129.293,91.995 129.755 C 92.637 130.397,100.616 130.990,127.000 132.355 C 134.023 132.718,135.272 132.311,133.939 130.092 C 133.100 128.694,128.227 119.992,127.840 119.200 C 127.679 118.870,127.023 117.700,126.383 116.600 C 125.742 115.500,124.809 113.790,124.309 112.800 C 123.809 111.810,123.300 110.910,123.177 110.800 C 123.054 110.690,122.221 109.250,121.324 107.600 C 118.376 102.175,117.083 99.827,115.927 97.800 C 115.300 96.700,114.421 95.080,113.973 94.200 C 113.525 93.320,112.642 91.700,112.011 90.600 C 111.379 89.500,110.513 87.970,110.085 87.200 C 109.657 86.430,108.853 84.990,108.297 84.000 C 107.741 83.010,106.786 81.300,106.176 80.200 C 105.565 79.100,104.564 77.300,103.951 76.200 C 103.337 75.100,102.458 73.480,101.997 72.600 C 101.536 71.720,100.673 70.163,100.079 69.140 C 99.486 68.117,98.591 66.542,98.092 65.640 C 97.020 63.705,97.057 63.719,96.464 65.019 M91.500 66.047 C 90.675 66.908,90.000 67.796,90.000 68.020 C 90.000 68.243,89.163 69.725,88.141 71.313 C 85.531 75.365,84.827 76.490,82.200 80.800 C 80.926 82.890,79.460 85.275,78.942 86.100 C 78.424 86.925,77.581 88.275,77.069 89.100 C 76.557 89.925,75.657 91.365,75.069 92.300 C 74.481 93.235,73.550 94.720,73.000 95.600 C 72.450 96.480,71.574 97.875,71.052 98.700 C 69.367 101.368,65.041 108.364,63.499 110.916 C 62.673 112.282,61.823 113.670,61.610 114.000 C 56.888 121.301,56.643 122.062,58.186 124.600 C 58.721 125.480,59.534 126.830,59.993 127.600 C 60.452 128.370,61.355 129.810,62.001 130.800 C 62.646 131.790,63.636 133.410,64.200 134.400 C 64.764 135.390,65.754 137.010,66.399 138.000 C 67.045 138.990,67.944 140.430,68.397 141.200 C 69.522 143.112,70.315 144.403,72.941 148.600 C 74.180 150.580,75.562 152.830,76.011 153.600 C 76.460 154.370,77.355 155.810,78.001 156.800 C 78.646 157.790,79.636 159.410,80.200 160.400 C 80.764 161.390,81.754 163.010,82.399 164.000 C 83.045 164.990,83.984 166.499,84.486 167.354 C 84.989 168.209,85.580 169.206,85.800 169.569 C 86.984 171.523,90.234 176.800,91.054 178.100 C 93.365 181.765,93.956 182.714,95.044 184.509 C 98.445 190.122,100.877 193.641,101.265 193.512 C 101.703 193.366,104.421 189.232,106.101 186.155 C 107.277 184.004,109.007 180.971,110.114 179.120 C 110.601 178.305,111.856 176.145,112.902 174.320 C 113.949 172.494,115.345 170.100,116.006 169.000 C 116.666 167.900,117.662 166.190,118.218 165.200 C 118.774 164.210,119.627 162.734,120.114 161.920 C 120.601 161.105,121.856 158.945,122.902 157.120 C 123.949 155.294,125.340 152.900,125.994 151.800 C 127.147 149.861,130.085 144.759,131.880 141.577 C 132.363 140.719,133.217 139.344,133.777 138.520 C 135.749 135.618,133.747 135.254,110.000 134.196 C 85.513 133.105,87.864 133.892,88.669 127.057 C 89.152 122.953,89.613 116.974,90.398 104.600 C 90.636 100.860,90.999 96.810,91.206 95.600 C 91.413 94.390,91.773 89.440,92.006 84.600 C 92.383 76.799,92.606 74.079,93.473 66.752 C 93.762 64.314,93.312 64.153,91.500 66.047 M148.800 128.842 C 148.800 129.085,149.250 129.819,149.800 130.473 C 150.350 131.127,150.800 131.918,150.800 132.231 C 150.800 132.544,151.081 133.115,151.425 133.500 C 152.505 134.710,153.866 137.012,154.135 138.085 C 154.495 139.518,154.111 139.600,147.029 139.600 C 141.717 139.600,140.844 139.691,140.305 140.300 C 139.720 140.961,135.839 147.347,134.000 150.671 C 133.535 151.512,132.185 153.820,131.000 155.800 C 129.815 157.780,128.010 160.840,126.989 162.600 C 125.968 164.360,124.168 167.420,122.989 169.400 C 121.810 171.380,120.022 174.440,119.014 176.200 C 118.007 177.960,116.740 180.120,116.200 181.000 C 115.660 181.880,114.752 183.410,114.183 184.400 C 113.614 185.390,112.717 186.920,112.190 187.800 C 111.663 188.680,110.933 189.940,110.569 190.600 C 110.204 191.260,108.918 193.468,107.710 195.507 C 104.472 200.972,99.812 200.400,147.587 200.400 C 191.887 200.400,190.000 200.483,190.000 198.530 C 190.000 198.306,190.360 197.707,190.800 197.200 C 191.240 196.693,191.600 196.059,191.600 195.793 C 191.600 195.526,191.999 194.801,192.487 194.181 C 192.974 193.561,193.649 192.562,193.987 191.961 C 195.050 190.066,196.387 187.862,197.600 186.000 C 198.245 185.010,199.145 183.570,199.600 182.800 C 200.055 182.030,200.960 180.590,201.612 179.600 C 202.264 178.610,203.065 177.227,203.393 176.527 C 203.720 175.827,204.186 175.133,204.427 174.983 C 204.669 174.834,205.205 173.922,205.619 172.956 C 206.033 171.990,206.558 171.200,206.786 171.200 C 207.014 171.200,207.201 170.975,207.201 170.700 C 207.202 170.425,207.607 169.581,208.101 168.824 C 209.034 167.395,210.146 165.601,211.587 163.200 C 212.049 162.430,212.955 160.990,213.600 160.000 C 214.245 159.010,215.145 157.570,215.600 156.800 C 216.055 156.030,216.960 154.590,217.612 153.600 C 218.264 152.610,219.065 151.227,219.393 150.527 C 219.720 149.827,220.186 149.133,220.427 148.983 C 220.669 148.834,221.205 147.922,221.619 146.956 C 222.033 145.990,222.538 145.200,222.742 145.200 C 222.946 145.200,223.223 144.764,223.357 144.231 C 223.490 143.698,224.032 142.748,224.559 142.121 C 225.929 140.494,225.843 136.800,224.437 136.800 C 224.226 136.800,223.927 136.395,223.772 135.900 C 223.617 135.405,223.065 134.491,222.545 133.869 C 222.025 133.247,221.490 132.302,221.357 131.769 C 221.223 131.236,220.957 130.800,220.767 130.800 C 220.576 130.800,220.141 130.260,219.800 129.600 L 219.179 128.400 183.990 128.400 C 158.555 128.400,148.800 128.523,148.800 128.842 M371.228 340.045 C 363.408 341.535,365.008 353.600,373.026 353.600 C 378.004 353.600,381.418 348.430,379.440 343.887 C 378.010 340.603,375.200 339.288,371.228 340.045 " stroke="none" fill="#e56838" fill-rule="evenodd"></path><path id="path2" d="M0.000 200.000 L 0.000 400.000 200.000 400.000 L 400.000 400.000 400.000 200.000 L 400.000 0.000 200.000 0.000 L 0.000 0.000 0.000 200.000 M253.920 34.480 C 254.641 35.201,254.498 37.075,253.660 37.884 C 253.252 38.278,252.719 39.193,252.474 39.919 C 252.229 40.644,251.662 41.703,251.214 42.273 C 250.766 42.842,250.400 43.616,250.400 43.992 C 250.400 44.368,250.050 44.993,249.623 45.379 C 249.195 45.766,248.736 46.582,248.602 47.192 C 248.468 47.802,247.918 48.899,247.379 49.628 C 246.841 50.358,246.400 51.247,246.400 51.602 C 246.400 51.958,246.072 52.601,245.672 53.031 C 245.271 53.461,244.729 54.428,244.467 55.180 C 244.205 55.933,243.745 56.830,243.446 57.174 C 243.146 57.518,242.690 58.459,242.431 59.265 C 242.173 60.070,241.723 60.821,241.431 60.933 C 241.140 61.045,240.785 61.756,240.643 62.513 C 240.501 63.271,240.049 64.194,239.638 64.566 C 239.228 64.937,238.787 65.766,238.658 66.408 C 238.530 67.050,238.100 67.900,237.703 68.297 C 237.306 68.694,236.758 69.761,236.487 70.668 C 236.215 71.575,235.747 72.411,235.447 72.527 C 235.147 72.642,234.779 73.385,234.631 74.177 C 234.482 74.970,234.009 75.837,233.580 76.105 C 233.151 76.373,232.799 76.774,232.798 76.996 C 232.791 78.195,231.886 80.400,231.400 80.400 C 230.818 80.400,229.869 83.065,230.239 83.662 C 230.647 84.323,231.189 83.983,231.453 82.900 C 231.601 82.295,232.144 81.291,232.661 80.669 C 233.177 80.047,233.600 79.203,233.600 78.792 C 233.600 78.381,233.932 77.810,234.339 77.523 C 234.745 77.235,235.286 76.364,235.541 75.587 C 235.796 74.810,236.364 73.866,236.802 73.491 C 237.241 73.115,237.600 72.461,237.600 72.038 C 237.600 71.614,237.966 70.848,238.414 70.334 C 239.273 69.348,240.224 67.706,241.561 64.900 C 242.007 63.965,242.535 63.200,242.736 63.200 C 242.936 63.200,243.207 62.666,243.338 62.013 C 243.468 61.359,243.923 60.477,244.348 60.052 C 244.773 59.627,245.249 58.856,245.406 58.339 C 245.563 57.823,246.014 57.040,246.408 56.600 C 246.801 56.160,247.412 55.170,247.765 54.400 C 248.118 53.630,248.900 52.158,249.503 51.130 C 250.106 50.101,251.002 48.538,251.494 47.657 C 253.512 44.042,254.860 45.381,254.798 50.938 C 254.772 53.172,254.788 56.620,254.833 58.600 L 254.914 62.200 255.249 57.527 C 255.434 54.957,255.876 52.077,256.231 51.127 C 256.586 50.177,256.968 48.916,257.080 48.324 C 257.566 45.757,259.626 45.407,260.595 47.726 C 260.902 48.462,261.434 49.296,261.777 49.581 C 262.120 49.865,262.400 50.322,262.400 50.595 C 262.400 50.868,262.799 51.599,263.287 52.219 C 264.258 53.455,265.127 54.925,266.375 57.447 C 266.824 58.353,267.463 59.320,267.795 59.596 C 268.128 59.872,268.400 60.332,268.400 60.618 C 268.400 60.904,268.838 61.660,269.374 62.296 C 269.910 62.933,270.473 63.951,270.625 64.559 C 270.778 65.167,271.136 65.754,271.420 65.863 C 271.705 65.972,272.206 66.733,272.535 67.554 C 272.863 68.374,273.417 69.282,273.766 69.572 C 274.115 69.861,274.400 70.332,274.400 70.618 C 274.400 70.904,274.825 71.647,275.345 72.269 C 275.865 72.891,276.430 73.850,276.600 74.400 C 276.770 74.950,277.335 75.909,277.855 76.531 C 278.375 77.153,278.800 77.896,278.800 78.182 C 278.800 78.468,279.080 78.935,279.423 79.219 C 279.766 79.504,280.318 80.291,280.650 80.968 C 281.819 83.356,283.083 85.525,283.937 86.611 C 284.412 87.214,284.800 88.024,284.800 88.411 C 284.800 88.798,285.057 89.213,285.371 89.333 C 285.685 89.454,286.320 90.328,286.784 91.276 C 288.224 94.225,288.889 95.361,289.861 96.531 C 290.377 97.153,290.800 97.999,290.800 98.411 C 290.800 98.823,291.047 99.304,291.348 99.480 C 291.837 99.765,292.346 100.590,294.361 104.352 C 294.669 104.929,295.344 105.909,295.861 106.531 C 296.377 107.153,296.800 107.999,296.800 108.411 C 296.800 108.823,297.047 109.304,297.348 109.480 C 298.241 110.001,299.664 113.168,299.391 114.027 C 299.151 114.785,298.679 114.808,283.524 114.785 C 274.933 114.773,267.828 114.839,267.735 114.932 C 267.379 115.288,288.130 115.673,292.892 115.398 C 298.509 115.074,298.357 115.005,298.485 117.948 C 298.556 119.576,298.404 120.137,297.722 120.772 C 297.254 121.208,296.755 122.094,296.613 122.741 C 296.471 123.388,296.005 124.234,295.577 124.621 C 295.150 125.007,294.800 125.642,294.800 126.031 C 294.800 126.420,294.350 127.273,293.800 127.927 C 293.250 128.581,292.800 129.391,292.800 129.727 C 292.800 130.063,292.375 130.847,291.855 131.469 C 291.335 132.091,290.774 133.050,290.607 133.600 C 290.441 134.150,290.075 134.870,289.794 135.200 C 289.274 135.810,288.323 137.564,286.757 140.800 C 286.278 141.790,285.748 142.691,285.580 142.801 C 285.411 142.912,284.972 143.753,284.605 144.670 C 284.238 145.588,283.682 146.437,283.369 146.557 C 283.056 146.677,282.800 147.115,282.800 147.532 C 282.800 147.948,282.350 148.951,281.800 149.762 C 281.250 150.572,280.800 151.380,280.800 151.558 C 280.800 151.735,280.263 152.672,279.607 153.640 C 278.951 154.608,278.411 155.644,278.407 155.942 C 278.403 156.240,277.950 157.019,277.400 157.673 C 276.850 158.327,276.400 159.213,276.400 159.643 C 276.400 160.073,276.132 160.528,275.804 160.654 C 275.476 160.780,274.998 161.581,274.742 162.435 C 274.486 163.289,273.945 164.288,273.539 164.656 C 273.132 165.023,272.800 165.642,272.800 166.031 C 272.800 166.420,272.350 167.273,271.800 167.927 C 271.250 168.581,270.800 169.391,270.800 169.727 C 270.800 170.063,270.375 170.847,269.855 171.469 C 269.335 172.091,268.769 173.050,268.597 173.600 C 268.425 174.150,267.861 175.157,267.342 175.838 C 266.824 176.519,266.400 177.277,266.400 177.524 C 266.400 180.023,262.121 177.614,261.390 174.703 C 261.246 174.129,260.784 173.348,260.364 172.967 C 259.944 172.587,259.600 171.970,259.600 171.596 C 259.600 171.223,259.150 170.431,258.600 169.838 C 258.050 169.244,257.597 168.543,257.593 168.279 C 257.589 168.016,257.049 167.008,256.393 166.040 C 255.737 165.072,255.200 163.990,255.200 163.636 C 255.200 163.282,254.840 162.768,254.400 162.493 C 253.960 162.218,253.600 161.767,253.600 161.489 C 253.600 161.212,253.150 160.323,252.600 159.514 C 252.050 158.705,251.600 157.785,251.600 157.470 C 251.600 157.155,251.301 156.651,250.935 156.349 C 250.569 156.047,249.941 155.059,249.540 154.153 C 249.138 153.247,248.549 152.289,248.230 152.025 C 247.912 151.761,247.533 151.005,247.388 150.345 C 247.243 149.686,246.880 149.052,246.582 148.938 C 246.283 148.823,245.843 148.137,245.604 147.413 C 245.365 146.689,244.817 145.777,244.385 145.386 C 243.953 144.996,243.600 144.358,243.600 143.969 C 243.600 143.580,243.162 142.740,242.626 142.104 C 242.090 141.467,241.531 140.463,241.383 139.873 C 241.234 139.283,240.951 138.800,240.753 138.800 C 240.411 138.800,239.378 136.987,237.672 133.394 C 237.252 132.511,236.615 131.544,236.255 131.245 C 235.895 130.947,235.600 130.390,235.600 130.009 C 235.600 129.628,235.142 128.823,234.582 128.218 C 234.022 127.614,233.460 126.598,233.332 125.960 C 233.204 125.322,232.932 124.800,232.728 124.800 C 232.523 124.800,232.007 124.014,231.582 123.053 C 231.157 122.092,230.537 121.080,230.205 120.804 C 229.872 120.528,229.600 119.990,229.600 119.609 C 229.600 119.228,229.150 118.431,228.600 117.838 C 228.050 117.244,227.597 116.543,227.593 116.279 C 227.589 116.016,227.049 115.008,226.393 114.040 C 225.737 113.072,225.200 111.990,225.200 111.636 C 225.200 111.282,224.840 110.768,224.400 110.493 C 223.960 110.218,223.600 109.767,223.600 109.489 C 223.600 109.212,223.150 108.323,222.600 107.514 C 222.050 106.705,221.600 105.836,221.600 105.584 C 221.600 105.332,221.237 104.665,220.794 104.102 C 220.092 103.209,220.058 102.969,220.528 102.239 C 222.026 99.910,222.057 98.449,220.600 98.802 C 220.380 98.856,217.145 98.922,213.412 98.950 L 206.624 99.000 206.128 99.995 C 205.714 100.824,205.742 101.156,206.293 101.995 C 206.656 102.548,207.716 104.350,208.648 106.000 C 211.388 110.850,214.836 110.400,174.934 110.400 L 140.792 110.400 138.496 107.200 C 132.623 99.015,132.437 98.503,134.247 95.448 C 134.784 94.541,135.587 93.080,136.032 92.200 C 136.477 91.320,137.363 89.700,138.000 88.600 C 138.637 87.500,139.519 85.880,139.960 85.000 C 140.401 84.120,141.036 82.950,141.371 82.400 C 141.874 81.575,146.425 73.335,155.623 56.600 C 156.349 55.280,157.442 53.300,158.053 52.200 C 158.664 51.100,159.529 49.480,159.976 48.600 C 160.422 47.720,161.300 46.100,161.928 45.000 C 162.555 43.900,163.749 41.740,164.581 40.200 C 166.721 36.238,167.694 34.644,168.179 34.306 C 168.951 33.767,253.378 33.938,253.920 34.480 M93.857 68.716 C 93.719 70.986,93.442 73.149,93.244 73.522 C 93.045 73.895,92.682 78.790,92.438 84.400 C 91.935 95.929,91.701 98.883,91.155 100.600 C 90.946 101.260,90.536 107.119,90.244 113.620 C 89.953 120.121,89.524 125.795,89.292 126.229 C 88.912 126.939,88.669 129.534,88.764 131.874 C 88.797 132.679,88.998 132.746,91.300 132.720 C 92.675 132.705,95.780 132.888,98.200 133.127 C 100.620 133.366,108.270 133.748,115.200 133.977 C 134.505 134.612,136.521 135.194,133.745 139.332 C 132.324 141.451,131.457 142.963,130.439 145.100 C 129.993 146.035,129.478 146.800,129.295 146.800 C 129.111 146.800,128.734 147.428,128.456 148.196 C 128.178 148.963,127.737 149.818,127.476 150.096 C 127.214 150.373,126.674 151.230,126.276 152.000 C 125.443 153.612,124.327 155.555,120.322 162.367 C 119.729 163.375,119.005 164.650,118.713 165.200 C 118.420 165.750,117.556 167.236,116.791 168.503 C 114.973 171.514,113.622 173.855,112.446 176.033 C 111.922 177.005,111.357 177.890,111.191 178.000 C 111.026 178.110,110.596 178.830,110.237 179.600 C 109.554 181.063,107.898 183.912,107.330 184.600 C 107.149 184.820,106.677 185.630,106.281 186.400 C 101.619 195.485,101.331 195.568,97.293 189.000 C 97.023 188.560,95.975 186.850,94.966 185.200 C 93.956 183.550,92.620 181.390,91.997 180.400 C 91.373 179.410,89.935 177.070,88.800 175.200 C 87.665 173.330,86.214 170.990,85.575 170.000 C 84.936 169.010,84.290 167.930,84.140 167.600 C 83.990 167.270,83.396 166.280,82.819 165.400 C 82.243 164.520,81.559 163.440,81.300 163.000 C 80.581 161.781,77.136 156.195,75.927 154.291 C 75.337 153.361,74.312 151.700,73.649 150.600 C 72.986 149.500,71.533 147.160,70.421 145.400 C 69.310 143.640,68.280 141.930,68.134 141.600 C 67.987 141.270,67.396 140.280,66.819 139.400 C 66.243 138.520,65.558 137.440,65.298 137.000 C 63.260 133.560,58.432 125.819,57.137 123.916 C 56.062 122.336,56.210 121.511,58.070 118.713 C 60.197 115.511,61.642 113.204,67.800 103.181 C 70.295 99.119,71.997 96.385,75.069 91.500 C 75.657 90.565,76.586 89.080,77.132 88.200 C 77.678 87.320,78.457 86.112,78.863 85.516 C 79.268 84.920,79.600 84.259,79.600 84.047 C 79.600 83.835,80.014 83.153,80.519 82.531 C 81.473 81.358,84.588 76.377,85.552 74.484 C 85.855 73.888,86.416 73.040,86.797 72.600 C 87.179 72.160,88.181 70.540,89.024 69.000 C 92.683 62.317,94.255 62.225,93.857 68.716 M98.800 66.222 C 98.800 66.540,98.953 66.800,99.139 66.800 C 99.326 66.800,99.816 67.565,100.228 68.500 C 100.641 69.435,101.107 70.294,101.264 70.408 C 101.421 70.522,101.932 71.422,102.399 72.408 C 102.867 73.394,103.777 75.100,104.423 76.200 C 105.069 77.300,105.974 78.920,106.436 79.800 C 106.897 80.680,107.788 82.300,108.417 83.400 C 109.045 84.500,109.937 86.120,110.400 87.000 C 110.863 87.880,111.763 89.500,112.400 90.600 C 113.037 91.700,113.939 93.320,114.404 94.200 C 114.869 95.080,115.775 96.700,116.418 97.800 C 117.061 98.900,117.960 100.520,118.415 101.400 C 118.869 102.280,119.763 103.900,120.400 105.000 C 121.037 106.100,121.937 107.720,122.400 108.600 C 122.863 109.480,123.763 111.100,124.400 112.200 C 125.037 113.300,125.936 114.920,126.396 115.800 C 127.575 118.050,129.024 120.664,130.389 123.000 C 131.031 124.100,131.834 125.573,132.173 126.274 C 132.512 126.975,133.242 128.215,133.795 129.030 C 135.620 131.720,135.019 132.958,131.937 132.854 C 111.659 132.172,100.361 131.607,99.676 131.241 C 99.223 130.998,97.511 130.800,95.871 130.800 C 90.937 130.800,91.096 131.188,91.611 120.400 C 92.018 111.885,92.380 107.304,93.194 100.400 C 93.388 98.750,93.735 93.164,93.964 87.986 C 94.194 82.809,94.564 78.039,94.786 77.386 C 95.009 76.734,95.338 73.651,95.518 70.535 C 95.898 63.944,96.353 62.799,97.884 64.580 C 98.388 65.165,98.800 65.905,98.800 66.222 M252.762 74.800 C 252.673 78.430,252.690 83.020,252.800 85.000 L 253.000 88.600 253.298 83.400 C 253.654 77.203,253.617 71.061,253.214 69.400 C 253.041 68.686,252.858 70.871,252.762 74.800 M228.619 84.900 C 228.204 86.800,228.216 87.322,228.674 87.483 C 229.177 87.660,230.123 84.923,229.761 84.338 C 229.377 83.716,228.817 83.991,228.619 84.900 M226.643 88.633 C 226.280 89.578,226.350 91.200,226.753 91.200 C 227.131 91.200,227.586 89.850,227.595 88.700 C 227.601 87.827,226.969 87.783,226.643 88.633 M224.686 92.393 C 224.559 92.880,224.594 93.655,224.765 94.116 C 225.056 94.904,225.091 94.889,225.349 93.862 C 225.499 93.261,225.464 92.486,225.270 92.139 C 224.972 91.606,224.881 91.646,224.686 92.393 M250.780 100.400 C 250.721 104.030,250.715 107.900,250.766 109.000 C 250.818 110.100,250.676 111.480,250.453 112.066 C 249.945 113.396,250.391 113.614,253.533 113.565 C 258.146 113.494,260.262 112.914,256.129 112.853 C 250.992 112.779,251.206 113.160,251.453 104.497 C 251.564 100.593,251.483 96.590,251.272 95.600 C 250.958 94.131,250.868 95.014,250.780 100.400 M222.708 96.310 C 222.592 96.751,222.631 97.326,222.793 97.589 C 223.234 98.302,223.685 96.881,223.259 96.120 C 222.971 95.606,222.884 95.636,222.708 96.310 M220.839 130.000 C 227.018 139.179,227.160 139.606,225.076 142.755 C 224.550 143.550,223.598 145.042,222.960 146.072 C 222.322 147.101,220.975 149.261,219.967 150.872 C 216.758 156.000,213.012 162.097,210.975 165.509 C 209.889 167.330,208.550 169.530,208.000 170.400 C 207.450 171.270,206.137 173.380,205.083 175.091 C 204.029 176.801,202.269 179.640,201.173 181.400 C 199.099 184.729,194.050 193.045,191.563 197.228 C 190.773 198.558,189.864 199.908,189.543 200.229 C 188.929 200.842,106.518 201.168,105.536 200.560 C 104.897 200.166,105.425 197.769,106.475 196.296 C 106.983 195.583,107.669 194.510,107.999 193.912 C 108.330 193.313,109.500 191.280,110.600 189.394 C 111.700 187.507,112.960 185.276,113.400 184.435 C 113.840 183.595,114.449 182.611,114.753 182.249 C 115.057 181.887,115.597 181.069,115.953 180.431 C 117.090 178.393,118.799 175.449,119.802 173.800 C 120.337 172.920,121.150 171.480,121.609 170.600 C 122.067 169.720,122.970 168.190,123.615 167.200 C 124.260 166.210,125.006 164.950,125.274 164.400 C 125.542 163.850,126.129 162.860,126.580 162.200 C 127.484 160.875,128.329 159.420,129.601 157.000 C 130.064 156.120,130.971 154.590,131.617 153.600 C 132.263 152.610,133.155 151.080,133.600 150.200 C 134.045 149.320,134.947 147.790,135.605 146.800 C 136.263 145.810,137.161 144.280,137.602 143.400 C 138.042 142.520,138.849 141.260,139.395 140.600 L 140.387 139.400 146.466 139.200 L 152.544 139.000 152.837 137.902 C 152.998 137.298,152.970 136.705,152.775 136.584 C 152.579 136.464,151.753 135.158,150.938 133.682 C 150.123 132.207,149.132 130.576,148.737 130.057 C 146.757 127.462,144.923 127.584,184.094 127.698 L 219.358 127.800 220.839 130.000 M226.051 270.661 C 226.508 271.212,226.600 277.936,226.600 310.852 L 226.600 350.382 225.600 351.374 C 224.800 352.167,224.040 352.416,221.800 352.619 C 220.260 352.759,218.370 353.172,217.600 353.537 C 215.527 354.519,197.659 354.529,196.542 353.549 C 196.134 353.191,194.966 352.778,193.946 352.631 C 192.889 352.479,191.788 352.029,191.384 351.582 C 190.995 351.152,190.351 350.800,189.954 350.800 C 187.908 350.800,180.152 342.112,179.420 339.000 C 179.265 338.340,178.869 337.502,178.541 337.138 C 178.213 336.774,177.778 335.154,177.574 333.538 C 177.371 331.922,177.023 329.340,176.802 327.800 C 176.278 324.142,177.496 314.236,178.768 311.815 C 179.225 310.944,179.600 309.918,179.600 309.536 C 179.600 309.154,180.050 308.356,180.600 307.762 C 181.150 307.169,181.600 306.457,181.600 306.180 C 181.600 304.622,189.596 297.986,192.200 297.383 C 192.860 297.230,193.850 296.811,194.400 296.452 C 195.884 295.484,208.532 295.491,210.000 296.461 C 210.550 296.824,211.630 297.243,212.400 297.391 C 213.170 297.539,214.115 297.748,214.500 297.857 C 215.156 298.041,215.200 297.264,215.206 285.527 C 215.209 278.637,215.348 272.786,215.514 272.525 C 215.925 271.880,217.805 271.200,219.180 271.200 C 219.801 271.200,220.824 270.931,221.454 270.602 C 222.994 269.800,225.361 269.830,226.051 270.661 M162.426 275.144 C 165.549 277.000,167.328 281.732,165.728 283.927 C 165.298 284.517,164.822 285.332,164.671 285.738 C 164.520 286.144,164.037 286.570,163.598 286.685 C 163.159 286.799,162.800 287.134,162.800 287.428 C 162.800 288.503,158.267 289.186,156.242 288.416 C 152.203 286.880,150.033 280.532,152.600 277.762 C 153.150 277.169,153.600 276.526,153.600 276.333 C 153.600 276.140,154.095 275.772,154.700 275.514 C 155.305 275.256,156.070 274.827,156.400 274.559 C 157.752 273.463,159.959 273.678,162.426 275.144 M250.714 275.052 C 255.386 278.222,256.006 282.984,252.236 286.753 L 250.389 288.600 247.359 288.600 C 244.700 288.600,244.240 288.490,243.601 287.700 C 243.200 287.205,242.666 286.800,242.415 286.800 C 242.165 286.800,241.701 286.182,241.386 285.427 C 241.070 284.672,240.629 283.942,240.406 283.804 C 239.581 283.294,239.950 279.711,240.992 278.118 C 243.734 273.922,247.363 272.778,250.714 275.052 M31.285 278.989 C 32.379 279.444,32.377 279.404,32.491 305.800 C 32.599 330.853,32.605 331.008,33.466 332.400 C 33.943 333.170,34.461 334.490,34.617 335.332 C 34.773 336.175,35.312 337.316,35.815 337.868 C 36.318 338.420,36.880 339.039,37.065 339.244 C 38.051 340.343,39.707 341.600,40.167 341.600 C 40.456 341.600,41.207 342.005,41.836 342.500 C 42.908 343.343,43.364 343.400,48.990 343.400 C 54.582 343.400,55.088 343.337,56.262 342.500 C 56.956 342.005,57.776 341.600,58.084 341.600 C 58.732 341.600,61.600 339.078,61.600 338.508 C 61.600 338.297,61.941 337.815,62.359 337.437 C 62.776 337.060,63.328 335.907,63.585 334.875 C 63.842 333.844,64.355 332.550,64.726 332.000 C 65.337 331.093,65.411 328.628,65.519 305.545 C 65.659 275.673,65.019 278.775,71.079 278.602 C 78.514 278.390,77.977 276.468,77.957 303.200 C 77.949 315.410,77.774 326.390,77.570 327.600 C 77.365 328.810,77.012 331.420,76.786 333.400 C 76.520 335.724,76.113 337.360,75.637 338.016 C 75.232 338.574,74.778 339.591,74.628 340.274 C 74.477 340.958,74.005 341.834,73.577 342.221 C 73.150 342.607,72.800 343.130,72.800 343.383 C 72.800 344.053,68.383 348.800,67.759 348.800 C 67.467 348.800,67.035 349.160,66.800 349.600 C 66.565 350.040,66.122 350.400,65.817 350.400 C 65.511 350.400,64.745 350.835,64.113 351.366 C 63.481 351.898,62.252 352.461,61.382 352.617 C 60.512 352.773,59.494 353.168,59.120 353.495 C 57.207 355.164,40.772 355.158,38.880 353.488 C 38.506 353.157,37.445 352.763,36.523 352.612 C 35.601 352.461,34.625 352.071,34.355 351.746 C 34.085 351.420,33.262 350.902,32.526 350.595 C 31.791 350.288,31.082 349.758,30.952 349.418 C 30.821 349.078,30.479 348.800,30.191 348.800 C 29.260 348.800,23.600 341.718,23.600 340.553 C 23.600 340.352,23.210 339.471,22.733 338.594 C 21.947 337.149,21.577 335.340,20.402 327.200 C 20.195 325.770,20.024 314.790,20.022 302.800 C 20.017 279.133,19.933 280.080,22.164 278.900 C 22.998 278.459,30.179 278.530,31.285 278.989 M123.800 296.488 C 124.460 296.867,125.774 297.372,126.721 297.609 C 127.667 297.847,128.541 298.302,128.663 298.621 C 128.786 298.939,129.147 299.200,129.467 299.200 C 130.256 299.200,134.312 303.083,134.634 304.146 C 134.776 304.616,135.238 305.379,135.662 305.843 C 136.085 306.306,136.539 307.386,136.670 308.243 C 136.801 309.099,137.166 310.098,137.482 310.462 C 138.686 311.853,139.518 348.860,138.410 351.774 C 137.873 353.185,128.353 353.408,127.614 352.026 C 127.348 351.529,127.200 345.444,127.200 335.018 C 127.200 320.090,127.136 318.550,126.410 315.892 C 125.975 314.301,125.529 312.550,125.419 312.000 C 125.236 311.088,123.832 309.434,121.543 307.432 C 120.520 306.538,112.852 306.076,107.447 306.583 L 104.400 306.868 104.400 329.354 C 104.400 346.310,104.282 351.958,103.920 352.320 C 103.036 353.204,93.717 352.966,93.225 352.047 C 92.515 350.720,92.623 301.197,93.340 299.481 C 94.002 297.898,94.293 297.772,98.200 297.391 C 99.740 297.241,101.337 296.938,101.749 296.719 C 104.174 295.426,121.631 295.244,123.800 296.488 M298.139 296.630 C 300.662 297.632,300.909 298.178,300.575 302.015 C 300.150 306.880,300.813 306.591,290.069 306.596 C 285.009 306.598,280.757 306.711,280.621 306.846 C 280.486 306.981,280.383 316.972,280.393 329.049 C 280.415 355.484,281.110 352.800,274.239 352.800 C 267.224 352.800,267.975 356.103,268.097 325.784 L 268.200 300.238 269.810 299.106 C 270.938 298.313,272.254 297.854,274.210 297.569 C 275.744 297.346,277.630 296.910,278.400 296.601 C 280.679 295.684,281.076 295.652,288.800 295.758 C 295.006 295.843,296.513 295.984,298.139 296.630 M339.859 296.446 C 340.266 296.802,341.140 297.218,341.800 297.372 C 344.085 297.903,350.800 303.536,350.800 304.921 C 350.800 305.197,351.150 305.722,351.578 306.088 C 352.005 306.454,352.478 307.439,352.628 308.277 C 352.778 309.115,353.121 310.070,353.390 310.400 C 355.410 312.881,355.675 327.473,353.717 328.365 C 353.007 328.689,347.683 328.815,335.655 328.794 L 318.600 328.765 318.684 331.640 C 318.748 333.837,318.949 334.713,319.538 335.357 C 319.962 335.821,320.444 336.650,320.611 337.200 C 321.023 338.561,323.597 341.073,325.318 341.791 C 326.093 342.115,326.803 342.610,326.897 342.890 C 327.182 343.747,344.475 343.612,345.458 342.746 C 348.089 340.426,350.260 341.858,350.732 346.225 C 351.305 351.530,350.417 352.790,346.100 352.798 C 345.385 352.799,344.800 352.972,344.800 353.181 C 344.800 354.003,341.491 354.396,334.560 354.398 C 327.834 354.400,324.800 354.031,324.800 353.212 C 324.800 353.042,323.893 352.783,322.784 352.636 C 321.606 352.479,320.442 352.042,319.984 351.584 C 319.553 351.153,318.960 350.800,318.666 350.800 C 316.967 350.800,309.600 343.390,309.600 341.682 C 309.600 341.476,309.242 340.853,308.805 340.297 C 308.368 339.741,307.818 338.322,307.583 337.143 C 307.348 335.965,306.851 334.285,306.478 333.410 C 305.480 331.071,305.482 318.359,306.481 316.600 C 306.856 315.940,307.353 314.435,307.586 313.257 C 307.819 312.078,308.368 310.659,308.805 310.103 C 309.242 309.547,309.603 308.891,309.607 308.646 C 309.634 307.002,315.385 300.620,317.829 299.521 C 318.467 299.235,319.282 298.710,319.640 298.355 C 319.998 298.000,320.990 297.580,321.845 297.421 C 322.700 297.262,323.670 296.896,324.000 296.607 C 325.390 295.392,338.497 295.258,339.859 296.446 M164.100 298.086 C 164.910 299.015,165.203 349.688,164.410 351.774 C 163.873 353.185,154.353 353.408,153.614 352.026 C 153.070 351.010,153.041 299.671,153.584 298.243 C 154.209 296.598,162.691 296.471,164.100 298.086 M252.303 297.703 C 252.699 298.018,252.784 303.852,252.703 325.351 L 252.600 352.600 247.656 352.713 C 244.353 352.788,242.528 352.672,242.156 352.364 C 241.376 351.716,241.322 298.916,242.100 297.901 C 242.886 296.877,251.062 296.718,252.303 297.703 M328.000 306.315 C 326.350 306.648,324.850 307.173,324.668 307.482 C 324.485 307.791,323.900 308.210,323.368 308.412 C 322.835 308.615,322.400 309.048,322.400 309.376 C 322.400 309.704,322.072 310.147,321.672 310.361 C 321.272 310.576,320.700 311.491,320.402 312.395 C 320.103 313.299,319.639 314.165,319.369 314.320 C 318.901 314.588,318.618 316.383,318.742 318.300 L 318.800 319.200 331.000 319.200 L 343.200 319.200 343.244 318.100 C 343.327 316.050,343.132 315.108,342.367 313.852 C 341.947 313.164,341.598 312.240,341.593 311.800 C 341.587 311.360,340.638 310.057,339.485 308.904 C 337.306 306.726,337.499 306.803,331.800 305.844 C 331.360 305.770,329.650 305.982,328.000 306.315 M197.900 306.662 C 197.295 306.767,196.800 307.017,196.800 307.216 C 196.800 307.416,196.227 307.876,195.527 308.238 C 194.827 308.600,193.882 309.348,193.427 309.900 C 192.972 310.452,192.218 311.315,191.751 311.819 C 191.283 312.323,190.773 313.416,190.617 314.249 C 190.461 315.082,189.988 316.439,189.567 317.265 C 188.437 319.481,188.429 330.104,189.556 332.077 C 189.971 332.805,190.430 334.075,190.574 334.900 C 190.718 335.725,191.278 336.842,191.818 337.382 C 192.358 337.922,192.800 338.642,192.800 338.982 C 192.800 339.322,193.038 339.600,193.328 339.600 C 193.618 339.600,194.247 340.050,194.725 340.600 C 195.203 341.150,195.842 341.600,196.143 341.600 C 196.445 341.600,197.207 342.005,197.835 342.500 C 199.052 343.458,209.202 344.051,213.461 343.412 L 215.200 343.151 215.200 326.834 L 215.200 310.517 214.219 309.458 C 213.680 308.876,212.984 308.400,212.673 308.400 C 212.362 308.400,211.608 308.007,210.996 307.526 C 209.884 306.651,201.250 306.082,197.900 306.662 M376.458 340.061 C 381.461 341.957,381.555 350.137,376.610 353.194 C 374.977 354.203,370.775 354.334,370.000 353.400 C 369.726 353.070,369.255 352.800,368.954 352.800 C 368.032 352.800,366.057 349.655,365.768 347.727 C 364.872 341.750,370.419 337.773,376.458 340.061 " stroke="none" fill="#fbfbfb" fill-rule="evenodd"></path><path id="path3" d="M167.939 35.900 C 167.383 36.505,166.691 37.630,166.402 38.400 C 166.113 39.170,165.663 39.980,165.401 40.200 C 165.140 40.420,164.704 41.272,164.434 42.094 C 164.163 42.916,163.773 43.693,163.568 43.820 C 163.362 43.947,162.857 44.714,162.444 45.525 C 162.032 46.336,161.148 47.990,160.482 49.200 C 159.815 50.410,158.904 52.165,158.457 53.100 C 158.010 54.035,157.455 54.800,157.222 54.800 C 156.990 54.800,156.799 55.115,156.799 55.500 C 156.798 55.885,156.400 56.830,155.915 57.600 C 155.430 58.370,154.703 59.630,154.301 60.400 C 153.898 61.170,153.193 62.520,152.734 63.400 C 152.276 64.280,151.563 65.429,151.150 65.954 C 150.738 66.479,150.400 67.216,150.400 67.592 C 150.400 67.968,150.056 68.587,149.636 68.967 C 149.216 69.348,148.752 70.141,148.606 70.729 C 148.460 71.318,148.023 72.160,147.635 72.600 C 147.247 73.040,146.693 74.030,146.403 74.800 C 146.113 75.570,145.671 76.380,145.420 76.600 C 145.168 76.820,144.716 77.630,144.415 78.400 C 144.115 79.170,143.646 80.070,143.374 80.400 C 143.102 80.730,142.587 81.630,142.229 82.400 C 141.871 83.170,141.041 84.700,140.385 85.800 C 139.728 86.900,138.825 88.520,138.378 89.400 C 136.312 93.466,135.753 94.461,135.388 94.721 C 134.897 95.071,134.000 97.599,134.001 98.628 C 134.003 99.441,134.768 100.756,136.780 103.400 C 137.449 104.280,138.270 105.585,138.604 106.300 C 138.938 107.015,139.359 107.600,139.541 107.600 C 139.723 107.600,140.077 108.050,140.327 108.600 L 140.783 109.600 174.925 109.600 C 193.703 109.600,209.177 109.489,209.313 109.354 C 209.576 109.091,207.810 105.580,206.466 103.693 C 203.062 98.912,203.587 98.414,212.050 98.406 C 220.681 98.398,221.092 98.309,222.083 96.240 C 222.515 95.338,223.445 93.520,224.150 92.200 C 226.565 87.676,230.924 79.399,232.891 75.600 C 233.973 73.510,236.280 69.100,238.017 65.800 C 239.754 62.500,242.003 58.180,243.014 56.200 C 245.043 52.228,248.210 46.181,251.232 40.503 C 252.314 38.470,253.200 36.355,253.200 35.803 L 253.200 34.800 211.075 34.800 L 168.950 34.800 167.939 35.900 M251.489 36.449 C 252.010 36.970,251.439 38.547,250.322 39.672 C 249.950 40.048,249.527 40.983,249.383 41.750 C 249.239 42.517,248.887 43.234,248.601 43.344 C 248.315 43.454,247.860 44.232,247.591 45.072 C 247.322 45.912,246.783 46.960,246.394 47.400 C 246.005 47.840,245.560 48.797,245.405 49.527 C 245.251 50.257,244.880 50.948,244.582 51.062 C 244.283 51.177,243.824 51.930,243.561 52.735 C 243.299 53.541,242.762 54.613,242.369 55.119 C 241.977 55.624,241.543 56.550,241.405 57.177 C 241.267 57.804,240.805 58.634,240.377 59.021 C 239.950 59.407,239.600 60.032,239.600 60.408 C 239.600 60.784,239.234 61.558,238.786 62.127 C 238.338 62.697,237.773 63.756,237.530 64.481 C 237.288 65.207,236.774 66.160,236.388 66.600 C 236.002 67.040,235.566 67.970,235.419 68.667 C 235.272 69.363,234.910 70.026,234.616 70.139 C 234.321 70.252,233.860 71.011,233.591 71.826 C 233.322 72.642,232.674 73.939,232.151 74.710 C 231.628 75.481,231.200 76.427,231.200 76.813 C 231.200 77.199,230.948 77.611,230.640 77.729 C 230.332 77.847,229.856 78.632,229.582 79.472 C 229.308 80.312,228.762 81.413,228.369 81.919 C 227.977 82.424,227.536 83.381,227.390 84.046 C 227.244 84.710,226.873 85.351,226.566 85.468 C 226.259 85.586,225.788 86.429,225.521 87.341 C 225.253 88.254,224.732 89.221,224.364 89.490 C 223.995 89.760,223.581 90.575,223.445 91.303 C 223.308 92.030,222.847 92.924,222.421 93.289 C 221.994 93.655,221.526 94.588,221.381 95.363 C 221.030 97.234,220.827 97.277,212.110 97.305 C 205.217 97.328,204.675 97.276,204.288 96.565 C 204.058 96.144,203.650 95.667,203.380 95.505 C 203.110 95.343,202.765 94.713,202.613 94.105 C 202.462 93.497,202.074 92.707,201.751 92.349 C 201.120 91.649,199.755 89.235,198.444 86.500 C 197.995 85.565,197.456 84.800,197.246 84.800 C 197.036 84.800,196.748 84.272,196.606 83.628 C 196.464 82.983,196.088 82.239,195.770 81.975 C 195.451 81.711,194.832 80.753,194.394 79.847 C 193.955 78.941,193.067 77.300,192.420 76.200 C 191.773 75.100,190.966 73.627,190.628 72.927 C 190.289 72.227,189.835 71.545,189.617 71.411 C 189.400 71.277,188.857 70.409,188.410 69.483 C 187.963 68.558,187.069 66.900,186.423 65.800 C 185.777 64.700,184.884 63.035,184.439 62.100 C 183.993 61.165,183.456 60.400,183.246 60.400 C 183.036 60.400,182.748 59.872,182.606 59.228 C 182.464 58.583,182.088 57.839,181.770 57.575 C 181.451 57.311,180.827 56.353,180.383 55.447 C 178.428 51.463,177.583 50.000,177.236 50.000 C 177.031 50.000,176.748 49.472,176.606 48.828 C 176.464 48.183,176.088 47.439,175.770 47.175 C 175.451 46.911,174.827 45.953,174.382 45.047 C 173.362 42.967,172.050 40.601,170.918 38.800 C 170.435 38.030,169.985 37.220,169.919 37.000 C 169.841 36.736,183.548 36.531,210.200 36.397 C 232.420 36.286,250.699 36.151,250.820 36.097 C 250.941 36.044,251.242 36.202,251.489 36.449 " stroke="none" fill="#6fc6e7" fill-rule="evenodd"></path><path id="path4" d="M168.179 34.306 C 167.694 34.644,166.721 36.238,164.581 40.200 C 163.749 41.740,162.555 43.900,161.928 45.000 C 161.300 46.100,160.422 47.720,159.976 48.600 C 159.529 49.480,158.664 51.100,158.053 52.200 C 157.442 53.300,156.349 55.280,155.623 56.600 C 146.425 73.335,141.874 81.575,141.371 82.400 C 141.036 82.950,140.401 84.120,139.960 85.000 C 139.519 85.880,138.637 87.500,138.000 88.600 C 137.363 89.700,136.477 91.320,136.032 92.200 C 135.587 93.080,134.784 94.541,134.247 95.448 C 132.437 98.503,132.623 99.015,138.496 107.200 L 140.792 110.400 174.934 110.400 C 214.836 110.400,211.388 110.850,208.648 106.000 C 207.716 104.350,206.656 102.548,206.293 101.995 C 205.742 101.156,205.714 100.824,206.128 99.995 L 206.624 99.000 213.412 98.950 C 217.145 98.922,220.380 98.856,220.600 98.802 C 222.057 98.449,222.026 99.910,220.528 102.239 C 220.058 102.969,220.092 103.209,220.794 104.102 C 221.237 104.665,221.600 105.332,221.600 105.584 C 221.600 105.836,222.050 106.705,222.600 107.514 C 223.150 108.323,223.600 109.212,223.600 109.489 C 223.600 109.767,223.960 110.218,224.400 110.493 C 224.840 110.768,225.200 111.282,225.200 111.636 C 225.200 111.990,225.737 113.072,226.393 114.040 C 227.049 115.008,227.589 116.016,227.593 116.279 C 227.597 116.543,228.050 117.244,228.600 117.838 C 229.150 118.431,229.600 119.228,229.600 119.609 C 229.600 119.990,229.872 120.528,230.205 120.804 C 230.537 121.080,231.157 122.092,231.582 123.053 C 232.007 124.014,232.523 124.800,232.728 124.800 C 232.932 124.800,233.204 125.322,233.332 125.960 C 233.460 126.598,234.022 127.614,234.582 128.218 C 235.142 128.823,235.600 129.628,235.600 130.009 C 235.600 130.390,235.895 130.947,236.255 131.245 C 236.615 131.544,237.252 132.511,237.672 133.394 C 239.378 136.987,240.411 138.800,240.753 138.800 C 240.951 138.800,241.234 139.283,241.383 139.873 C 241.531 140.463,242.090 141.467,242.626 142.104 C 243.162 142.740,243.600 143.580,243.600 143.969 C 243.600 144.358,243.953 144.996,244.385 145.386 C 244.817 145.777,245.365 146.689,245.604 147.413 C 245.843 148.137,246.283 148.823,246.582 148.938 C 246.880 149.052,247.243 149.686,247.388 150.345 C 247.533 151.005,247.912 151.761,248.230 152.025 C 248.549 152.289,249.138 153.247,249.540 154.153 C 249.941 155.059,250.569 156.047,250.935 156.349 C 251.301 156.651,251.600 157.155,251.600 157.470 C 251.600 157.785,252.050 158.705,252.600 159.514 C 253.150 160.323,253.600 161.212,253.600 161.489 C 253.600 161.767,253.960 162.218,254.400 162.493 C 254.840 162.768,255.200 163.282,255.200 163.636 C 255.200 163.990,255.737 165.072,256.393 166.040 C 257.049 167.008,257.589 168.016,257.593 168.279 C 257.597 168.543,258.050 169.244,258.600 169.838 C 259.150 170.431,259.600 171.223,259.600 171.596 C 259.600 171.970,259.944 172.587,260.364 172.967 C 260.784 173.348,261.246 174.129,261.390 174.703 C 262.121 177.614,266.400 180.023,266.400 177.524 C 266.400 177.277,266.824 176.519,267.342 175.838 C 267.861 175.157,268.425 174.150,268.597 173.600 C 268.769 173.050,269.335 172.091,269.855 171.469 C 270.375 170.847,270.800 170.063,270.800 169.727 C 270.800 169.391,271.250 168.581,271.800 167.927 C 272.350 167.273,272.800 166.420,272.800 166.031 C 272.800 165.642,273.132 165.023,273.539 164.656 C 273.945 164.288,274.486 163.289,274.742 162.435 C 274.998 161.581,275.476 160.780,275.804 160.654 C 276.132 160.528,276.400 160.073,276.400 159.643 C 276.400 159.213,276.850 158.327,277.400 157.673 C 277.950 157.019,278.403 156.240,278.407 155.942 C 278.411 155.644,278.951 154.608,279.607 153.640 C 280.263 152.672,280.800 151.735,280.800 151.558 C 280.800 151.380,281.250 150.572,281.800 149.762 C 282.350 148.951,282.800 147.948,282.800 147.532 C 282.800 147.115,283.056 146.677,283.369 146.557 C 283.682 146.437,284.238 145.588,284.605 144.670 C 284.972 143.753,285.411 142.912,285.580 142.801 C 285.748 142.691,286.278 141.790,286.757 140.800 C 288.323 137.564,289.274 135.810,289.794 135.200 C 290.075 134.870,290.441 134.150,290.607 133.600 C 290.774 133.050,291.335 132.091,291.855 131.469 C 292.375 130.847,292.800 130.063,292.800 129.727 C 292.800 129.391,293.250 128.581,293.800 127.927 C 294.350 127.273,294.800 126.420,294.800 126.031 C 294.800 125.642,295.150 125.007,295.577 124.621 C 296.005 124.234,296.471 123.388,296.613 122.741 C 296.755 122.094,297.254 121.208,297.722 120.772 C 298.404 120.137,298.556 119.576,298.485 117.948 C 298.357 115.005,298.509 115.074,292.892 115.398 C 288.130 115.673,267.379 115.288,267.735 114.932 C 267.828 114.839,274.933 114.773,283.524 114.785 C 298.679 114.808,299.151 114.785,299.391 114.027 C 299.664 113.168,298.241 110.001,297.348 109.480 C 297.047 109.304,296.800 108.823,296.800 108.411 C 296.800 107.999,296.377 107.153,295.861 106.531 C 295.344 105.909,294.669 104.929,294.361 104.352 C 292.346 100.590,291.837 99.765,291.348 99.480 C 291.047 99.304,290.800 98.823,290.800 98.411 C 290.800 97.999,290.377 97.153,289.861 96.531 C 288.889 95.361,288.224 94.225,286.784 91.276 C 286.320 90.328,285.685 89.454,285.371 89.333 C 285.057 89.213,284.800 88.798,284.800 88.411 C 284.800 88.024,284.412 87.214,283.937 86.611 C 283.083 85.525,281.819 83.356,280.650 80.968 C 280.318 80.291,279.766 79.504,279.423 79.219 C 279.080 78.935,278.800 78.468,278.800 78.182 C 278.800 77.896,278.375 77.153,277.855 76.531 C 277.335 75.909,276.770 74.950,276.600 74.400 C 276.430 73.850,275.865 72.891,275.345 72.269 C 274.825 71.647,274.400 70.904,274.400 70.618 C 274.400 70.332,274.115 69.861,273.766 69.572 C 273.417 69.282,272.863 68.374,272.535 67.554 C 272.206 66.733,271.705 65.972,271.420 65.863 C 271.136 65.754,270.778 65.167,270.625 64.559 C 270.473 63.951,269.910 62.933,269.374 62.296 C 268.838 61.660,268.400 60.904,268.400 60.618 C 268.400 60.332,268.128 59.872,267.795 59.596 C 267.463 59.320,266.824 58.353,266.375 57.447 C 265.127 54.925,264.258 53.455,263.287 52.219 C 262.799 51.599,262.400 50.868,262.400 50.595 C 262.400 50.322,262.120 49.865,261.777 49.581 C 261.434 49.296,260.902 48.462,260.595 47.726 C 259.626 45.407,257.566 45.757,257.080 48.324 C 256.968 48.916,256.586 50.177,256.231 51.127 C 255.876 52.077,255.434 54.957,255.249 57.527 L 254.914 62.200 254.833 58.600 C 254.788 56.620,254.772 53.172,254.798 50.938 C 254.860 45.381,253.512 44.042,251.494 47.657 C 251.002 48.538,250.106 50.101,249.503 51.130 C 248.900 52.158,248.118 53.630,247.765 54.400 C 247.412 55.170,246.801 56.160,246.408 56.600 C 246.014 57.040,245.563 57.823,245.406 58.339 C 245.249 58.856,244.773 59.627,244.348 60.052 C 243.923 60.477,243.468 61.359,243.338 62.013 C 243.207 62.666,242.936 63.200,242.736 63.200 C 242.535 63.200,242.007 63.965,241.561 64.900 C 240.224 67.706,239.273 69.348,238.414 70.334 C 237.966 70.848,237.600 71.614,237.600 72.038 C 237.600 72.461,237.241 73.115,236.802 73.491 C 236.364 73.866,235.796 74.810,235.541 75.587 C 235.286 76.364,234.745 77.235,234.339 77.523 C 233.932 77.810,233.600 78.381,233.600 78.792 C 233.600 79.203,233.177 80.047,232.661 80.669 C 232.144 81.291,231.601 82.295,231.453 82.900 C 231.189 83.983,230.647 84.323,230.239 83.662 C 229.869 83.065,230.818 80.400,231.400 80.400 C 231.886 80.400,232.791 78.195,232.798 76.996 C 232.799 76.774,233.151 76.373,233.580 76.105 C 234.009 75.837,234.482 74.970,234.631 74.177 C 234.779 73.385,235.147 72.642,235.447 72.527 C 235.747 72.411,236.215 71.575,236.487 70.668 C 236.758 69.761,237.306 68.694,237.703 68.297 C 238.100 67.900,238.530 67.050,238.658 66.408 C 238.787 65.766,239.228 64.937,239.638 64.566 C 240.049 64.194,240.501 63.271,240.643 62.513 C 240.785 61.756,241.140 61.045,241.431 60.933 C 241.723 60.821,242.173 60.070,242.431 59.265 C 242.690 58.459,243.146 57.518,243.446 57.174 C 243.745 56.830,244.205 55.933,244.467 55.180 C 244.729 54.428,245.271 53.461,245.672 53.031 C 246.072 52.601,246.400 51.958,246.400 51.602 C 246.400 51.247,246.841 50.358,247.379 49.628 C 247.918 48.899,248.468 47.802,248.602 47.192 C 248.736 46.582,249.195 45.766,249.623 45.379 C 250.050 44.993,250.400 44.368,250.400 43.992 C 250.400 43.616,250.766 42.842,251.214 42.273 C 251.662 41.703,252.229 40.644,252.474 39.919 C 252.719 39.193,253.252 38.278,253.660 37.884 C 254.498 37.075,254.641 35.201,253.920 34.480 C 253.378 33.938,168.951 33.767,168.179 34.306 M253.200 35.803 C 253.200 36.355,252.314 38.470,251.232 40.503 C 248.210 46.181,245.043 52.228,243.014 56.200 C 242.003 58.180,239.754 62.500,238.017 65.800 C 236.280 69.100,233.973 73.510,232.891 75.600 C 230.924 79.399,226.565 87.676,224.150 92.200 C 223.445 93.520,222.515 95.338,222.083 96.240 C 221.092 98.309,220.681 98.398,212.050 98.406 C 203.587 98.414,203.062 98.912,206.466 103.693 C 207.810 105.580,209.576 109.091,209.313 109.354 C 209.177 109.489,193.703 109.600,174.925 109.600 L 140.783 109.600 140.327 108.600 C 140.077 108.050,139.723 107.600,139.541 107.600 C 139.359 107.600,138.938 107.015,138.604 106.300 C 138.270 105.585,137.449 104.280,136.780 103.400 C 134.768 100.756,134.003 99.441,134.001 98.628 C 134.000 97.599,134.897 95.071,135.388 94.721 C 135.753 94.461,136.312 93.466,138.378 89.400 C 138.825 88.520,139.728 86.900,140.385 85.800 C 141.041 84.700,141.871 83.170,142.229 82.400 C 142.587 81.630,143.102 80.730,143.374 80.400 C 143.646 80.070,144.115 79.170,144.415 78.400 C 144.716 77.630,145.168 76.820,145.420 76.600 C 145.671 76.380,146.113 75.570,146.403 74.800 C 146.693 74.030,147.247 73.040,147.635 72.600 C 148.023 72.160,148.460 71.318,148.606 70.729 C 148.752 70.141,149.216 69.348,149.636 68.967 C 150.056 68.587,150.400 67.968,150.400 67.592 C 150.400 67.216,150.738 66.479,151.150 65.954 C 151.563 65.429,152.276 64.280,152.734 63.400 C 153.193 62.520,153.898 61.170,154.301 60.400 C 154.703 59.630,155.430 58.370,155.915 57.600 C 156.400 56.830,156.798 55.885,156.799 55.500 C 156.799 55.115,156.990 54.800,157.222 54.800 C 157.455 54.800,158.010 54.035,158.457 53.100 C 158.904 52.165,159.815 50.410,160.482 49.200 C 161.148 47.990,162.032 46.336,162.444 45.525 C 162.857 44.714,163.362 43.947,163.568 43.820 C 163.773 43.693,164.163 42.916,164.434 42.094 C 164.704 41.272,165.140 40.420,165.401 40.200 C 165.663 39.980,166.113 39.170,166.402 38.400 C 166.691 37.630,167.383 36.505,167.939 35.900 L 168.950 34.800 211.075 34.800 L 253.200 34.800 253.200 35.803 M253.438 52.559 C 253.290 54.562,253.001 57.280,252.794 58.600 C 252.588 59.920,252.142 65.680,251.805 71.400 C 251.468 77.120,251.017 83.117,250.803 84.727 C 250.590 86.338,250.140 92.188,249.805 97.727 C 249.469 103.267,249.006 108.963,248.775 110.384 C 248.214 113.837,248.469 114.715,250.103 114.958 C 253.151 115.410,263.826 116.038,274.800 116.411 C 285.060 116.759,288.620 117.002,295.136 117.798 C 297.283 118.061,297.752 118.681,296.758 119.944 C 296.301 120.525,295.672 121.540,295.360 122.200 C 295.049 122.860,294.267 124.300,293.623 125.400 C 292.979 126.500,292.323 127.670,292.164 128.000 C 291.760 128.841,279.690 150.779,278.960 152.000 C 278.631 152.550,278.008 153.720,277.575 154.600 C 277.142 155.480,276.269 157.100,275.635 158.200 C 275.001 159.300,274.108 160.920,273.651 161.800 C 273.194 162.680,272.644 163.670,272.430 164.000 C 272.215 164.330,270.479 167.446,268.572 170.924 L 265.103 177.249 264.212 176.411 C 263.722 175.951,262.017 173.285,260.422 170.487 C 258.828 167.689,256.564 163.780,255.392 161.800 C 254.219 159.820,252.877 157.480,252.410 156.600 C 251.943 155.720,251.074 154.175,250.480 153.167 C 249.886 152.158,248.950 150.553,248.400 149.600 C 247.850 148.647,246.916 147.042,246.324 146.033 C 245.733 145.025,244.876 143.480,244.420 142.600 C 243.965 141.720,243.063 140.190,242.417 139.200 C 241.771 138.210,240.866 136.680,240.405 135.800 C 239.944 134.920,239.080 133.363,238.484 132.340 C 237.888 131.317,236.971 129.697,236.446 128.740 C 235.922 127.783,235.382 126.910,235.246 126.800 C 235.111 126.690,234.640 125.928,234.200 125.107 C 233.760 124.286,232.050 121.260,230.400 118.382 C 220.899 101.812,221.572 103.304,222.593 101.087 C 222.919 100.379,223.722 98.900,224.379 97.800 C 225.035 96.700,225.950 95.080,226.411 94.200 C 227.295 92.512,228.506 90.388,230.780 86.537 C 232.913 82.927,233.484 81.927,234.400 80.200 C 235.311 78.483,236.579 76.265,238.780 72.537 C 240.913 68.927,241.484 67.927,242.400 66.200 C 243.352 64.406,244.730 62.001,246.791 58.537 C 247.556 57.252,248.419 55.750,248.709 55.200 C 248.999 54.650,249.758 53.300,250.395 52.200 C 251.032 51.100,251.869 49.611,252.255 48.890 C 253.334 46.879,253.759 48.197,253.438 52.559 M259.996 49.100 C 260.443 49.925,260.986 50.870,261.203 51.200 C 262.135 52.617,264.873 57.143,265.800 58.800 C 266.354 59.790,266.985 60.870,267.202 61.200 C 268.136 62.617,270.907 67.242,272.594 70.200 C 273.598 71.960,275.154 74.570,276.052 76.000 C 276.951 77.430,277.853 78.960,278.057 79.400 C 278.261 79.840,279.043 81.190,279.794 82.400 C 280.545 83.610,281.528 85.230,281.978 86.000 C 282.428 86.770,283.243 88.120,283.789 89.000 C 284.335 89.880,285.281 91.479,285.891 92.554 C 288.163 96.557,288.450 97.040,289.599 98.800 C 290.245 99.790,291.236 101.410,291.801 102.400 C 292.366 103.390,293.260 104.920,293.788 105.800 C 294.315 106.680,295.140 108.109,295.620 108.975 C 296.100 109.841,296.730 110.787,297.020 111.077 C 297.879 111.936,298.146 113.259,297.543 113.668 C 296.736 114.214,282.376 113.592,268.400 112.404 C 265.870 112.189,261.328 112.010,258.308 112.007 L 252.815 112.000 252.557 110.971 C 252.294 109.923,252.916 100.476,253.582 95.400 C 253.784 93.860,254.141 89.000,254.376 84.600 C 254.610 80.200,255.056 74.440,255.366 71.800 C 255.677 69.160,256.060 64.300,256.218 61.000 C 256.427 56.638,256.709 54.477,257.252 53.085 C 257.664 52.032,258.000 50.725,258.000 50.180 C 258.000 49.360,258.742 47.600,259.088 47.600 C 259.141 47.600,259.549 48.275,259.996 49.100 M91.754 64.914 C 91.096 65.621,89.867 67.460,89.024 69.000 C 88.181 70.540,87.179 72.160,86.797 72.600 C 86.416 73.040,85.855 73.888,85.552 74.484 C 84.588 76.377,81.473 81.358,80.519 82.531 C 80.014 83.153,79.600 83.835,79.600 84.047 C 79.600 84.259,79.268 84.920,78.863 85.516 C 78.457 86.112,77.678 87.320,77.132 88.200 C 76.586 89.080,75.657 90.565,75.069 91.500 C 71.997 96.385,70.295 99.119,67.800 103.181 C 61.642 113.204,60.197 115.511,58.070 118.713 C 56.210 121.511,56.062 122.336,57.137 123.916 C 57.814 124.910,58.599 126.142,61.016 130.000 C 62.011 131.590,64.586 135.799,65.298 137.000 C 65.558 137.440,66.243 138.520,66.819 139.400 C 67.396 140.280,67.987 141.270,68.134 141.600 C 68.280 141.930,69.310 143.640,70.421 145.400 C 71.533 147.160,72.986 149.500,73.649 150.600 C 74.312 151.700,75.337 153.361,75.927 154.291 C 77.136 156.195,80.581 161.781,81.300 163.000 C 81.559 163.440,82.243 164.520,82.819 165.400 C 83.396 166.280,83.990 167.270,84.140 167.600 C 84.290 167.930,84.936 169.010,85.575 170.000 C 86.214 170.990,87.665 173.330,88.800 175.200 C 89.935 177.070,91.373 179.410,91.997 180.400 C 92.620 181.390,93.956 183.550,94.966 185.200 C 95.975 186.850,97.023 188.560,97.293 189.000 C 101.331 195.568,101.619 195.485,106.281 186.400 C 106.677 185.630,107.149 184.820,107.330 184.600 C 107.898 183.912,109.554 181.063,110.237 179.600 C 110.596 178.830,111.026 178.110,111.191 178.000 C 111.357 177.890,111.922 177.005,112.446 176.033 C 113.577 173.939,114.892 171.654,116.780 168.503 C 118.846 165.056,119.477 163.959,120.401 162.200 C 120.864 161.320,121.771 159.790,122.417 158.800 C 123.063 157.810,123.956 156.280,124.402 155.400 C 124.848 154.520,125.591 153.207,126.054 152.481 C 126.517 151.756,126.803 151.070,126.690 150.956 C 126.576 150.843,126.217 151.256,125.891 151.875 C 125.322 152.955,121.961 158.792,120.114 161.906 C 119.627 162.728,118.774 164.210,118.218 165.200 C 117.662 166.190,116.666 167.900,116.006 169.000 C 115.345 170.100,113.949 172.494,112.902 174.320 C 111.856 176.145,110.601 178.305,110.114 179.120 C 109.007 180.971,107.277 184.004,106.101 186.155 C 104.421 189.232,101.703 193.366,101.265 193.512 C 100.877 193.641,98.445 190.122,95.044 184.509 C 93.956 182.714,93.365 181.765,91.054 178.100 C 90.234 176.800,86.984 171.523,85.800 169.569 C 85.580 169.206,84.989 168.209,84.486 167.354 C 83.984 166.499,83.045 164.990,82.399 164.000 C 81.754 163.010,80.764 161.390,80.200 160.400 C 79.636 159.410,78.646 157.790,78.001 156.800 C 77.355 155.810,76.460 154.370,76.011 153.600 C 75.562 152.830,74.180 150.580,72.941 148.600 C 70.315 144.403,69.522 143.112,68.397 141.200 C 67.944 140.430,67.045 138.990,66.399 138.000 C 65.754 137.010,64.764 135.390,64.200 134.400 C 63.636 133.410,62.646 131.790,62.001 130.800 C 61.355 129.810,60.452 128.370,59.993 127.600 C 59.534 126.830,58.721 125.480,58.186 124.600 C 56.643 122.062,56.888 121.301,61.610 114.000 C 61.823 113.670,62.673 112.282,63.499 110.916 C 65.041 108.364,69.367 101.368,71.052 98.700 C 72.738 96.032,74.118 93.834,75.069 92.300 C 75.581 91.475,76.481 90.035,77.069 89.100 C 78.999 86.033,79.854 84.649,82.200 80.800 C 84.827 76.490,85.531 75.365,88.141 71.313 C 89.163 69.725,90.000 68.240,90.000 68.013 C 90.000 67.787,90.718 66.861,91.596 65.957 C 93.590 63.902,93.959 64.458,93.269 68.477 C 92.680 71.916,92.651 74.496,93.214 73.532 C 93.934 72.298,94.191 64.656,93.530 64.108 C 93.059 63.717,92.726 63.868,91.754 64.914 M96.406 64.192 C 96.023 64.654,95.741 66.668,95.518 70.535 C 95.338 73.651,95.004 76.740,94.775 77.400 C 94.545 78.060,94.288 81.480,94.203 85.000 C 94.050 91.358,94.051 91.369,94.405 86.800 C 94.601 84.270,94.954 80.760,95.190 79.000 C 95.426 77.240,95.729 73.550,95.864 70.800 C 95.999 68.050,96.333 65.360,96.607 64.822 L 97.104 63.844 98.052 65.562 C 98.573 66.507,99.486 68.117,100.079 69.140 C 100.673 70.163,101.536 71.720,101.997 72.600 C 102.458 73.480,103.337 75.100,103.951 76.200 C 105.641 79.233,106.956 81.590,108.190 83.800 C 108.805 84.900,109.657 86.430,110.085 87.200 C 110.513 87.970,111.379 89.500,112.011 90.600 C 112.642 91.700,113.525 93.320,113.973 94.200 C 114.421 95.080,115.300 96.700,115.927 97.800 C 117.083 99.827,118.376 102.175,121.324 107.600 C 122.221 109.250,123.054 110.690,123.177 110.800 C 123.300 110.910,123.850 111.885,124.400 112.967 C 126.708 117.508,127.178 118.339,127.579 118.587 C 127.810 118.730,128.000 118.667,128.000 118.447 C 128.000 118.227,127.805 117.927,127.567 117.780 C 127.329 117.632,126.779 116.767,126.346 115.856 C 125.913 114.945,125.037 113.300,124.400 112.200 C 123.763 111.100,122.863 109.480,122.400 108.600 C 121.937 107.720,121.037 106.100,120.400 105.000 C 119.763 103.900,118.869 102.280,118.415 101.400 C 117.960 100.520,117.061 98.900,116.418 97.800 C 115.775 96.700,114.869 95.080,114.404 94.200 C 113.939 93.320,113.037 91.700,112.400 90.600 C 111.763 89.500,110.863 87.880,110.400 87.000 C 109.937 86.120,109.045 84.500,108.417 83.400 C 107.788 82.300,106.897 80.680,106.436 79.800 C 105.974 78.920,105.069 77.300,104.423 76.200 C 103.777 75.100,102.867 73.394,102.399 72.408 C 101.932 71.422,101.421 70.522,101.264 70.408 C 101.107 70.294,100.641 69.435,100.228 68.500 C 99.816 67.565,99.326 66.800,99.139 66.800 C 98.953 66.800,98.800 66.540,98.800 66.222 C 98.800 64.952,97.025 63.447,96.406 64.192 M253.551 74.400 C 253.576 76.490,253.462 80.540,253.298 83.400 L 253.000 88.600 252.800 85.000 C 252.525 80.048,252.848 67.889,253.214 69.400 C 253.374 70.060,253.526 72.310,253.551 74.400 M92.230 80.300 C 92.092 83.545,91.788 88.450,91.555 91.200 C 90.743 100.800,90.733 101.046,91.180 100.337 C 91.577 99.708,92.019 93.537,92.617 80.300 C 92.763 77.055,92.793 74.400,92.683 74.400 C 92.573 74.400,92.369 77.055,92.230 80.300 M229.761 84.338 C 230.123 84.923,229.177 87.660,228.674 87.483 C 228.216 87.322,228.204 86.800,228.619 84.900 C 228.817 83.991,229.377 83.716,229.761 84.338 M227.595 88.700 C 227.586 89.850,227.131 91.200,226.753 91.200 C 226.350 91.200,226.280 89.578,226.643 88.633 C 226.969 87.783,227.601 87.827,227.595 88.700 M225.349 93.862 C 225.091 94.889,225.056 94.904,224.765 94.116 C 224.336 92.958,224.773 91.251,225.270 92.139 C 225.464 92.486,225.499 93.261,225.349 93.862 M93.451 97.401 C 93.302 100.371,92.991 103.296,92.760 103.901 C 92.530 104.505,92.276 107.970,92.198 111.600 C 92.062 117.873,92.071 117.972,92.385 113.600 C 92.567 111.070,92.909 107.636,93.144 105.969 C 93.637 102.484,94.220 92.000,93.922 92.000 C 93.812 92.000,93.600 94.430,93.451 97.401 M251.453 104.497 C 251.206 113.160,250.992 112.779,256.129 112.853 C 260.262 112.914,258.146 113.494,253.533 113.565 C 250.391 113.614,249.945 113.396,250.453 112.066 C 250.676 111.480,250.818 110.100,250.766 109.000 C 250.518 103.663,250.889 93.808,251.272 95.600 C 251.483 96.590,251.564 100.593,251.453 104.497 M223.345 97.399 C 222.989 98.327,222.430 97.372,222.708 96.310 C 222.884 95.636,222.971 95.606,223.259 96.120 C 223.447 96.456,223.486 97.032,223.345 97.399 M90.531 103.800 C 90.533 105.340,90.605 105.921,90.692 105.091 C 90.779 104.261,90.777 103.001,90.689 102.291 C 90.600 101.581,90.529 102.260,90.531 103.800 M90.052 110.000 C 89.964 113.226,89.569 118.660,89.004 124.400 C 88.795 126.523,88.837 126.859,89.233 126.231 C 89.744 125.419,90.557 111.751,90.291 108.437 C 90.201 107.305,90.109 107.905,90.052 110.000 M91.451 124.100 C 91.118 130.596,91.268 130.839,95.544 130.735 L 98.200 130.671 95.400 130.435 C 91.371 130.097,91.540 130.394,91.852 124.171 C 92.000 121.217,92.032 118.800,91.922 118.800 C 91.813 118.800,91.601 121.185,91.451 124.100 M128.001 119.310 C 128.000 119.581,132.135 127.089,133.932 130.078 C 134.549 131.106,134.536 131.204,133.644 132.153 C 132.732 133.124,132.730 133.143,133.559 132.927 C 134.754 132.614,135.009 131.138,134.133 129.605 C 133.730 128.900,132.913 127.486,132.318 126.462 C 131.722 125.438,130.905 123.970,130.501 123.200 C 129.455 121.204,128.003 118.945,128.001 119.310 M88.340 129.373 C 88.017 133.427,87.644 133.313,102.600 133.733 L 110.200 133.946 103.000 133.589 C 99.040 133.392,95.103 133.031,94.251 132.785 C 93.366 132.530,91.865 132.454,90.751 132.607 C 88.569 132.907,88.645 133.036,88.793 129.300 C 88.882 127.050,88.520 127.109,88.340 129.373 M148.424 128.355 C 148.117 128.929,148.194 129.345,148.737 130.057 C 149.132 130.576,150.123 132.207,150.938 133.682 C 151.753 135.158,152.579 136.464,152.775 136.584 C 152.970 136.705,152.998 137.298,152.837 137.902 L 152.544 139.000 146.466 139.200 L 140.387 139.400 139.395 140.600 C 138.849 141.260,138.042 142.520,137.602 143.400 C 137.161 144.280,136.263 145.810,135.605 146.800 C 134.947 147.790,134.045 149.320,133.600 150.200 C 133.155 151.080,132.263 152.610,131.617 153.600 C 130.971 154.590,130.064 156.120,129.601 157.000 C 128.329 159.420,127.484 160.875,126.580 162.200 C 126.129 162.860,125.542 163.850,125.274 164.400 C 125.006 164.950,124.260 166.210,123.615 167.200 C 122.970 168.190,122.067 169.720,121.609 170.600 C 121.150 171.480,120.337 172.920,119.802 173.800 C 118.799 175.449,117.090 178.393,115.953 180.431 C 115.597 181.069,115.057 181.887,114.753 182.249 C 114.449 182.611,113.840 183.595,113.400 184.435 C 112.960 185.276,111.700 187.507,110.600 189.394 C 109.500 191.280,108.330 193.313,107.999 193.912 C 107.669 194.510,106.983 195.583,106.475 196.296 C 105.425 197.769,104.897 200.166,105.536 200.560 C 106.518 201.168,188.929 200.842,189.543 200.229 C 189.864 199.908,190.773 198.558,191.563 197.228 C 194.050 193.045,199.099 184.729,201.173 181.400 C 202.269 179.640,204.029 176.801,205.083 175.091 C 206.137 173.380,207.450 171.270,208.000 170.400 C 208.550 169.530,209.889 167.330,210.975 165.509 C 213.012 162.097,216.758 156.000,219.967 150.872 C 220.975 149.261,222.322 147.101,222.960 146.072 C 223.598 145.042,224.550 143.550,225.076 142.755 C 227.160 139.606,227.018 139.179,220.839 130.000 L 219.358 127.800 184.094 127.698 C 149.812 127.599,148.819 127.617,148.424 128.355 M219.800 129.600 C 220.141 130.260,220.576 130.800,220.767 130.800 C 220.957 130.800,221.223 131.236,221.357 131.769 C 221.490 132.302,222.025 133.247,222.545 133.869 C 223.065 134.491,223.617 135.405,223.772 135.900 C 223.927 136.395,224.226 136.800,224.437 136.800 C 225.843 136.800,225.929 140.494,224.559 142.121 C 224.032 142.748,223.490 143.698,223.357 144.231 C 223.223 144.764,222.946 145.200,222.742 145.200 C 222.538 145.200,222.033 145.990,221.619 146.956 C 221.205 147.922,220.669 148.834,220.427 148.983 C 220.186 149.133,219.720 149.827,219.393 150.527 C 219.065 151.227,218.264 152.610,217.612 153.600 C 216.960 154.590,216.055 156.030,215.600 156.800 C 215.145 157.570,214.245 159.010,213.600 160.000 C 212.955 160.990,212.049 162.430,211.587 163.200 C 210.146 165.601,209.034 167.395,208.101 168.824 C 207.607 169.581,207.202 170.425,207.201 170.700 C 207.201 170.975,207.014 171.200,206.786 171.200 C 206.558 171.200,206.033 171.990,205.619 172.956 C 205.205 173.922,204.669 174.834,204.427 174.983 C 204.186 175.133,203.720 175.827,203.393 176.527 C 203.065 177.227,202.264 178.610,201.612 179.600 C 200.960 180.590,200.055 182.030,199.600 182.800 C 199.145 183.570,198.245 185.010,197.600 186.000 C 196.387 187.862,195.050 190.066,193.987 191.961 C 193.649 192.562,192.974 193.561,192.487 194.181 C 191.999 194.801,191.600 195.526,191.600 195.793 C 191.600 196.059,191.240 196.693,190.800 197.200 C 190.360 197.707,190.000 198.306,190.000 198.530 C 190.000 200.483,191.887 200.400,147.587 200.400 C 99.812 200.400,104.472 200.972,107.710 195.507 C 108.918 193.468,110.204 191.260,110.569 190.600 C 110.933 189.940,111.663 188.680,112.190 187.800 C 112.717 186.920,113.614 185.390,114.183 184.400 C 114.752 183.410,115.660 181.880,116.200 181.000 C 116.740 180.120,118.007 177.960,119.014 176.200 C 120.022 174.440,121.810 171.380,122.989 169.400 C 124.168 167.420,125.968 164.360,126.989 162.600 C 128.010 160.840,129.815 157.780,131.000 155.800 C 132.185 153.820,133.535 151.512,134.000 150.671 C 135.839 147.347,139.720 140.961,140.305 140.300 C 140.844 139.691,141.717 139.600,147.029 139.600 C 154.111 139.600,154.495 139.518,154.135 138.085 C 153.866 137.012,152.505 134.710,151.425 133.500 C 151.081 133.115,150.800 132.544,150.800 132.231 C 150.800 131.918,150.350 131.127,149.800 130.473 C 149.250 129.819,148.800 129.085,148.800 128.842 C 148.800 128.523,158.555 128.400,183.990 128.400 L 219.179 128.400 219.800 129.600 M99.725 131.208 C 100.517 131.710,117.907 132.539,122.619 132.298 C 124.876 132.183,124.609 132.140,121.200 132.067 C 117.226 131.983,109.290 131.534,102.200 130.993 C 99.709 130.803,99.160 130.850,99.725 131.208 M127.312 132.695 C 128.364 132.777,129.984 132.776,130.912 132.692 C 131.840 132.608,130.980 132.541,129.000 132.542 C 127.020 132.543,126.260 132.612,127.312 132.695 M114.200 134.245 C 122.341 134.594,133.034 135.694,133.947 136.276 C 134.688 136.749,134.854 136.762,134.714 136.340 C 134.304 135.106,128.773 134.349,119.209 134.219 C 114.694 134.158,112.440 134.169,114.200 134.245 M133.388 139.107 C 132.735 140.132,131.975 141.427,131.699 141.985 C 131.424 142.543,130.664 143.855,130.011 144.900 C 129.358 145.945,129.005 146.800,129.226 146.800 C 129.447 146.800,129.993 146.035,130.439 145.100 C 131.462 142.954,132.323 141.452,133.772 139.292 C 134.402 138.352,134.840 137.507,134.747 137.414 C 134.653 137.320,134.042 138.082,133.388 139.107 M127.728 148.828 C 127.254 149.692,126.998 150.400,127.159 150.400 C 127.472 150.400,128.918 147.585,128.712 147.378 C 128.644 147.311,128.201 147.963,127.728 148.828 M221.454 270.602 C 220.824 270.931,219.801 271.200,219.180 271.200 C 217.805 271.200,215.925 271.880,215.514 272.525 C 215.348 272.786,215.209 278.637,215.206 285.527 C 215.200 297.264,215.156 298.041,214.500 297.857 C 214.115 297.748,213.170 297.539,212.400 297.391 C 211.630 297.243,210.550 296.824,210.000 296.461 C 208.532 295.491,195.884 295.484,194.400 296.452 C 193.850 296.811,192.860 297.230,192.200 297.383 C 189.596 297.986,181.600 304.622,181.600 306.180 C 181.600 306.457,181.150 307.169,180.600 307.762 C 180.050 308.356,179.600 309.154,179.600 309.536 C 179.600 309.918,179.225 310.944,178.768 311.815 C 177.496 314.236,176.278 324.142,176.802 327.800 C 177.023 329.340,177.371 331.922,177.574 333.538 C 177.778 335.154,178.213 336.774,178.541 337.138 C 178.869 337.502,179.265 338.340,179.420 339.000 C 180.152 342.112,187.908 350.800,189.954 350.800 C 190.351 350.800,190.995 351.152,191.384 351.582 C 191.788 352.029,192.889 352.479,193.946 352.631 C 194.966 352.778,196.134 353.191,196.542 353.549 C 197.659 354.529,215.527 354.519,217.600 353.537 C 218.370 353.172,220.260 352.759,221.800 352.619 C 224.040 352.416,224.800 352.167,225.600 351.374 L 226.600 350.382 226.600 310.852 C 226.600 277.936,226.508 271.212,226.051 270.661 C 225.361 269.830,222.994 269.800,221.454 270.602 M225.294 272.560 C 226.090 273.752,225.629 349.171,224.821 349.979 C 222.296 352.504,205.023 354.022,197.850 352.349 C 191.598 350.891,188.469 349.016,183.761 343.910 C 182.689 342.748,180.000 337.685,180.000 336.829 C 180.000 336.471,179.731 335.794,179.403 335.325 C 177.902 333.182,177.700 316.482,179.153 314.634 C 179.341 314.395,179.813 313.210,180.202 312.000 C 181.674 307.422,185.615 302.282,189.000 300.526 C 189.660 300.184,190.470 299.679,190.800 299.404 C 194.622 296.222,209.124 296.256,213.789 299.458 C 216.235 301.138,216.400 300.302,216.400 286.200 C 216.400 272.208,216.354 272.442,219.129 272.353 C 219.938 272.327,221.140 272.185,221.800 272.038 C 223.253 271.714,224.893 271.959,225.294 272.560 M158.000 273.921 C 157.450 274.004,156.730 274.292,156.400 274.559 C 156.070 274.827,155.305 275.256,154.700 275.514 C 154.095 275.772,153.600 276.140,153.600 276.333 C 153.600 276.526,153.150 277.169,152.600 277.762 C 150.033 280.532,152.203 286.880,156.242 288.416 C 158.267 289.186,162.800 288.503,162.800 287.428 C 162.800 287.134,163.159 286.799,163.598 286.685 C 164.037 286.570,164.520 286.144,164.671 285.738 C 164.822 285.332,165.298 284.517,165.728 283.927 C 168.336 280.350,162.805 273.188,158.000 273.921 M246.264 273.925 C 245.573 274.064,242.969 275.615,242.292 276.292 C 240.364 278.220,239.156 283.031,240.406 283.804 C 240.629 283.942,241.070 284.672,241.386 285.427 C 241.701 286.182,242.165 286.800,242.415 286.800 C 242.666 286.800,243.200 287.205,243.601 287.700 C 244.240 288.490,244.700 288.600,247.359 288.600 L 250.389 288.600 252.236 286.753 C 257.198 281.791,252.918 272.596,246.264 273.925 M161.506 276.209 C 166.739 278.303,165.103 286.544,159.280 287.420 C 155.261 288.024,151.392 282.616,153.400 279.200 C 153.723 278.650,154.098 277.897,154.233 277.527 C 154.829 275.898,158.890 275.162,161.506 276.209 M249.970 276.131 C 252.927 277.374,254.116 281.602,252.350 284.594 C 249.350 289.679,241.600 287.483,241.600 281.548 C 241.600 277.172,245.871 274.407,249.970 276.131 M22.164 278.900 C 19.933 280.080,20.017 279.133,20.022 302.800 C 20.024 314.790,20.195 325.770,20.402 327.200 C 21.577 335.340,21.947 337.149,22.733 338.594 C 23.210 339.471,23.600 340.352,23.600 340.553 C 23.600 341.718,29.260 348.800,30.191 348.800 C 30.479 348.800,30.821 349.078,30.952 349.418 C 31.082 349.758,31.791 350.288,32.526 350.595 C 33.262 350.902,34.085 351.420,34.355 351.746 C 34.625 352.071,35.601 352.461,36.523 352.612 C 37.445 352.763,38.506 353.157,38.880 353.488 C 40.772 355.158,57.207 355.164,59.120 353.495 C 59.494 353.168,60.512 352.773,61.382 352.617 C 62.252 352.461,63.481 351.898,64.113 351.366 C 64.745 350.835,65.511 350.400,65.817 350.400 C 66.122 350.400,66.565 350.040,66.800 349.600 C 67.035 349.160,67.467 348.800,67.759 348.800 C 68.383 348.800,72.800 344.053,72.800 343.383 C 72.800 343.130,73.150 342.607,73.577 342.221 C 74.005 341.834,74.477 340.958,74.628 340.274 C 74.778 339.591,75.232 338.574,75.637 338.016 C 76.113 337.360,76.520 335.724,76.786 333.400 C 77.012 331.420,77.365 328.810,77.570 327.600 C 77.774 326.390,77.949 315.410,77.957 303.200 C 77.977 276.468,78.514 278.390,71.079 278.602 C 65.019 278.775,65.659 275.673,65.519 305.545 C 65.411 328.628,65.337 331.093,64.726 332.000 C 64.355 332.550,63.842 333.844,63.585 334.875 C 63.328 335.907,62.776 337.060,62.359 337.437 C 61.941 337.815,61.600 338.297,61.600 338.508 C 61.600 339.078,58.732 341.600,58.084 341.600 C 57.776 341.600,56.956 342.005,56.262 342.500 C 55.088 343.337,54.582 343.400,48.990 343.400 C 43.364 343.400,42.908 343.343,41.836 342.500 C 41.207 342.005,40.456 341.600,40.167 341.600 C 39.707 341.600,38.051 340.343,37.065 339.244 C 36.880 339.039,36.318 338.420,35.815 337.868 C 35.312 337.316,34.773 336.175,34.617 335.332 C 34.461 334.490,33.943 333.170,33.466 332.400 C 32.605 331.008,32.599 330.853,32.491 305.800 C 32.377 279.404,32.379 279.444,31.285 278.989 C 30.179 278.530,22.998 278.459,22.164 278.900 M30.174 280.390 L 31.200 280.780 31.203 303.290 C 31.208 333.134,31.556 335.542,36.586 340.456 C 42.921 346.647,54.951 346.788,61.115 340.745 C 66.554 335.412,66.782 333.942,66.792 304.090 L 66.800 280.780 67.826 280.390 C 69.288 279.834,74.873 279.922,75.600 280.513 C 76.126 280.940,76.175 284.231,76.000 307.200 L 75.800 333.400 74.546 336.800 C 70.369 348.128,62.150 353.423,48.800 353.385 C 34.847 353.345,26.862 347.535,22.703 334.400 C 22.049 332.332,21.787 281.338,22.427 280.567 C 22.984 279.896,28.541 279.769,30.174 280.390 M104.349 295.993 C 103.330 296.173,102.160 296.499,101.749 296.719 C 101.337 296.938,99.740 297.241,98.200 297.391 C 94.293 297.772,94.002 297.898,93.340 299.481 C 92.623 301.197,92.515 350.720,93.225 352.047 C 93.717 352.966,103.036 353.204,103.920 352.320 C 104.282 351.958,104.400 346.310,104.400 329.354 L 104.400 306.868 107.447 306.583 C 112.852 306.076,120.520 306.538,121.543 307.432 C 123.832 309.434,125.236 311.088,125.419 312.000 C 125.529 312.550,125.975 314.301,126.410 315.892 C 127.136 318.550,127.200 320.090,127.200 335.018 C 127.200 345.444,127.348 351.529,127.614 352.026 C 128.353 353.408,137.873 353.185,138.410 351.774 C 139.518 348.860,138.686 311.853,137.482 310.462 C 137.166 310.098,136.801 309.099,136.670 308.243 C 136.539 307.386,136.085 306.306,135.662 305.843 C 135.238 305.379,134.776 304.616,134.634 304.146 C 134.312 303.083,130.256 299.200,129.467 299.200 C 129.147 299.200,128.786 298.939,128.663 298.621 C 128.541 298.302,127.667 297.847,126.721 297.609 C 125.774 297.372,124.460 296.867,123.800 296.488 C 122.456 295.718,107.994 295.349,104.349 295.993 M280.600 295.847 C 280.160 295.952,279.170 296.291,278.400 296.601 C 277.630 296.910,275.744 297.346,274.210 297.569 C 272.254 297.854,270.938 298.313,269.810 299.106 L 268.200 300.238 268.097 325.784 C 267.975 356.103,267.224 352.800,274.239 352.800 C 281.110 352.800,280.415 355.484,280.393 329.049 C 280.383 316.972,280.486 306.981,280.621 306.846 C 280.757 306.711,285.009 306.598,290.069 306.596 C 300.813 306.591,300.150 306.880,300.575 302.015 C 300.909 298.178,300.662 297.632,298.139 296.630 C 296.245 295.877,282.961 295.284,280.600 295.847 M325.400 295.871 C 324.960 295.987,324.330 296.319,324.000 296.607 C 323.670 296.896,322.700 297.262,321.845 297.421 C 320.990 297.580,319.998 298.000,319.640 298.355 C 319.282 298.710,318.467 299.235,317.829 299.521 C 315.385 300.620,309.634 307.002,309.607 308.646 C 309.603 308.891,309.242 309.547,308.805 310.103 C 308.368 310.659,307.819 312.078,307.586 313.257 C 307.353 314.435,306.856 315.940,306.481 316.600 C 305.482 318.359,305.480 331.071,306.478 333.410 C 306.851 334.285,307.348 335.965,307.583 337.143 C 307.818 338.322,308.368 339.741,308.805 340.297 C 309.242 340.853,309.600 341.476,309.600 341.682 C 309.600 343.390,316.967 350.800,318.666 350.800 C 318.960 350.800,319.553 351.153,319.984 351.584 C 320.442 352.042,321.606 352.479,322.784 352.636 C 323.893 352.783,324.800 353.042,324.800 353.212 C 324.800 354.031,327.834 354.400,334.560 354.398 C 341.491 354.396,344.800 354.003,344.800 353.181 C 344.800 352.972,345.385 352.799,346.100 352.798 C 350.417 352.790,351.305 351.530,350.732 346.225 C 350.260 341.858,348.089 340.426,345.458 342.746 C 344.475 343.612,327.182 343.747,326.897 342.890 C 326.803 342.610,326.093 342.115,325.318 341.791 C 323.597 341.073,321.023 338.561,320.611 337.200 C 320.444 336.650,319.962 335.821,319.538 335.357 C 318.949 334.713,318.748 333.837,318.684 331.640 L 318.600 328.765 335.655 328.794 C 347.683 328.815,353.007 328.689,353.717 328.365 C 355.108 327.731,355.316 325.887,354.822 318.532 C 354.409 312.380,354.245 311.450,353.390 310.400 C 353.121 310.070,352.778 309.115,352.628 308.277 C 352.478 307.439,352.005 306.454,351.578 306.088 C 351.150 305.722,350.800 305.197,350.800 304.921 C 350.800 303.536,344.085 297.903,341.800 297.372 C 341.140 297.218,340.266 296.802,339.859 296.446 C 339.113 295.796,327.442 295.331,325.400 295.871 M122.318 297.766 C 130.342 299.762,134.162 303.539,136.306 311.600 C 137.300 315.336,137.320 315.703,137.494 333.297 L 137.670 351.193 136.609 351.597 C 135.055 352.187,129.392 352.113,128.879 351.495 C 128.606 351.166,128.408 344.796,128.312 333.195 L 128.164 315.400 127.075 312.600 C 124.484 305.943,119.042 303.839,107.994 305.224 C 102.697 305.889,103.200 303.387,103.200 329.072 L 103.200 351.220 102.174 351.610 C 100.701 352.170,95.064 352.104,94.480 351.520 C 93.805 350.845,93.787 301.705,94.461 300.225 C 94.981 299.084,94.715 299.154,103.600 297.825 C 112.141 296.547,117.352 296.530,122.318 297.766 M157.084 297.104 C 154.174 297.226,153.942 297.301,153.584 298.243 C 153.041 299.671,153.070 351.010,153.614 352.026 C 154.353 353.408,163.873 353.185,164.410 351.774 C 165.203 349.688,164.910 299.015,164.100 298.086 C 163.291 297.158,161.566 296.917,157.084 297.104 M243.800 297.110 C 243.140 297.187,242.375 297.543,242.100 297.901 C 241.322 298.916,241.376 351.716,242.156 352.364 C 242.528 352.672,244.353 352.788,247.656 352.713 L 252.600 352.600 252.703 325.351 C 252.784 303.852,252.699 298.018,252.303 297.703 C 251.775 297.284,245.857 296.871,243.800 297.110 M295.082 297.570 C 300.221 298.631,300.064 298.428,298.987 302.616 C 298.176 305.767,297.776 306.034,294.896 305.340 C 289.725 304.094,281.148 304.815,279.313 306.651 L 278.400 307.564 278.400 329.302 C 278.400 354.189,278.805 352.000,274.196 352.000 C 269.078 352.000,269.576 354.890,269.696 325.875 L 269.800 300.749 270.800 300.222 C 273.026 299.047,274.028 298.770,279.400 297.847 C 286.318 296.659,290.322 296.588,295.082 297.570 M339.058 297.829 C 346.309 300.041,350.259 304.249,352.545 312.200 C 353.645 316.025,354.324 323.145,353.837 325.743 L 353.564 327.200 336.442 327.200 C 314.973 327.200,315.908 326.953,317.261 332.256 C 320.196 343.757,331.226 348.237,346.101 343.971 C 348.893 343.170,349.329 343.564,349.744 347.258 C 350.125 350.658,349.702 350.991,343.462 352.203 C 331.023 354.617,320.629 352.350,314.200 345.818 C 302.838 334.276,305.711 307.038,319.000 300.303 C 319.880 299.857,320.690 299.359,320.800 299.195 C 320.910 299.031,322.327 298.523,323.950 298.065 C 325.572 297.608,326.997 297.136,327.117 297.017 C 327.826 296.307,335.860 296.853,339.058 297.829 M163.189 298.593 C 163.463 298.763,163.600 307.550,163.600 325.034 L 163.600 351.220 162.574 351.610 C 160.979 352.216,155.385 352.105,154.846 351.456 C 154.518 351.060,154.422 343.744,154.497 324.759 L 154.600 298.608 155.800 298.375 C 157.277 298.087,162.627 298.246,163.189 298.593 M251.590 298.594 C 252.221 298.984,252.152 350.888,251.520 351.520 C 250.935 352.105,245.299 352.170,243.823 351.609 L 242.794 351.218 242.897 324.927 L 243.000 298.636 244.000 298.384 C 245.211 298.079,251.017 298.239,251.590 298.594 M328.698 304.411 C 323.064 305.825,318.323 311.090,317.276 317.097 C 316.718 320.297,316.244 320.183,330.616 320.316 C 345.350 320.453,344.619 320.661,344.297 316.423 C 343.703 308.620,335.893 302.606,328.698 304.411 M201.800 304.715 C 191.892 305.974,187.800 311.845,187.800 324.800 L 187.800 332.200 189.260 335.257 C 193.098 343.295,199.895 346.459,210.261 345.034 C 217.057 344.099,216.401 346.046,216.395 326.838 C 216.392 317.907,216.281 310.195,216.148 309.701 C 215.500 307.282,206.421 304.128,201.800 304.715 M334.994 306.393 C 337.618 306.847,341.570 310.086,341.593 311.800 C 341.598 312.240,341.947 313.164,342.367 313.852 C 343.132 315.108,343.327 316.050,343.244 318.100 L 343.200 319.200 331.000 319.200 L 318.800 319.200 318.742 318.300 C 318.618 316.383,318.901 314.588,319.369 314.320 C 319.639 314.165,320.103 313.299,320.402 312.395 C 320.700 311.491,321.272 310.576,321.672 310.361 C 322.072 310.147,322.400 309.704,322.400 309.376 C 322.400 309.048,322.835 308.615,323.368 308.412 C 323.900 308.210,324.485 307.791,324.668 307.482 C 325.026 306.876,330.484 305.623,331.800 305.844 C 332.240 305.918,333.677 306.165,334.994 306.393 M210.996 307.526 C 211.608 308.007,212.362 308.400,212.673 308.400 C 212.984 308.400,213.680 308.876,214.219 309.458 L 215.200 310.517 215.200 326.834 L 215.200 343.151 213.461 343.412 C 209.202 344.051,199.052 343.458,197.835 342.500 C 197.207 342.005,196.445 341.600,196.143 341.600 C 195.842 341.600,195.203 341.150,194.725 340.600 C 194.247 340.050,193.618 339.600,193.328 339.600 C 193.038 339.600,192.800 339.322,192.800 338.982 C 192.800 338.642,192.358 337.922,191.818 337.382 C 191.278 336.842,190.718 335.725,190.574 334.900 C 190.430 334.075,189.971 332.805,189.556 332.077 C 188.429 330.104,188.437 319.481,189.567 317.265 C 189.988 316.439,190.461 315.082,190.617 314.249 C 190.773 313.416,191.283 312.323,191.751 311.819 C 192.218 311.315,192.972 310.452,193.427 309.900 C 193.882 309.348,194.827 308.600,195.527 308.238 C 196.227 307.876,196.800 307.416,196.800 307.216 C 196.800 306.011,209.421 306.286,210.996 307.526 M370.804 339.641 C 367.570 340.272,365.217 344.050,365.768 347.727 C 366.042 349.550,368.015 352.800,368.849 352.800 C 369.093 352.800,368.655 352.094,367.876 351.231 C 363.596 346.494,367.774 338.622,373.932 339.822 C 376.353 340.293,376.886 340.523,377.828 341.505 C 383.125 347.023,376.872 356.650,370.274 353.135 C 369.484 352.714,369.453 352.733,369.949 353.335 C 370.773 354.334,374.907 354.246,376.610 353.194 C 384.235 348.481,379.703 337.903,370.804 339.641 " stroke="none" fill="#9dbccb" fill-rule="evenodd"></path></g></svg>