<svg width="46" height="46" viewBox="0 0 46 46" fill="none" xmlns="http://www.w3.org/2000/svg">
<rect width="46" height="46" rx="23" fill="#EFF7FE"/>
<path d="M31.1206 27.3828L27.3608 25.0161L28.7783 22.4994C29.1087 21.9117 29.2821 21.2532 29.2826 20.5841V16.6C29.2826 15.1148 28.6734 13.6904 27.5889 12.6402C26.5045 11.59 25.0336 11 23.5 11C21.9664 11 20.4955 11.59 19.4111 12.6402C18.3266 13.6904 17.7174 15.1148 17.7174 16.6V20.5841C17.7179 21.2533 17.8913 21.9117 18.2217 22.4994L19.6392 25.0161L15.8794 27.3828C15.3015 27.7451 14.8267 28.2419 14.4984 28.8278C14.1701 29.4137 13.9987 30.07 14 30.7366V35H33V30.7366C33.0013 30.07 32.8299 29.4137 32.5016 28.8278C32.1733 28.2419 31.6985 27.7451 31.1206 27.3828ZM31.3478 33.4H15.6522V30.7366C15.6514 30.3366 15.7542 29.9428 15.9512 29.5913C16.1482 29.2397 16.4331 28.9417 16.7798 28.7243L21.8221 25.5503L19.6722 21.7333C19.4739 21.3807 19.3699 20.9856 19.3696 20.5841V16.6C19.3696 15.5391 19.8047 14.5217 20.5793 13.7716C21.354 13.0214 22.4045 12.6 23.5 12.6C24.5955 12.6 25.6461 13.0214 26.4207 13.7716C27.1953 14.5217 27.6304 15.5391 27.6304 16.6V20.5841C27.6301 20.9856 27.5261 21.3807 27.3278 21.7333L25.178 25.5503L30.2203 28.7243C30.567 28.9417 30.8519 29.2398 31.0488 29.5913C31.2458 29.9429 31.3486 30.3366 31.3478 30.7366V33.4Z" fill="black"/>
</svg>
