<svg xmlns="http://www.w3.org/2000/svg" width="36" height="36" viewBox="0 0 36 36">
  <g id="Chat_Life" data-name="Chat Life" transform="translate(-3 -202.613)">
    <g id="Group_61" data-name="Group 61" transform="translate(3 202.613)">
      <g id="Group_51" data-name="Group 51" transform="translate(0)">
        <ellipse id="Ellipse_4" data-name="Ellipse 4" cx="18" cy="18" rx="18" ry="18" fill="#fff"/>
      </g>
    </g>
    <g id="chat_лайф" data-name="chat лайф" transform="translate(9 207.569)">
      <path id="Path_77" data-name="Path 77" d="M16.191,130.2c-.341,2.321-2.26,8.42-4.178,9.285l-.025.011h0l-.025-.011c-1.918-.866-3.837-6.964-4.178-9.285-2.036.563-6.108,2.889-6.865,4.565A11.925,11.925,0,0,0,.1,137.746c-.285,1.966-.135,1.7,1.579,2.065a48.7,48.7,0,0,0,10.288,1.082H12a48.862,48.862,0,0,0,10.288-1.082c1.715-.369,1.864-.1,1.579-2.065a11.925,11.925,0,0,0-.817-2.981c-.758-1.677-4.831-4-6.865-4.565Z" transform="translate(0.015 -115.892)" fill="#2e1749" fill-rule="evenodd"/>
      <path id="Path_78" data-name="Path 78" d="M59.216,26a3.488,3.488,0,0,0,2.629-1.065,13.692,13.692,0,0,0,1.528-3.005c.206-.271.187-.423.529-.554.28-.108.371-.255.565-.595a2.784,2.784,0,0,0-.112-3.394c-.011-.093.12-.832.129-1.047.162-3.513-1.782-5.555-5.268-5.516-3.488-.039-5.431,2-5.268,5.516.01.215.14.955.129,1.047a2.784,2.784,0,0,0-.112,3.394c.193.34.284.486.565.595.342.131.324.283.529.554a13.692,13.692,0,0,0,1.528,3.005A3.5,3.5,0,0,0,59.217,26Z" transform="translate(-47.214 -9.517)" fill="#2e1749" fill-rule="evenodd"/>
      <path id="Path_79" data-name="Path 79" d="M40.149.741h.143a5.59,5.59,0,0,1,5.622,4.021c.43,1.512.053,5.81.235,6.338.155.452,1.616.474,2.019-.7A19.5,19.5,0,0,0,48.262,7.2c0-1.109-.43-1.74-1.477-1.819A6.323,6.323,0,0,0,40.3,0H40a6.323,6.323,0,0,0-6.49,5.385c-1.047.079-1.479.711-1.477,1.819a19.5,19.5,0,0,0,.094,3.195c.4,1.173,1.864,1.151,2.019.7.181-.528-.2-4.826.235-6.338A5.59,5.59,0,0,1,40.005.741h.143Z" transform="translate(-28.146)" fill="#219fff" fill-rule="evenodd"/>
      <path id="Path_80" data-name="Path 80" d="M92.229,147.674h.053c.3,0,.606-.011.858-.016.562-2.355.366-2-.849-2h-.126c-1.215,0-1.411-.357-.849,2,.253,0,.556.013.858.016h.053Zm0,4.638h0l-.029-.042c-.285-.426-.5-.989-.757-1.446-.505-.891-.578-.467-.25-1.689.283-1.057.085-.985.988-.968h.1c.9-.017.7-.088.988.968.328,1.222.254.8-.25,1.689-.259.457-.471,1.02-.757,1.446l-.029.042h0Z" transform="translate(-80.227 -129.464)" fill="#219fff" fill-rule="evenodd"/>
      <path id="Path_81" data-name="Path 81" d="M97.964,101.51a4.892,4.892,0,0,1-3.224.994l-.028-.006a.8.8,0,0,0-.688-.4h-.647a.8.8,0,0,0-.8.8h0a.8.8,0,0,0,.8.8h.647a.8.8,0,0,0,.654-.342,6.609,6.609,0,0,0,2.96-.619c1.04-.668.325-1.226.325-1.226Z" transform="translate(-81.665 -89.964)" fill="#fefefe" fill-rule="evenodd"/>
    </g>
  </g>
</svg>
