<?xml version="1.0" encoding="utf-8"?>
<!-- Generator: Adobe Illustrator 21.0.0, SVG Export Plug-In . SVG Version: 6.00 Build 0)  -->
<svg version="1.1" id="Layer_1" xmlns="http://www.w3.org/2000/svg" xmlns:xlink="http://www.w3.org/1999/xlink" x="0px" y="0px"
	 viewBox="0 0 25 25" style="enable-background:new 0 0 25 25;" xml:space="preserve">
<style type="text/css">
	.st0{fill:#FE6421;}
</style>
<path class="st0" d="M12.4,0C5.5,0,0,5.5,0,12.4s5.4,12.4,12.4,12.4s12.4-5.4,12.4-12.4S19.3,0,12.4,0z M12.4,23
	c-6,0-10.6-4.7-10.6-10.6c0-6,4.7-10.6,10.6-10.6c6,0,10.6,4.7,10.6,10.6C23,18.4,18.4,23,12.4,23z"/>
<polygon class="st0" points="13.2,5.9 11.5,5.9 11.5,11.5 5.9,11.5 5.9,13.3 11.5,13.3 11.5,18.9 13.2,18.9 13.2,13.3 18.9,13.3 
	18.9,11.5 13.2,11.5 "/>
</svg>
