<?xml version="1.0" encoding="utf-8"?>
<!-- Generator: Adobe Illustrator 22.1.0, SVG Export Plug-In . SVG Version: 6.00 Build 0)  -->
<svg version="1.1" id="Слой_1" xmlns="http://www.w3.org/2000/svg" xmlns:xlink="http://www.w3.org/1999/xlink" x="0px" y="0px"
	 viewBox="0 0 672 960" style="enable-background:new 0 0 672 960;" xml:space="preserve">
<style type="text/css">

	.normal{fill:#NORMAL;}
	.light{fill:#LIGHT;}
	.dark{fill:#DARK;}

    .stroke-light {
        stroke:#LIGHT;
        fill: none;
        stroke-miterlimit:10;
    }
    .stroke-dark {
        stroke:#DARK;
        fill: none;
        stroke-miterlimit:10;
    }

	.st3{stroke-width:3;}
	.st5{stroke-width:5;}
	.st2{stroke-width:2;}

</style>
<rect y="0" class="normal" width="672" height="960"/>
<circle class="normal" cx="522.1" cy="333.6" r="32.3"/>
<circle class="light" cx="308.4" cy="600.6" r="42.9"/>
<circle class="st3 stroke-light" cx="308.4" cy="600.6" r="48.3"/>
<circle class="light" cx="342.6" cy="796.9" r="42"/>
<circle class="st4 stroke-light" cx="342.6" cy="796.9" r="47.2"/>
<path class="st4 stroke-light" d="M288.3,796.9c0-0.2,0-0.3,0-0.4c0.1-6.1,1.2-12,3.1-17.5"/>
<path class="st3 stroke-light" d="M322.4,847.1c-7.4-2.9-14-7.4-19.4-13"/>
<path class="st3 stroke-light" d="M395.4,797.2c0,8.6-2,16.8-5.6,24c-0.1,0.2-0.2,0.3-0.2,0.4"/>
<g>
	<circle class="light" cx="532.2" cy="687" r="52.4"/>
	<circle class="st3 stroke-light" cx="532.2" cy="687" r="58.9"/>
	<path class="st4 stroke-light" d="M464.5,687c0-0.2,0-0.3,0-0.5c0.1-7.6,1.5-14.9,3.9-21.7"/>
	<path class="st3 stroke-light" d="M507.1,749.8c-9.2-3.6-17.5-9.2-24.2-16.3"/>
	<path class="st4 stroke-light" d="M574,738.9c-11.4,9.5-25.9,15.2-41.8,15.4"/>
	<path class="st3 stroke-light" d="M598.1,687.5c0,10.8-2.5,20.9-7,29.9c-0.1,0.2-0.2,0.3-0.3,0.5"/>
	<path class="st4 stroke-light" d="M566.7,630.7c15.4,9.6,26.5,25.3,30.2,43.6"/>
	<path class="st3 stroke-light" d="M484.6,639.6c12.1-11.7,28.5-18.9,46.7-18.9c0.1,0,0.3,0,0.3,0"/>
</g>
<g>
	<circle class="light" cx="261.1" cy="419.9" r="41.6"/>
	<circle class="st3 stroke-light" cx="261.1" cy="419.9" r="46.8"/>
	<path class="st4 stroke-light" d="M207.3,419.9c0-0.2,0-0.3,0-0.4c0.1-6.1,1.2-11.9,3.1-17.3"/>
	<path class="st3 stroke-light" d="M241.2,469.7c-7.4-2.9-13.9-7.3-19.2-12.9"/>
	<path class="st4 stroke-light" d="M294.2,461.1c-9,7.5-20.6,12.1-33.2,12.2"/>
	<path class="st3 stroke-light" d="M313.5,420.2c0,8.5-2,16.6-5.6,23.8c-0.1,0.2-0.2,0.3-0.2,0.4"/>
	<path class="st4 stroke-light" d="M288.5,375.1c12.2,7.6,21,20.1,24,34.7"/>
	<path class="st3 stroke-light" d="M223.3,382.2c9.6-9.3,22.6-15,37-15c0.1,0,0.2,0,0.3,0"/>
</g>
<g>
	<circle class="light" cx="186" cy="257.2" r="44.1"/>
	<circle class="st3 stroke-light" cx="186" cy="257.2" r="49.7"/>
	<path class="st4 stroke-light" d="M128.9,257.2c0-0.2,0-0.3,0-0.4c0.1-6.4,1.2-12.6,3.3-18.3"/>
	<path class="st3 stroke-light" d="M164.8,310.1c-7.8-3-14.8-7.7-20.4-13.7"/>
	<path class="st4 stroke-light" d="M221.3,300.9c-9.6,8-21.8,12.8-35.3,12.9"/>
	<path class="st3 stroke-light" d="M241.6,257.5c0,9-2.2,17.6-5.9,25.2c-0.1,0.2-0.2,0.3-0.2,0.4"/>
	<path class="st4 stroke-light" d="M215.1,209.7c12.9,8.1,22.3,21.3,25.5,36.8"/>
	<path class="st3 stroke-light" d="M145.9,217.2c10.2-9.9,24.1-16,39.4-16c0.1,0,0.2,0,0.3,0"/>
</g>
<circle class="light" cx="134.2" cy="639.1" r="52.4"/>
<circle class="st3 stroke-light" cx="134.2" cy="639.1" r="58.9"/>
<path class="st4 stroke-light" d="M66.5,639.1c0-0.2,0-0.3,0-0.5c0.1-7.6,1.5-14.9,3.9-21.7"/>
<path class="st3 stroke-light" d="M109.1,701.9c-9.2-3.6-17.5-9.2-24.2-16.3"/>
<path class="st4 stroke-light" d="M176,691c-11.4,9.5-25.9,15.2-41.8,15.4"/>
<path class="st3 stroke-light" d="M200.1,639.6c0,10.8-2.5,20.9-7,29.9c-0.1,0.2-0.2,0.3-0.3,0.5"/>
<path class="st4 stroke-light" d="M168.7,582.8c15.4,9.6,26.5,25.3,30.2,43.6"/>
<path class="st3 stroke-light" d="M86.6,591.7c12.1-11.7,28.5-18.9,46.7-18.9c0.1,0,0.3,0,0.3,0"/>
<path class="dark" d="M531,719.4c-7.6,0-15,0-22.6,0c-0.2,0-0.3-0.1-0.4-0.1c-4.6-1-7.6-3.7-9-8.3c-0.2-0.4-0.3-0.9-0.3-1.3
	c0-15,0-30.2,0-45.2c0.1-0.2,0.2-0.4,0.2-0.6c1-5,5.7-9.1,10.9-9c14.2,0.1,28.3,0,42.4,0c6,0,11,5,11,11c0,14.2,0,28.3,0,42.5
	c0,5-3.4,9.4-8.2,10.7c-0.5,0.2-1,0.3-1.5,0.3c-4.2,0-8.3,0-12.5,0c0-0.2-0.1-0.3-0.1-0.5c0-7.7,0-15.5,0-23.3c0-0.2,0-0.3,0-0.6
	c0.3,0,0.4,0,0.7,0c3.1,0,6.3,0,9.5,0c0.4,0,0.6-0.1,0.6-0.6c0-3.2,0-6.4,0-9.6c0-0.2,0-0.3,0-0.6c-3.6,0-7.1,0-10.7,0
	c0-1.7-0.1-3.3,0-4.9c0.1-1.5,1-2.3,2.5-2.3c2.4,0,5,0,7.4,0c0.3,0,0.4,0,0.7,0c0-3.6,0-7.1,0-10.7c-0.2,0-0.3,0-0.5,0
	c-2.7,0-5.3,0-8,0c-2.3,0-4.4,0.7-6.3,2c-3.3,2.3-5.1,5.5-5.7,9.4c-0.3,1.9-0.2,3.9-0.3,5.9c0,0.2,0,0.4,0,0.6c-2.7,0-5.3,0-7.9,0
	c0,0.2,0,0.3,0,0.4c0,3.3,0,6.6,0,9.8c0,0.4,0.2,0.5,0.5,0.5c2.3,0,4.4,0,6.7,0c0.2,0,0.4,0,0.7,0C531,703.1,531,711.3,531,719.4z"
	/>
<circle class="light" cx="479.8" cy="592" r="8.6"/>
<circle class="st3 stroke-light" cx="429.9" cy="610.3" r="14.5"/>
<circle class="st3 stroke-light" cx="536.3" cy="469.7" r="14.5"/>
<circle class="st3 stroke-light" cx="489.8" cy="156.5" r="14.5"/>
<line class="st3 stroke-light" x1="482.8" y1="597.3" x2="500.5" y2="628.1"/>
<line class="st3 stroke-light" x1="442.7" y1="617.4" x2="485.7" y2="650.8"/>
<circle class="light" cx="411.7" cy="253.1" r="52.4"/>
<circle class="st3 stroke-light" cx="411.7" cy="253.1" r="58.9"/>
<path class="st3 stroke-light" d="M386.6,315.8c-9.2-3.6-17.5-9.2-24.2-16.3"/>
<path class="st3 stroke-light" d="M477.8,253.5c0,10.8-2.5,20.9-7,29.9c-0.1,0.2-0.2,0.3-0.3,0.5"/>
<path class="st4 stroke-light" d="M446.3,196.8c15.4,9.6,26.5,25.3,30.2,43.6"/>
<path class="st3 stroke-light" d="M364.3,205.6c12.1-11.7,28.5-18.9,46.7-18.9c0.1,0,0.3,0,0.3,0"/>
<line class="st3 stroke-light" x1="362.5" y1="163.4" x2="380.1" y2="194.1"/>
<line class="st3 stroke-light" x1="322.2" y1="183.4" x2="365.3" y2="216.9"/>
<line class="st3 stroke-light" x1="422.3" y1="622.7" x2="405.7" y2="664.8"/>
<line class="st3 stroke-light" x1="425.6" y1="694.2" x2="473.3" y2="690.8"/>
<circle class="st3 stroke-light" cx="393.5" cy="695.4" r="32.9"/>
<path class="dark" d="M396.7,706.8c-3.4,2.7-7.3,3.6-11.6,1.1c-3.2-1.8-4.2-5-4.5-8.3c-0.6-5.6,2.5-11.5,7.5-14.1
	c2.3-1.2,4.9-1.5,7.4-0.7c1.2,0.3,2.2,1.3,3.4,2.1c0.3-1.3,1.4-1.8,2.9-1.7c2.7,0,3.5,0.9,2.9,3.6c-0.8,3.5-1.5,7-2.3,10.5
	c-0.1,0.5-0.3,1-0.3,1.6c0.2,1,0.3,2.5,0.9,2.6c1,0.3,2.3-0.1,3.1-0.7c1.7-1.2,2.4-3.2,2.8-5.2c1.9-10.8-5.1-18.4-16.3-17.7
	c-7.2,0.4-12.7,4.4-14.9,10.9c-2.4,7-0.8,14.9,4.3,19.2c5.7,4.9,12.4,4.9,19.2,3c2.5-0.7,4.4,0.5,4.2,3.2c-0.1,0.7-0.6,1.7-1.2,1.9
	c-8.3,3.1-19.9,2.9-27.1-4.2c-7.2-7-8.8-15.6-5.6-24.8c3.2-9.2,10.3-14.2,20.1-15c6.4-0.6,12.4,1,17.5,5.3c3.5,3,5.6,6.8,6.1,11.3
	c0.6,5.2,0.1,10.2-3.3,14.5c-2.8,3.5-6.5,4.8-10.8,4.1C399.7,708.8,398.4,707.6,396.7,706.8z M397,695.1c0.1-2.7-0.8-4.4-2.4-5.1
	c-1.7-0.7-3.8,0.1-5.3,1.9c-1.7,2.2-2.3,4.7-2.1,7.5c0.2,1.7,0.7,3.2,2.5,3.8c1.8,0.6,3.5-0.1,4.7-1.5
	C396.2,699.9,396.8,697.5,397,695.1z"/>
<path class="light" d="M399.5,522.3c-3.4,2.7-7.3,3.6-11.6,1.1c-3.2-1.8-4.2-5-4.5-8.3c-0.6-5.6,2.5-11.5,7.5-14.1
	c2.3-1.2,4.9-1.5,7.4-0.7c1.2,0.3,2.2,1.3,3.4,2.1c0.3-1.3,1.4-1.8,2.9-1.7c2.7,0,3.5,0.9,2.9,3.6c-0.8,3.5-1.5,7-2.3,10.5
	c-0.1,0.5-0.3,1-0.3,1.6c0.2,1,0.3,2.5,0.9,2.6c1,0.3,2.3-0.1,3.1-0.7c1.7-1.2,2.4-3.2,2.8-5.2c1.9-10.8-5.1-18.4-16.3-17.7
	c-7.2,0.4-12.7,4.4-14.9,10.9c-2.4,7-0.8,14.9,4.3,19.2c5.7,4.9,12.4,4.9,19.2,3c2.5-0.7,4.4,0.5,4.2,3.2c-0.1,0.7-0.6,1.7-1.2,1.9
	c-8.3,3.1-19.9,2.9-27.1-4.2c-7.2-7-8.8-15.6-5.6-24.8s10.3-14.2,20.1-15c6.4-0.6,12.4,1,17.5,5.3c3.5,3,5.6,6.8,6.1,11.3
	c0.6,5.2,0.1,10.2-3.3,14.5c-2.8,3.5-6.5,4.8-10.8,4.1C402.3,524.3,401.1,523.1,399.5,522.3z M399.7,510.6c0.1-2.7-0.8-4.4-2.4-5.1
	c-1.7-0.7-3.8,0.1-5.3,1.9c-1.7,2.2-2.3,4.7-2.1,7.5c0.2,1.7,0.7,3.2,2.5,3.8c1.8,0.6,3.5-0.1,4.7-1.5
	C399,515.4,399.6,513,399.7,510.6z"/>
<path class="st5 stroke-dark" d="M360.9,789.7c0,10.1-10.9,18.2-24.5,18.2c-1.2,0-2.3-0.1-3.6-0.2c-2-0.2-13.5,7-13.5,7s4.3-9.4,2.9-10.3
	c-6.3-3.3-10.3-8.7-10.3-14.9c0-10.1,10.9-18.2,24.5-18.2C349.9,771.5,360.9,779.7,360.9,789.7z"/>
<rect x="319.7" y="786.9" class="dark" width="8.6" height="5.3"/>
<rect x="332.6" y="786.9" class="dark" width="8.6" height="5.3"/>
<rect x="344.7" y="786.9" class="dark" width="8.6" height="5.3"/>
<path class="dark" d="M375.1,803.5c1,4.9-2.2,9.9-7.6,13c-1,0.6,1.5,7,1.5,7s-7-4.6-8.3-4.3c-0.2,0-0.3,0.1-0.4,0.1
	c-9.6,1.9-18.6-2-19.9-8.7c-1.4-6.8,5.4-13.8,15-15.7C364.8,792.8,373.8,796.7,375.1,803.5z"/>
<circle class="light" cx="349.6" cy="807.3" r="2.7"/>
<circle class="light" cx="357" cy="807.3" r="2.7"/>
<circle class="light" cx="364.8" cy="807.3" r="2.7"/>
<circle class="st11 stroke-light" cx="71.8" cy="504.3" r="48.5"/>
<ellipse class="st11 stroke-light" cx="72.3" cy="503" rx="42.7" ry="41.9"/>
<path class="light" d="M44.8,526.6l3.1-6.7c1.4-3,2.6-6.3,3-7.8c-6.7-3.8-10.6-9.8-10.6-16.3c0-11.2,12-20.3,26.7-20.3
	s26.7,9.1,26.7,20.3s-12,20.3-26.8,20.3c-1.2,0-2.4-0.1-3.6-0.2c-1.5,0.3-7.5,3.6-12.3,6.7L44.8,526.6z M66.9,479.8
	c-12.3,0-22.3,7.2-22.3,16c0,5,3.4,9.9,9.1,12.9c2.2,1.1,1.7,3.9,0.6,6.9c7.2-4.2,8.7-4,9.3-4c1,0.1,2.2,0.2,3.3,0.2
	c12.3,0,22.3-7.2,22.3-16C89.3,487,79.3,479.8,66.9,479.8z"/>
<rect x="50.2" y="492.9" class="light" width="8.6" height="5.3"/>
<rect x="63.2" y="492.9" class="light" width="8.6" height="5.3"/>
<rect x="75.4" y="492.9" class="light" width="8.6" height="5.3"/>
<path class="light" d="M105.7,509.6c1,4.9-2.2,9.9-7.6,13c-1,0.6,1.5,7,1.5,7s-7-4.6-8.3-4.3c-0.2,0-0.3,0.1-0.4,0.1
	c-9.6,1.9-18.6-2-19.9-8.7c-1.3-6.7,5.4-13.8,15-15.7C95.4,498.9,104.4,502.8,105.7,509.6z"/>
<circle class="normal" cx="80.2" cy="513.3" r="2.7"/>
<circle class="normal" cx="87.5" cy="513.3" r="2.7"/>
<circle class="normal" cx="95.3" cy="513.3" r="2.7"/>
<circle class="st11 stroke-light" cx="346.8" cy="119.7" r="48.5"/>
<ellipse class="st11 stroke-light" cx="347.3" cy="118.4" rx="42.7" ry="41.9"/>
<path class="light" d="M319.9,142l3.1-6.7c1.4-3,2.6-6.3,3-7.8c-6.7-3.8-10.6-9.8-10.6-16.3c0-11.2,12-20.3,26.7-20.3
	s26.7,9,26.7,20.3s-12,20.3-26.7,20.3c-1.2,0-2.4-0.1-3.6-0.2c-1.5,0.3-7.5,3.6-12.3,6.7L319.9,142z M342,95.2
	c-12.3,0-22.3,7.2-22.3,16c0,5,3.4,9.9,9.1,12.9c2.2,1.1,1.7,3.9,0.6,6.9c7.2-4.2,8.7-4,9.3-4c1,0.1,2.2,0.2,3.3,0.2
	c12.3,0,22.3-7.2,22.3-16S354.3,95.2,342,95.2z"/>
<rect x="325.4" y="108.4" class="light" width="8.6" height="5.3"/>
<rect x="338.2" y="108.4" class="light" width="8.6" height="5.3"/>
<rect x="350.5" y="108.4" class="light" width="8.6" height="5.3"/>
<path class="light" d="M380.8,125c1,4.9-2.2,9.9-7.6,13c-1,0.6,1.5,7,1.5,7s-7-4.6-8.3-4.3c-0.2,0-0.3,0.1-0.4,0.1
	c-9.6,1.9-18.6-2-19.9-8.7c-1.4-6.8,5.4-13.8,15-15.7C370.5,114.3,379.4,118.2,380.8,125z"/>
<circle class="normal" cx="355.3" cy="128.8" r="2.7"/>
<circle class="normal" cx="362.6" cy="128.8" r="2.7"/>
<circle class="normal" cx="370.5" cy="128.8" r="2.7"/>
<circle class="st11 stroke-light" cx="615.5" cy="413.9" r="48.5"/>
<ellipse class="st11 stroke-light" cx="616" cy="412.6" rx="42.7" ry="41.9"/>
<path class="light" d="M588.5,436.2l3.1-6.7c1.4-3,2.6-6.3,3-7.8c-6.7-3.8-10.6-9.8-10.6-16.3c0-11.2,12-20.3,26.7-20.3
	s26.7,9.1,26.7,20.3s-12,20.3-26.7,20.3c-1.2,0-2.4-0.1-3.6-0.2c-1.5,0.3-7.5,3.6-12.3,6.7L588.5,436.2z M610.6,389.4
	c-12.3,0-22.3,7.2-22.3,16c0,5,3.4,9.9,9.1,12.9c2.2,1.1,1.7,3.9,0.6,6.9c7.2-4.2,8.7-4,9.3-4c1,0.1,2.2,0.2,3.3,0.2
	c12.3,0,22.3-7.2,22.3-16S623,389.4,610.6,389.4z"/>
<rect x="594" y="402.5" class="light" width="8.6" height="5.3"/>
<rect x="606.9" y="402.5" class="light" width="8.6" height="5.3"/>
<rect x="619.1" y="402.5" class="light" width="8.6" height="5.3"/>
<path class="light" d="M649.4,419.2c1,4.9-2.2,9.9-7.6,13c-1,0.6,1.5,7,1.5,7s-7-4.6-8.3-4.3c-0.2,0-0.3,0.1-0.4,0.1
	c-9.6,1.9-18.6-2-19.9-8.7c-1.3-6.7,5.4-13.8,15-15.7C639.1,408.5,648,412.4,649.4,419.2z"/>
<circle class="normal" cx="623.9" cy="422.9" r="2.7"/>
<circle class="normal" cx="631.2" cy="422.9" r="2.7"/>
<circle class="normal" cx="639.1" cy="422.9" r="2.7"/>
<circle class="st11 stroke-light" cx="126.7" cy="372.3" r="38.8"/>
<ellipse class="st11 stroke-light" cx="127.1" cy="371.3" rx="34.1" ry="33.4"/>
<path class="light" d="M105.2,390.1l2.5-5.3c1.1-2.4,2.1-5,2.3-6.3c-5.3-3-8.4-7.8-8.4-12.9c0-9,9.6-16.3,21.3-16.3
	s21.3,7.3,21.3,16.3c0,9-9.6,16.3-21.3,16.3c-1,0-1.9-0.1-2.9-0.2c-1.2,0.3-6,3-9.8,5.4L105.2,390.1z M122.8,352.7
	c-9.8,0-17.8,5.7-17.8,12.8c0,4,2.7,7.9,7.3,10.3c1.7,0.9,1.3,3.1,0.5,5.5c5.8-3.3,7-3.2,7.4-3.1c0.9,0.1,1.7,0.2,2.6,0.2
	c9.8,0,17.8-5.7,17.8-12.8C140.6,358.5,132.6,352.7,122.8,352.7z"/>
<rect x="109.5" y="363.2" class="light" width="6.9" height="4.3"/>
<rect x="119.8" y="363.2" class="light" width="6.9" height="4.3"/>
<rect x="129.6" y="363.2" class="light" width="6.9" height="4.3"/>
<path class="light" d="M153.7,376.5c0.8,3.9-1.7,7.9-6.1,10.4c-0.8,0.4,1.1,5.6,1.1,5.6s-5.6-3.6-6.7-3.5c-0.1,0-0.3,0.1-0.3,0.1
	c-7.7,1.6-14.9-1.6-15.9-7c-1.1-5.4,4.3-11,12-12.6C145.6,368,152.7,371.2,153.7,376.5z"/>
<circle class="normal" cx="133.4" cy="379.6" r="2.2"/>
<circle class="normal" cx="139.2" cy="379.6" r="2.2"/>
<circle class="normal" cx="145.5" cy="379.6" r="2.2"/>
<line class="st3 stroke-light" x1="379.4" y1="725.2" x2="364.1" y2="754.9"/>
<line class="st3 stroke-light" x1="271.7" y1="738.9" x2="306.8" y2="766"/>
<line class="st3 stroke-light" x1="272.3" y1="844.1" x2="303.6" y2="823.5"/>
<line class="st3 stroke-light" x1="375.3" y1="830.8" x2="409.8" y2="871.3"/>
<line class="st3 stroke-light" x1="360.9" y1="840.6" x2="371.8" y2="864.6"/>
<circle class="light" cx="371.6" cy="863.5" r="8"/>
<circle class="light" cx="411.7" cy="873.5" r="8"/>
<circle class="st4 stroke-light" cx="260.1" cy="852.6" r="14.9"/>
<g>
	<path class="dark" d="M294.4,634.5c0-0.4,0-0.9,0-1.3c0-3.3,0-6.5,0-9.8c0-0.3-0.1-0.6-0.4-0.7c-0.6-0.3-1.3-0.5-1.9-0.7
		c-3.9-1.3-6.6-3.9-8.5-7.5c-1-1.9-1.7-4-2.2-6.2c-0.8-3.5-1-7-1-10.5c0.1-2.3,0.3-4.6,0.6-6.9c0.3-1.8,0.5-3.6,1-5.3
		c1-4.1,3.2-7.4,6.6-9.9c2.1-1.6,4.3-2.6,6.9-3.4c2-0.7,4.1-1.1,6.1-1.4c3-0.4,5.9-0.7,9-0.6c1.8,0.1,3.6,0.2,5.5,0.3
		c2.6,0.3,5.1,0.7,7.6,1.3c2.4,0.6,4.7,1.6,6.8,2.9c3.6,2.3,5.9,5.6,7,9.8c0.7,2.6,1.1,5.3,1.4,8c0.3,2.9,0.3,5.8,0.1,8.7
		c-0.1,1.7-0.3,3.5-0.5,5.1c-0.6,3.3-1.6,6.5-3.2,9.4c-1.3,2.2-3.1,3.9-5.3,5.1c-1.9,1.1-4,1.8-6.2,2.3c-1.7,0.3-3.4,0.6-5.1,0.8
		c-3.9,0.3-7.8,0.4-11.7,0.5c-0.1,0-0.3,0.1-0.3,0.2c-2.3,2.6-4.9,5-7.4,7.4c-0.7,0.7-1.4,1.4-2.1,2.1c-0.1,0.1-0.3,0.2-0.3,0.2
		C296,634.5,295.2,634.5,294.4,634.5z M297.2,630.4c0.1-0.1,0.2-0.2,0.2-0.2c0.9-0.8,1.7-1.7,2.5-2.4c1.5-1.6,3-3,4.5-4.6
		c0.7-0.7,1.5-1,2.4-1.1c2.8-0.1,5.6-0.2,8.3-0.3c2.3-0.1,4.5-0.3,6.8-0.6c2.2-0.3,4.3-1,6.3-2c2.2-1.1,3.9-2.8,5-5
		c1.3-2.6,2.2-5.4,2.6-8.3c0.3-2.3,0.4-4.5,0.5-6.8c0.1-3.1-0.1-6.3-0.6-9.3c-0.3-1.7-0.6-3.4-1.2-5c-0.9-2.7-2.4-4.9-4.7-6.5
		c-1.8-1.3-3.8-2.3-6-2.9c-1.8-0.5-3.6-0.9-5.5-1.2c-1.9-0.3-3.8-0.5-5.7-0.6c-2.8-0.2-5.5-0.2-8.3,0.2c-2.2,0.3-4.3,0.5-6.3,1.1
		c-2.5,0.7-5,1.7-7.1,3c-3.2,2.1-5.3,5-6.2,8.8c-0.3,1.7-0.6,3.5-0.9,5.3c-0.3,2.2-0.5,4.3-0.5,6.4c-0.1,2.6,0.1,5.2,0.5,7.8
		c0.3,1.8,0.7,3.6,1.4,5.4c0.7,2,1.7,3.9,3.3,5.4c1.1,1,2.3,1.9,3.7,2.4c0.9,0.3,1.7,0.6,2.6,1c0.6,0.3,1.2,0.6,1.7,1.1
		c0.5,0.6,0.7,1.4,0.7,2.3C297.3,625.8,297.3,628.1,297.2,630.4C297.2,630.1,297.2,630.2,297.2,630.4z"/>
	<path class="dark" d="M318.7,616.5c-0.5,0-1.2-0.2-1.8-0.4c-4.4-1.9-8.5-4.3-12.2-7.4c-3.6-3-6.4-6.4-8.9-10.3
		c-1.4-2.3-2.5-4.7-3.5-7.2c-0.2-0.4-0.4-1-0.5-1.4c-0.4-2.3,0.4-4.2,2.3-5.5c0.8-0.6,1.7-1,2.8-1.1c1-0.2,1.7,0.2,2.4,0.8
		c1.4,1.3,2.5,2.7,3.5,4.3c0.4,0.7,0.9,1.5,1.2,2.3c0.6,1.1,0.3,2.1-0.6,3c-0.3,0.3-0.8,0.6-1.1,1c-1.3,1-1.6,2.2-1,3.7
		c1,2.3,2.3,4.3,4.3,5.9c1.5,1.2,3.1,2.2,4.9,3c1.2,0.5,2.3,0,3.1-1c0.3-0.5,0.7-1,1.2-1.4c1-0.7,2-0.6,3-0.3
		c0.7,0.3,1.3,0.7,1.9,1.1c1.4,1,2.8,2,4.1,3c0.6,0.5,1.1,1.1,1.2,1.9c0.1,0.6-0.1,1.1-0.3,1.7c-0.8,1.8-2.1,3.1-3.9,4
		C320,616.3,319.4,616.5,318.7,616.5z"/>
	<path class="dark" d="M311.5,580.1c4.3,0,8.1,1.7,11.1,5c2.1,2.3,3.3,5,3.7,8.1c0.3,1.8,0.2,3.6-0.3,5.3c-0.2,0.7-0.6,1.1-1.2,1.1
		c-0.6,0.1-1.2-0.3-1.5-0.9c-0.1-0.3-0.1-0.6-0.1-1c0.8-3.6,0.1-7-2.2-10c-2-2.8-4.8-4.3-8.2-4.9c-1.6-0.3-3-0.2-4.6,0.2
		c-0.8,0.2-1.4-0.3-1.6-1c-0.2-0.8,0.3-1.5,1-1.7C309,580.3,310.1,580.1,311.5,580.1z"/>
	<path class="dark" d="M322.4,595.3c-0.1,0.5-0.1,1.2-0.2,1.8c-0.1,0.8-0.8,1.2-1.6,1.1c-0.8-0.1-1.2-0.7-1.2-1.4
		c0-0.5,0.1-1,0.2-1.6c0-3.6-2.3-6.9-5.8-7.9c-1.2-0.3-2.5-0.4-3.7-0.3c-1.3,0.3-1.9-1-1.7-1.8c0.2-0.5,0.5-0.8,1-0.9
		c3.8-0.6,7.1,0.4,9.8,3.1c1.7,1.7,2.7,3.7,3,6.2C322.3,594.3,322.3,594.8,322.4,595.3z"/>
	<path class="dark" d="M311.3,588.5c3.4,0.1,6.3,2.6,6.8,5.9c0.1,0.4,0.1,0.9,0.1,1.3c-0.1,0.8-0.7,1.1-1.5,1.1
		c-0.7-0.1-1.2-0.6-1.2-1.3c0-0.9-0.2-1.7-0.7-2.4c-0.9-1.2-2-1.8-3.5-1.8c-0.6,0-1-0.3-1.3-0.9c-0.3-0.6-0.2-1.1,0.3-1.6
		C310.5,588.6,310.8,588.5,311.3,588.5z"/>
</g>
<circle class="light" cx="584.6" cy="213" r="42.9"/>
<circle class="st3 stroke-light" cx="584.6" cy="213" r="48.3"/>
<g>
	<path class="dark" d="M570.6,247.1c0-0.4,0-0.9,0-1.3c0-3.3,0-6.5,0-9.8c0-0.3-0.1-0.6-0.4-0.7c-0.6-0.3-1.3-0.5-1.9-0.7
		c-3.9-1.3-6.6-3.9-8.5-7.5c-1-1.9-1.7-4-2.2-6.2c-0.8-3.5-1-7-1-10.5c0.1-2.3,0.3-4.6,0.6-6.9c0.3-1.8,0.5-3.6,1-5.3
		c1-4.1,3.2-7.4,6.6-9.9c2.1-1.6,4.3-2.6,6.9-3.4c2-0.7,4.1-1.1,6.1-1.4c3-0.4,5.9-0.7,9-0.6c1.8,0.1,3.6,0.2,5.5,0.3
		c2.6,0.3,5.1,0.7,7.6,1.3c2.4,0.6,4.7,1.6,6.8,2.9c3.6,2.3,5.9,5.6,7,9.8c0.7,2.6,1.1,5.3,1.4,8c0.3,2.9,0.3,5.8,0.1,8.7
		c-0.1,1.7-0.3,3.5-0.5,5.1c-0.6,3.3-1.6,6.5-3.2,9.4c-1.3,2.2-3.1,3.9-5.3,5.1c-1.9,1.1-4,1.8-6.2,2.3c-1.7,0.3-3.4,0.6-5.1,0.8
		c-3.9,0.3-7.8,0.4-11.7,0.5c-0.1,0-0.3,0.1-0.3,0.2c-2.3,2.6-4.9,5-7.4,7.4c-0.7,0.7-1.4,1.4-2.1,2.1c-0.1,0.1-0.3,0.2-0.3,0.2
		C572.1,247.1,571.4,247.1,570.6,247.1z M573.4,242.8c0.1-0.1,0.2-0.2,0.2-0.2c0.9-0.8,1.7-1.7,2.5-2.4c1.5-1.6,3-3,4.5-4.6
		c0.7-0.7,1.5-1,2.4-1.1c2.8-0.1,5.6-0.2,8.3-0.3c2.3-0.1,4.5-0.3,6.8-0.6c2.2-0.3,4.3-1,6.3-2c2.2-1.1,3.9-2.8,5-5
		c1.3-2.6,2.2-5.4,2.6-8.3c0.3-2.3,0.4-4.5,0.5-6.8c0.1-3.1-0.1-6.3-0.6-9.3c-0.3-1.7-0.6-3.4-1.2-5c-0.9-2.7-2.4-4.9-4.7-6.5
		c-1.8-1.3-3.8-2.3-6-2.9c-1.8-0.5-3.6-0.9-5.5-1.2c-1.9-0.3-3.8-0.5-5.7-0.6c-2.8-0.2-5.5-0.2-8.3,0.2c-2.2,0.3-4.3,0.5-6.3,1.1
		c-2.5,0.7-5,1.7-7.1,3c-3.2,2.1-5.3,5-6.2,8.8c-0.3,1.7-0.6,3.5-0.9,5.3c-0.3,2.2-0.5,4.3-0.5,6.4c-0.1,2.6,0.1,5.2,0.5,7.8
		c0.3,1.8,0.7,3.6,1.4,5.4c0.7,2,1.7,3.9,3.3,5.4c1.1,1,2.3,1.9,3.7,2.4c0.9,0.3,1.7,0.6,2.6,1c0.6,0.3,1.2,0.6,1.7,1.1
		c0.5,0.6,0.7,1.4,0.7,2.3C573.5,238.3,573.5,240.5,573.4,242.8C573.4,242.5,573.4,242.6,573.4,242.8z"/>
	<path class="dark" d="M594.8,228.9c-0.5,0-1.2-0.2-1.8-0.4c-4.4-1.9-8.5-4.3-12.2-7.4c-3.6-3-6.4-6.4-8.9-10.3
		c-1.4-2.3-2.5-4.7-3.5-7.2c-0.2-0.4-0.4-1-0.5-1.4c-0.4-2.3,0.4-4.2,2.3-5.5c0.8-0.6,1.7-1,2.8-1.1c1-0.2,1.7,0.2,2.4,0.8
		c1.4,1.3,2.5,2.7,3.5,4.3c0.4,0.7,0.9,1.5,1.2,2.3c0.6,1.1,0.3,2.1-0.6,3c-0.3,0.3-0.8,0.6-1.1,1c-1.3,1-1.6,2.2-1,3.7
		c1,2.3,2.3,4.3,4.3,5.9c1.5,1.2,3.1,2.2,4.9,3c1.2,0.5,2.3,0,3.1-1c0.3-0.5,0.7-1,1.2-1.4c1-0.7,2-0.6,3-0.3
		c0.7,0.3,1.3,0.7,1.9,1.1c1.4,1,2.8,2,4.1,3c0.6,0.5,1.1,1.1,1.2,1.9c0.1,0.6-0.1,1.1-0.3,1.7c-0.8,1.8-2.1,3.1-3.9,4
		C596.1,228.7,595.7,228.9,594.8,228.9z"/>
	<path class="dark" d="M587.6,192.6c4.3,0,8.1,1.7,11.1,5c2.1,2.3,3.3,5,3.7,8.1c0.3,1.8,0.2,3.6-0.3,5.3c-0.2,0.7-0.6,1.1-1.2,1.1
		c-0.6,0.1-1.2-0.3-1.5-0.9c-0.1-0.3-0.1-0.6-0.1-1c0.8-3.6,0.1-7-2.2-10c-2-2.8-4.8-4.3-8.2-4.9c-1.6-0.3-3-0.2-4.6,0.2
		c-0.8,0.2-1.4-0.3-1.6-1c-0.2-0.8,0.3-1.5,1-1.7C585.2,192.7,586.2,192.6,587.6,192.6z"/>
	<path class="dark" d="M598.6,207.8c-0.1,0.5-0.1,1.2-0.2,1.8c-0.1,0.8-0.8,1.2-1.6,1.1c-0.8-0.1-1.2-0.7-1.2-1.4
		c0-0.5,0.1-1,0.2-1.6c0-3.6-2.3-6.9-5.8-7.9c-1.2-0.3-2.5-0.4-3.7-0.3c-1.3,0.3-1.9-1-1.7-1.8c0.2-0.5,0.5-0.8,1-0.9
		c3.8-0.6,7.1,0.4,9.8,3.1c1.7,1.7,2.7,3.7,3,6.2C598.5,206.7,598.5,207.3,598.6,207.8z"/>
	<path class="dark" d="M587.4,200.9c3.4,0.1,6.3,2.6,6.8,5.9c0.1,0.4,0.1,0.9,0.1,1.3c-0.1,0.8-0.7,1.1-1.5,1.1
		c-0.7-0.1-1.2-0.6-1.2-1.3c0-0.9-0.2-1.7-0.7-2.4c-0.9-1.2-2-1.8-3.5-1.8c-0.6,0-1-0.3-1.3-0.9c-0.3-0.6-0.2-1.1,0.3-1.6
		C586.7,201,587,200.9,587.4,200.9z"/>
</g>
<path class="dark" d="M90.8,639.4c25.9-10.9,51.4-21.6,77.3-32.6c-0.4,2.3-0.8,4.2-1.1,6.1c-4,20.2-7.9,40.6-11.9,60.8
	c-0.4,2.1-1.2,2.4-2.9,1.1c-6.4-5-12.9-9.9-19.4-14.8c-0.3-0.3-0.7-0.5-1.1-0.8c-4.2,3.8-8.3,7.6-12.7,11.6c0.9-5.6,1.7-11,2.6-16.3
	c0.1-0.5,0.6-1.1,1-1.5c10.4-9.7,20.8-19.4,31.2-29.1c1-0.9,1.9-1.7,2.7-2.7c0.3-0.3,0.3-1,0.3-1.6c-0.5,0-1-0.2-1.5-0.1
	c-0.8,0.3-1.5,0.7-2.1,1.1c-13.5,8.3-26.9,16.7-40.3,25c-0.9,0.5-1.6,0.7-2.6,0.3C103.9,643.8,97.6,641.8,90.8,639.4z"/>
<g>
	<path class="dark" d="M233.1,446.4c-0.1-0.1-0.2-0.2-0.2-0.2c0.1-0.3,0.3-0.4,0.3-0.7c0.3-0.9,0.6-1.8,0.9-2.7c1.4-4,2.7-8,4.1-12
		c0.2-0.4,0.1-0.7-0.1-1.1c-0.8-1.7-1.7-3.4-2.3-5.1c-1-2.9-1.6-5.8-1.7-8.9c-0.1-3.1,0.3-6.3,1.2-9.2c1-3.6,2.8-7,5.1-9.9
		c1.7-2.2,3.6-4,5.7-5.6c2.3-1.7,4.8-3,7.5-4.1c3-1.1,6.1-1.7,9.3-1.9c2.9-0.2,5.7,0.2,8.6,0.9c4,1,7.6,2.7,10.9,5.1
		c3.2,2.4,5.9,5.4,7.9,9c2.4,4.2,3.7,8.7,4,13.5c0.3,4.6-0.6,9-2.4,13.3c-1.5,3.5-3.6,6.5-6.3,9.2c-1.9,1.9-4.1,3.6-6.4,4.9
		c-4.3,2.4-8.9,3.7-13.8,3.9c-5.4,0.2-10.5-1-15.3-3.5c-0.2-0.1-0.5-0.1-0.7-0.1c-1.7,0.5-3.6,1.1-5.3,1.7c-2.6,0.9-5.2,1.7-7.8,2.5
		C235.1,445.7,234,446.1,233.1,446.4z M240.5,438.9c0.4-0.2,0.8-0.3,1.1-0.3c2.7-0.9,5.4-1.7,8.1-2.6c0.3-0.1,0.6-0.1,1,0.1
		c1.2,0.6,2.3,1.3,3.6,1.9c3.2,1.4,6.6,2.1,10.1,2c3.6,0,7-0.8,10.3-2.3c2-1,3.9-2.1,5.6-3.5c2.8-2.3,5-5,6.6-8.3
		c2.2-4.4,3-9,2.5-13.9c-0.5-4.4-2.1-8.5-4.8-12.1c-1.7-2.3-3.7-4.3-6.1-5.8c-3.1-2.1-6.5-3.6-10.3-4.1c-5.6-0.9-11,0-16.2,2.7
		c-3.7,2-6.8,4.9-9.2,8.4c-1.7,2.5-2.8,5.2-3.5,8.1c-0.5,2.3-0.7,4.7-0.6,7.1c0.1,2.2,0.5,4.3,1.2,6.4c0.8,2.3,1.9,4.4,3.3,6.4
		c0.2,0.3,0.2,0.5,0.1,0.8c-0.8,2.4-1.7,4.8-2.4,7.2C240.8,437.8,240.6,438.3,240.5,438.9z"/>
	<path class="dark" d="M254.8,401.3c0.3,0,0.6,0,0.9,0c0.4,0,0.9,0.2,1,0.6c0.3,0.8,0.8,1.7,1.1,2.4c0.5,1.1,1,2.3,1.5,3.5
		c0.3,0.8,0.2,1.5-0.3,2.1c-0.5,0.7-1,1.3-1.6,2c-0.4,0.5-0.5,1-0.2,1.5c1.9,3.1,4.3,5.7,7.6,7.5c0.9,0.4,1.7,0.9,2.6,1.2
		c0.6,0.3,1,0.2,1.5-0.4c0.7-0.9,1.5-1.8,2.2-2.7c0.5-0.6,0.9-0.8,1.7-0.4c2,1,4,1.9,6,2.8c0.5,0.3,0.7,0.6,0.6,1.1
		c-0.2,1-0.3,1.8-0.5,2.7c-0.3,1-1,1.6-1.8,2.2c-2,1.4-4.2,2-6.6,1.4c-1.6-0.4-3.2-1-4.8-1.6c-3.6-1.3-6.6-3.5-9.2-6.3
		c-2.2-2.3-4-4.7-5.6-7.4c-1.2-2.3-1.8-4.6-1.3-7.2c0.4-1.8,1.4-3.3,2.8-4.5C253.1,401.2,253.9,401.1,254.8,401.3z"/>
</g>
<path class="dark" d="M417.6,269.1c-5.2,4.2-11.4,5.6-18,1.7c-5-2.9-6.5-7.6-7.1-12.9c-1-8.6,3.9-17.8,11.6-21.9
	c3.6-1.9,7.6-2.3,11.6-1c1.8,0.6,3.4,2.1,5.2,3.2c0.5-2,2.1-2.8,4.4-2.8c4.2,0.1,5.3,1.4,4.4,5.5c-1.1,5.5-2.3,10.9-3.5,16.4
	c-0.2,0.8-0.5,1.7-0.3,2.3c0.3,1.5,0.6,3.9,1.4,4.1c1.5,0.3,3.6-0.2,4.9-1c2.8-1.8,3.7-5,4.3-8.1c3-16.7-8-28.6-25.4-27.5
	c-11.2,0.7-19.7,7-23.2,16.9c-3.7,10.9-1.2,23.1,6.7,29.9c8.9,7.6,19.3,7.6,29.9,4.7c3.9-1.1,6.9,0.9,6.4,5c-0.1,1-1,2.6-1.9,2.9
	c-12.9,4.9-30.9,4.4-42.1-6.4c-11.2-10.9-13.7-24.2-8.7-38.5c5-14.3,16.1-22,31.2-23.4c10.1-1,19.4,1.6,27.2,8.2
	c5.5,4.6,8.6,10.5,9.6,17.6c1,8.1,0.2,15.9-5,22.6c-4.3,5.5-10.2,7.4-16.8,6.3C422.2,272.3,420.3,270.5,417.6,269.1z M418,251.1
	c0.1-4.2-1.3-7-3.7-7.9c-2.7-1-6,0.1-8.3,3c-2.7,3.4-3.7,7.4-3.3,11.6c0.3,2.6,1,5,3.9,5.9c2.9,0.9,5.4-0.2,7.3-2.3
	C416.9,258.5,417.7,254.7,418,251.1z"/>
<g>
	<path class="dark" d="M198.9,269.6c-5.3,6.9-10.7,13.7-16,20.7c-2.5,3.3-7.2,3.9-10.5,1.4c-6.4-5-12.8-9.9-19.2-14.9
		c-2.6-2.1-3.6-5.6-2.3-8.6c0.3-0.6,0.6-1.2,1-1.7c10.8-13.9,21.5-27.7,32.2-41.6c0.6-0.8,1.2-1.4,2.1-1.9c2.3-1.3,4.8-1.3,7.2-0.1
		c0.4,0.3,0.9,0.5,1.2,0.8c6.3,4.9,12.6,9.7,18.9,14.6c2.3,1.8,3.4,4.3,3,7.3c-0.2,1-0.6,2-1.2,2.9c-2,2.6-4,5.2-6.1,7.8
		C205.8,260.7,202.3,265.1,198.9,269.6z M196.6,267.7c4.3-5.6,8.5-11,12.9-16.6c0.5-0.7,0.4-1.3-0.3-1.8
		c-8.1-6.3-16.1-12.5-24.2-18.7c-0.7-0.5-1.3-0.4-1.8,0.3c-8.5,11-17,22-25.6,33c-0.5,0.7-0.5,1.3,0.3,1.9
		c8,6.3,16.1,12.4,24.1,18.7c0.7,0.6,1.3,0.5,1.9-0.3C188.1,278.7,192.3,273.2,196.6,267.7z M169,281.7c1.1-1.5,0.9-3.6-0.6-4.7
		c-1.5-1.1-3.6-0.9-4.7,0.6s-0.9,3.6,0.6,4.7S167.9,283.2,169,281.7z M201.4,234.5c-1.3-1-2.6-2.1-4-3c-0.2-0.1-0.3-0.3-0.5-0.3
		c-0.2,0-0.4,0.1-0.6,0.2c-0.2,0.2-0.2,0.4-0.1,0.6c0.1,0.2,0.3,0.3,0.3,0.4c2.6,2.1,5.3,4.1,7.9,6.2c0.1,0.1,0.3,0.2,0.3,0.2
		c0.3,0.1,0.5,0.1,0.7-0.2c0.2-0.3,0.2-0.5,0-0.7c-0.1-0.1-0.2-0.3-0.3-0.3C204,236.5,202.7,235.5,201.4,234.5z"/>
	<path class="dark" d="M182.1,240.5l-0.9-0.7c-1-0.9-1.3-2.3-0.4-3.5l0.7-0.9c0.9-1,2.3-1.3,3.5-0.4l0.9,0.7c1,0.9,1.3,2.3,0.4,3.5
		l-0.7,0.9C184.7,241.1,183.2,241.2,182.1,240.5z"/>
	<path class="dark" d="M188.3,245.2l-0.9-0.7c-1-0.9-1.3-2.3-0.4-3.5l0.7-0.9c0.9-1,2.3-1.3,3.5-0.4l0.9,0.7c1,0.9,1.3,2.3,0.4,3.5
		l-0.7,0.9C190.9,245.9,189.4,246.1,188.3,245.2z"/>
	<path class="dark" d="M194.6,250.1l-0.9-0.7c-1-0.9-1.3-2.3-0.4-3.5l0.7-0.9c0.9-1,2.3-1.3,3.5-0.4l0.9,0.7c1,0.9,1.3,2.3,0.4,3.5
		l-0.7,0.9C197.2,250.7,195.6,250.9,194.6,250.1z"/>
	<path class="dark" d="M200.7,254.9l-0.9-0.7c-1-0.9-1.3-2.3-0.4-3.5l0.7-0.9c0.9-1,2.3-1.3,3.5-0.4l0.9,0.7c1,0.9,1.3,2.3,0.4,3.5
		l-0.7,0.9C203.4,255.6,201.8,255.7,200.7,254.9z"/>
	<path class="dark" d="M183.9,251.1l-0.9-0.7c-1-0.9-1.3-2.3-0.4-3.5l0.7-0.9c0.9-1,2.3-1.3,3.5-0.4l0.9,0.7c1,0.9,1.3,2.3,0.4,3.5
		l-0.7,0.9C186.5,251.7,184.9,251.8,183.9,251.1z"/>
	<path class="dark" d="M190.1,255.8l-0.9-0.7c-1-0.9-1.3-2.3-0.4-3.5l0.7-0.9c0.9-1,2.3-1.3,3.5-0.4l0.9,0.7c1,0.9,1.3,2.3,0.4,3.5
		l-0.7,0.9C192.7,256.4,191.1,256.7,190.1,255.8z"/>
	<path class="dark" d="M196.3,260.7l-0.9-0.7c-1-0.9-1.3-2.3-0.4-3.5l0.7-0.9c0.9-1,2.3-1.3,3.5-0.4l0.9,0.7c1,0.9,1.3,2.3,0.4,3.5
		l-0.7,0.9C198.9,261.3,197.4,261.5,196.3,260.7z"/>
	<path class="dark" d="M173.1,251.9l-0.9-0.7c-1-0.9-1.3-2.3-0.4-3.5l0.7-0.9c0.9-1,2.3-1.3,3.5-0.4l0.9,0.7c1,0.9,1.3,2.3,0.4,3.5
		l-0.7,0.9C175.8,252.6,174.2,252.8,173.1,251.9z"/>
	<path class="dark" d="M191.8,266.4l-0.9-0.7c-1-0.9-1.3-2.3-0.4-3.5l0.7-0.9c0.9-1,2.3-1.3,3.5-0.4l0.9,0.7c1,0.9,1.3,2.3,0.4,3.5
		l-0.7,0.9C194.5,267,192.9,267.2,191.8,266.4z"/>
	<path class="dark" d="M187.4,272.2l-0.9-0.7c-1-0.9-1.3-2.3-0.4-3.5l0.7-0.9c0.9-1,2.3-1.3,3.5-0.4l0.9,0.7c1,0.9,1.3,2.3,0.4,3.5
		l-0.7,0.9C190,272.8,188.4,273,187.4,272.2z"/>
	<path class="dark" d="M164.2,263.5l-0.9-0.7c-1-0.9-1.3-2.3-0.4-3.5l0.7-0.9c0.9-1,2.3-1.3,3.5-0.4l0.9,0.7c1,0.9,1.3,2.3,0.4,3.5
		l-0.7,0.9C166.9,264.1,165.3,264.3,164.2,263.5z"/>
	<path class="dark" d="M170.4,268.3l-0.9-0.7c-1-0.9-1.3-2.3-0.4-3.5l0.7-0.9c0.9-1,2.3-1.3,3.5-0.4l0.9,0.7c1,0.9,1.3,2.3,0.4,3.5
		l-0.7,0.9C173.1,269,171.5,269.1,170.4,268.3z"/>
	<path class="dark" d="M176.7,273.1l-0.9-0.7c-1-0.9-1.3-2.3-0.4-3.5l0.7-0.9c0.9-1,2.3-1.3,3.5-0.4l0.9,0.7c1,0.9,1.3,2.3,0.4,3.5
		l-0.7,0.9C179.3,273.7,177.7,273.9,176.7,273.1z"/>
	<path class="dark" d="M182.9,277.9l-0.9-0.7c-1-0.9-1.3-2.3-0.4-3.5l0.7-0.9c0.9-1,2.3-1.3,3.5-0.4l0.9,0.7c1,0.9,1.3,2.3,0.4,3.5
		l-0.7,0.9C185.5,278.6,184,278.8,182.9,277.9z"/>
</g>
<g>
	<path class="light" d="M532.9,341.4c-4,5.1-7.9,10.2-11.8,15.3c-1.8,2.4-5.3,2.9-7.7,1c-4.8-3.6-9.5-7.3-14.2-11
		c-2-1.6-2.7-4.2-1.7-6.3c0.2-0.4,0.4-0.9,0.8-1.2c7.9-10.3,15.9-20.5,23.9-30.8c0.4-0.5,1-1,1.6-1.4c1.7-1,3.6-1,5.3-0.1
		c0.3,0.2,0.6,0.3,1,0.6c4.6,3.6,9.3,7.2,13.9,10.8c1.7,1.4,2.5,3.2,2.2,5.4c-0.1,0.8-0.4,1.5-1,2.2c-1.5,1.9-3,3.8-4.5,5.8
		C537.9,334.9,535.4,338.2,532.9,341.4z M531.2,340.1c3.1-4.1,6.3-8.2,9.5-12.3c0.4-0.5,0.3-1-0.2-1.4c-6-4.6-11.9-9.2-17.9-13.8
		c-0.5-0.4-1-0.3-1.4,0.2c-6.3,8.2-12.6,16.3-18.9,24.4c-0.4,0.5-0.3,1,0.2,1.4c5.9,4.6,11.9,9.2,17.8,13.8c0.5,0.4,1,0.3,1.4-0.2
		C524.9,348.2,528,344.1,531.2,340.1z M510.8,350.5c0.9-1.1,0.6-2.6-0.4-3.5c-1.1-0.9-2.7-0.6-3.5,0.4c-0.9,1-0.6,2.7,0.4,3.5
		S509.9,351.5,510.8,350.5z M534.8,315.4c-1-0.8-2-1.5-3-2.3c-0.1-0.1-0.3-0.2-0.3-0.2c-0.2,0-0.3,0.1-0.4,0.2
		c-0.2,0.1-0.2,0.3-0.1,0.4s0.2,0.3,0.3,0.3c1.9,1.5,3.9,3,5.8,4.5c0.1,0.1,0.2,0.1,0.3,0.2c0.2,0.1,0.4,0.1,0.5-0.1
		c0.2-0.2,0.1-0.3,0-0.5c-0.1-0.1-0.2-0.2-0.3-0.3C536.7,316.9,535.7,316.2,534.8,315.4z"/>
	<path class="light" d="M520.3,319.7l-0.3-0.2c-0.9-0.7-1-2-0.3-2.9l0.2-0.3c0.7-0.9,2-1,2.9-0.3l0.3,0.2c0.9,0.7,1,2,0.3,2.9
		l-0.2,0.3C522.4,320.2,521.1,320.4,520.3,319.7z"/>
	<path class="light" d="M524.9,323.3l-0.3-0.2c-0.9-0.7-1-2-0.3-2.9l0.2-0.3c0.7-0.9,2-1,2.9-0.3l0.3,0.2c0.9,0.7,1,2,0.3,2.9
		l-0.2,0.3C527,323.9,525.7,324,524.9,323.3z"/>
	<path class="light" d="M529.5,326.9l-0.3-0.2c-0.9-0.7-1-2-0.3-2.9l0.2-0.3c0.7-0.9,2-1,2.9-0.3l0.3,0.2c0.9,0.7,1,2,0.3,2.9
		l-0.2,0.3C531.7,327.4,530.4,327.6,529.5,326.9z"/>
	<path class="light" d="M534.1,330.5l-0.3-0.3c-0.9-0.7-1-2-0.3-2.9l0.2-0.3c0.7-0.9,2-1,2.9-0.3l0.3,0.2c0.9,0.7,1,2,0.3,2.9
		L537,330C536.3,331,535,331.2,534.1,330.5z"/>
	<path class="light" d="M521.6,327.6l-0.3-0.2c-0.9-0.7-1-2-0.3-2.9l0.2-0.3c0.7-0.9,2-1,2.9-0.3l0.3,0.2c0.9,0.7,1,2,0.3,2.9
		l-0.2,0.3C523.7,328.1,522.4,328.2,521.6,327.6z"/>
	<path class="light" d="M526.2,331.2l-0.3-0.2c-0.9-0.7-1-2-0.3-2.9l0.2-0.3c0.7-0.9,2-1,2.9-0.3l0.3,0.2c0.9,0.7,1,2,0.3,2.9
		l-0.2,0.3C528.4,331.7,527,331.9,526.2,331.2z"/>
	<path class="light" d="M530.8,334.7l-0.3-0.2c-0.9-0.7-1-2-0.3-2.9l0.2-0.3c0.7-0.9,2-1,2.9-0.3l0.3,0.2c0.9,0.7,1,2,0.3,2.9
		l-0.2,0.3C533,335.3,531.7,335.4,530.8,334.7z"/>
	<path class="light" d="M513.7,328.2l-0.3-0.2c-0.9-0.7-1-2-0.3-2.9l0.2-0.3c0.7-0.9,2-1,2.9-0.3l0.3,0.2c0.9,0.7,1,2,0.3,2.9
		l-0.2,0.3C515.8,328.8,514.5,328.9,513.7,328.2z"/>
	<path class="light" d="M527.5,339l-0.3-0.2c-0.9-0.7-1-2-0.3-2.9l0.2-0.3c0.7-0.9,2-1,2.9-0.3l0.3,0.2c0.9,0.7,1,2,0.3,2.9l-0.2,0.3
		C529.7,339.5,528.4,339.7,527.5,339z"/>
	<path class="light" d="M524.2,343.3l-0.3-0.2c-0.9-0.7-1-2-0.3-2.9l0.2-0.3c0.7-0.9,2-1,2.9-0.3l0.3,0.2c0.9,0.7,1,2,0.3,2.9
		l-0.2,0.3C526.4,343.8,525,344,524.2,343.3z"/>
	<path class="light" d="M507.1,336.8l-0.3-0.2c-0.9-0.7-1-2-0.3-2.9l0.2-0.3c0.7-0.9,2-1,2.9-0.3l0.3,0.2c0.9,0.7,1,2,0.3,2.9
		l-0.2,0.3C509.2,337.3,507.9,337.5,507.1,336.8z"/>
	<path class="light" d="M511.7,340.4l-0.3-0.2c-0.9-0.7-1-2-0.3-2.9l0.2-0.3c0.7-0.9,2-1,2.9-0.3l0.3,0.2c0.9,0.7,1,2,0.3,2.9
		l-0.2,0.3C513.8,340.9,512.5,341.1,511.7,340.4z"/>
	<path class="light" d="M516.3,344l-0.3-0.2c-0.9-0.7-1-2-0.3-2.9l0.2-0.3c0.7-0.9,2-1,2.9-0.3l0.3,0.2c0.9,0.7,1,2,0.3,2.9l-0.2,0.3
		C518.4,344.5,517.1,344.6,516.3,344z"/>
	<path class="light" d="M520.9,347.5l-0.3-0.2c-0.9-0.7-1-2-0.3-2.9l0.2-0.3c0.7-0.9,2-1,2.9-0.3l0.3,0.2c0.9,0.7,1,2,0.3,2.9
		l-0.2,0.3C523.1,348,521.7,348.2,520.9,347.5z"/>
</g>
<circle class="normal" cx="245.1" cy="718.5" r="32.3"/>
<g>
	<path class="light" d="M255.9,726.4c-4,5.1-7.9,10.2-11.8,15.3c-1.8,2.4-5.3,2.9-7.7,1c-4.8-3.6-9.5-7.3-14.2-11
		c-2-1.6-2.7-4.2-1.7-6.3c0.2-0.4,0.4-0.9,0.8-1.2c7.9-10.3,15.9-20.5,23.9-30.8c0.4-0.5,1-1,1.6-1.4c1.7-1,3.6-1,5.3-0.1
		c0.3,0.2,0.6,0.3,1,0.6c4.6,3.6,9.3,7.2,13.9,10.8c1.7,1.4,2.5,3.2,2.2,5.4c-0.1,0.8-0.4,1.5-1,2.2c-1.5,1.9-3,3.8-4.5,5.8
		C261.1,719.9,258.4,723.1,255.9,726.4z M254.3,725c3.1-4.1,6.3-8.2,9.5-12.3c0.4-0.5,0.3-1-0.2-1.4c-6-4.6-11.9-9.2-17.9-13.8
		c-0.5-0.4-1-0.3-1.4,0.2c-6.3,8.2-12.6,16.3-18.9,24.4c-0.4,0.5-0.3,1,0.2,1.4c5.9,4.6,11.9,9.2,17.8,13.8c0.5,0.4,1,0.3,1.4-0.2
		C247.9,733.2,251.1,729.1,254.3,725z M233.9,735.3c0.9-1.1,0.6-2.6-0.4-3.5c-1.1-0.9-2.7-0.6-3.5,0.4c-0.9,1-0.6,2.7,0.4,3.5
		C231.4,736.6,233,736.5,233.9,735.3z M257.8,700.4c-1-0.8-2-1.5-3-2.3c-0.1-0.1-0.3-0.2-0.3-0.2c-0.2,0-0.3,0.1-0.4,0.2
		c-0.2,0.1-0.2,0.3-0.1,0.4c0.1,0.1,0.2,0.3,0.3,0.3c1.9,1.5,3.9,3,5.8,4.5c0.1,0.1,0.2,0.1,0.3,0.2c0.2,0.1,0.4,0.1,0.5-0.1
		c0.2-0.2,0.1-0.3,0-0.5c-0.1-0.1-0.2-0.2-0.3-0.3C259.7,701.9,258.8,701.1,257.8,700.4z"/>
	<path class="light" d="M243.3,704.7l-0.3-0.2c-0.9-0.7-1-2-0.3-2.9l0.2-0.3c0.7-0.9,2-1,2.9-0.3l0.3,0.2c0.9,0.7,1,2,0.3,2.9
		l-0.2,0.3C245.5,705.2,244.2,705.4,243.3,704.7z"/>
	<path class="light" d="M247.9,708.2l-0.3-0.2c-0.9-0.7-1-2-0.3-2.9l0.2-0.3c0.7-0.9,2-1,2.9-0.3l0.3,0.2c0.9,0.7,1,2,0.3,2.9
		l-0.2,0.3C250.1,708.8,248.8,708.9,247.9,708.2z"/>
	<path class="light" d="M252.5,711.8l-0.3-0.2c-0.9-0.7-1-2-0.3-2.9l0.2-0.3c0.7-0.9,2-1,2.9-0.3l0.3,0.2c0.9,0.7,1,2,0.3,2.9
		l-0.2,0.3C254.7,712.3,253.4,712.5,252.5,711.8z"/>
	<path class="light" d="M257.1,715.4l-0.3-0.2c-0.9-0.7-1-2-0.3-2.9l0.2-0.3c0.7-0.9,2-1,2.9-0.3l0.3,0.2c0.9,0.7,1,2,0.3,2.9
		L260,715C259.3,715.9,258,716,257.1,715.4z"/>
	<path class="light" d="M244.6,712.5l-0.3-0.2c-0.9-0.7-1-2-0.3-2.9l0.2-0.3c0.7-0.9,2-1,2.9-0.3l0.3,0.2c0.9,0.7,1,2,0.3,2.9
		l-0.2,0.3C246.8,713,245.5,713.2,244.6,712.5z"/>
	<path class="light" d="M249.2,716l-0.3-0.2c-0.9-0.7-1-2-0.3-2.9l0.2-0.3c0.7-0.9,2-1,2.9-0.3l0.3,0.2c0.9,0.7,1,2,0.3,2.9l-0.2,0.3
		C251.4,716.6,250.1,716.7,249.2,716z"/>
	<path class="light" d="M253.8,719.6l-0.3-0.2c-0.9-0.7-1-2-0.3-2.9l0.2-0.3c0.7-0.9,2-1,2.9-0.3l0.3,0.2c0.9,0.7,1,2,0.3,2.9
		l-0.2,0.3C256,720.1,254.7,720.3,253.8,719.6z"/>
	<path class="light" d="M236.7,713.2l-0.3-0.2c-0.9-0.7-1-2-0.3-2.9l0.2-0.3c0.7-0.9,2-1,2.9-0.3l0.3,0.2c0.9,0.7,1,2,0.3,2.9
		l-0.2,0.3C238.9,713.7,237.6,713.9,236.7,713.2z"/>
	<path class="light" d="M250.5,723.9l-0.3-0.2c-0.9-0.7-1-2-0.3-2.9l0.2-0.3c0.7-0.9,2-1,2.9-0.3l0.3,0.2c0.9,0.7,1,2,0.3,2.9
		l-0.2,0.3C252.7,724.5,251.4,724.6,250.5,723.9z"/>
	<path class="light" d="M247.2,728.1L247,728c-0.9-0.7-1-2-0.3-2.9l0.2-0.3c0.7-0.9,2-1,2.9-0.3l0.3,0.2c0.9,0.7,1,2,0.3,2.9
		l-0.2,0.3C249.4,728.7,248.1,728.8,247.2,728.1z"/>
	<path class="light" d="M230.1,721.7l-0.3-0.2c-0.9-0.7-1-2-0.3-2.9l0.2-0.3c0.7-0.9,2-1,2.9-0.3l0.3,0.2c0.9,0.7,1,2,0.3,2.9
		l-0.2,0.3C232.3,722.2,231,722.4,230.1,721.7z"/>
	<path class="light" d="M234.7,725.3l-0.3-0.2c-0.9-0.7-1-2-0.3-2.9l0.2-0.3c0.7-0.9,2-1,2.9-0.3l0.3,0.2c0.9,0.7,1,2,0.3,2.9
		l-0.2,0.3C236.9,725.8,235.6,726,234.7,725.3z"/>
	<path class="light" d="M239.3,728.8l-0.3-0.2c-0.9-0.7-1-2-0.3-2.9l0.2-0.3c0.7-0.9,2-1,2.9-0.3l0.3,0.2c0.9,0.7,1,2,0.3,2.9
		l-0.2,0.3C241.5,729.3,240.2,729.5,239.3,728.8z"/>
	<path class="light" d="M243.9,732.5l-0.3-0.2c-0.9-0.7-1-2-0.3-2.9l0.2-0.3c0.7-0.9,2-1,2.9-0.3l0.3,0.2c0.9,0.7,1,2,0.3,2.9
		l-0.2,0.3C246.1,733,244.8,733.2,243.9,732.5z"/>
</g>
<circle class="light" cx="330" cy="471.8" r="8.5"/>
<circle class="light" cx="448.8" cy="164.8" r="8.5"/>
<circle class="light" cx="171.2" cy="549.1" r="8.5"/>
<circle class="st2 stroke-light" cx="212.2" cy="541.8" r="14.3"/>
<line class="st3 stroke-light" x1="333.9" y1="469.7" x2="366.4" y2="440.1"/>
<line class="st3 stroke-light" x1="340.7" y1="478.8" x2="365.2" y2="494"/>
<line class="st3 stroke-light" x1="548.8" y1="460.6" x2="581.2" y2="436.9"/>
<line class="st3 stroke-light" x1="580.5" y1="380.3" x2="546.9" y2="352.7"/>
<line class="st3 stroke-light" x1="426.1" y1="393.9" x2="494.3" y2="350.1"/>
<line class="st3 stroke-light" x1="495.1" y1="314.3" x2="459.2" y2="288.2"/>
<line class="st3 stroke-light" x1="405.1" y1="311.6" x2="398.9" y2="376.8"/>
<line class="st3 stroke-light" x1="317.9" y1="307.7" x2="360.6" y2="282.4"/>
<line class="st3 stroke-light" x1="236.4" y1="281.4" x2="295" y2="308.6"/>
<line class="st3 stroke-light" x1="301" y1="326.4" x2="278.7" y2="376.5"/>
<line class="st3 stroke-light" x1="205.6" y1="301.4" x2="239.8" y2="371.3"/>
<line class="st3 stroke-light" x1="115" y1="183.9" x2="151" y2="222"/>
<line class="st3 stroke-light" x1="247.1" y1="139.7" x2="299.2" y2="128.8"/>
<line class="st3 stroke-light" x1="208.8" y1="115.8" x2="203.3" y2="86.6"/>
<line class="st3 stroke-light" x1="197.5" y1="122.1" x2="163.6" y2="79.5"/>
<line class="st3 stroke-light" x1="343.5" y1="567.5" x2="370" y2="540.9"/>
<line class="st3 stroke-light" x1="371.1" y1="671.3" x2="340.7" y2="636.5"/>
<line class="st3 stroke-light" x1="151" y1="779" x2="221.2" y2="734"/>
<line class="st3 stroke-light" x1="220.6" y1="700.1" x2="181.9" y2="673.7"/>
<line class="st3 stroke-light" x1="122.5" y1="761.8" x2="128.4" y2="697.8"/>
<line class="st3 stroke-light" x1="175.4" y1="587.6" x2="203.9" y2="552.2"/>
<line class="st3 stroke-light" x1="156.7" y1="584.3" x2="168.7" y2="555.3"/>
<line class="st3 stroke-light" x1="106.9" y1="578.1" x2="92.6" y2="548.1"/>
<line class="st3 stroke-light" x1="50.1" y1="411" x2="96.4" y2="385.7"/>
<line class="st3 stroke-light" x1="93.6" y1="364.1" x2="54.1" y2="359.2"/>
<line class="st3 stroke-light" x1="141.8" y1="336.7" x2="158" y2="306.8"/>
<line class="st3 stroke-light" x1="449.4" y1="207.5" x2="482.8" y2="168.2"/>
<line class="st3 stroke-light" x1="429.2" y1="196.8" x2="446.6" y2="168.2"/>
<circle class="light" cx="306.6" cy="314" r="17.1"/>
<line class="st3 stroke-light" x1="57.2" y1="855.5" x2="91.3" y2="824.2"/>
<ellipse transform="matrix(9.089794e-03 -1 1 9.089794e-03 -800.9727 903.278)" class="light" cx="55.3" cy="855.8" rx="7.7" ry="7.7"/>
<line class="st3 stroke-light" x1="42" y1="693.7" x2="81.8" y2="668.6"/>
<circle class="light" cx="31.1" cy="700.4" r="17.1"/>
<circle class="light" cx="48.8" cy="358.5" r="8.3"/>
<circle class="st2 stroke-light" cx="107.1" cy="173.3" r="13.4"/>
<circle class="light" cx="203.3" cy="86.3" r="7.4"/>
<circle class="light" cx="159.2" cy="72.8" r="9.4"/>
<circle class="light" cx="49.4" cy="408.7" r="9.4"/>
<ellipse transform="matrix(0.1602 -0.9871 0.9871 0.1602 37.5487 334.0401)" class="dark" cx="215.1" cy="145" rx="31.3" ry="31.3"/>
<g>
	<path class="light" d="M228.6,157.7c0.1-1.3-0.3-2.3-1-3.2c-0.9-1-1.8-2.3-3.3-2.5c-0.7-0.2-1.5-0.3-2.3-0.3c-2.5,0-5.1,0-7.6,0
		c-0.8,0-1.3,0.4-1.3,1.1c-0.1,0.6,0.3,1,1.1,1.1c1.6,0.3,2.9,1.1,3.7,2.4c0.2,0.3,0.3,0.8,0.3,1.4c-1.7-0.1-3.1,0.3-4.6-0.4
		c-1.7-0.8-2.6-2.1-2.7-4c0-2,0-4,0-6.1c1.1,0,2.2,0,3.2,0c1,0,1.6-0.8,1.3-1.6c-0.1-0.3-0.3-0.6-0.6-0.9c-2.7-2.5-5.4-5-8.1-7.6
		c-0.2-0.2-0.3-0.3-0.4-0.4c-0.4-0.4-1-0.4-1.4,0c-2.8,2.8-5.5,5.6-8.3,8.3c-0.4,0.4-0.7,0.9-0.4,1.4c0.3,0.6,0.7,0.9,1.4,0.9
		s1.4,0,2.2,0c0,1.3,0,2.6,0,3.9c0,1,0,2,0.1,3c0.1,1.3,0.6,2.4,1.5,3.5c-1.4-0.1-2.7-0.4-3.8-1c-7.3-3.3-9.1-12.8-3.7-18.8
		c2.1-2.3,4.7-3.6,7.8-4c0.7-0.1,0.9-0.5,1-1.1c1.5-4.5,4.3-7.7,8.9-9.2c7.1-2.4,15.1,1.8,17.2,9.1c0.1,0.2,0,0.4,0.2,0.6
		c0.2,0.3,0.3,0.5,0.6,0.6c4.3,0.9,6.8,5,5.8,9.1c0,0.1-0.1,0.2-0.1,0.3c-0.2,1.1-0.1,1.3,1,1.7c3,1,4.9,4,4.5,7.2
		c-0.3,2.9-3,5.4-6.1,5.5C232.7,157.7,230.6,157.7,228.6,157.7z"/>
	<path class="light" d="M219.1,153.7c1.4,0,2.7-0.2,4,0c2.2,0.3,3.7,2.2,3.7,4.3c0,2.3,0,4.5,0,6.8c0,1,0.3,1.4,1.5,1.7
		c-1.7,1.8-3.5,3.6-5.2,5.5c-1.8-1.8-3.6-3.6-5.5-5.5c0.4,0,1,0,1.4,0c1,0,1.4-0.4,1.4-1.4c0-2.4,0-4.9,0-7.3
		C220.4,156.3,220.1,155.3,219.1,153.7z"/>
</g>
<g>
	<path class="light" d="M407.6,426.2c0.1-1.3-0.3-2.3-1-3.2c-0.9-1-1.8-2.3-3.3-2.5c-0.7-0.2-1.5-0.3-2.3-0.3c-2.5,0-5.1,0-7.6,0
		c-0.8,0-1.3,0.4-1.3,1.1c-0.1,0.6,0.3,1,1.1,1.1c1.6,0.3,2.9,1.1,3.7,2.4c0.2,0.3,0.3,0.8,0.3,1.4c-1.7-0.1-3.1,0.3-4.6-0.4
		c-1.7-0.8-2.6-2.1-2.7-4c0-2,0-4,0-6.1c1.1,0,2.2,0,3.2,0c1,0,1.6-0.8,1.3-1.6c-0.1-0.3-0.3-0.6-0.6-0.9c-2.7-2.5-5.4-5-8.1-7.6
		c-0.2-0.2-0.3-0.3-0.4-0.4c-0.4-0.4-1-0.4-1.4,0c-2.8,2.8-5.5,5.6-8.3,8.3c-0.4,0.4-0.7,0.9-0.4,1.4c0.3,0.6,0.7,0.9,1.4,0.9
		c0.7,0,1.4,0,2.2,0c0,1.3,0,2.6,0,3.9c0,1,0,2,0.1,3c0.1,1.3,0.6,2.4,1.5,3.5c-1.4-0.1-2.7-0.4-3.8-1c-7.3-3.3-9.1-12.8-3.7-18.8
		c2.1-2.3,4.7-3.6,7.8-4c0.7-0.1,0.9-0.5,1-1.1c1.5-4.5,4.3-7.7,8.9-9.2c7.1-2.4,15.1,1.8,17.2,9.1c0.1,0.2,0,0.4,0.2,0.6
		c0.2,0.3,0.3,0.5,0.6,0.6c4.3,0.9,6.8,5,5.8,9.1c0,0.1-0.1,0.2-0.1,0.3c-0.2,1.1-0.1,1.3,1,1.7c3,1,4.9,4,4.5,7.2
		c-0.3,2.9-3,5.4-6.1,5.5C411.7,426.3,409.7,426.2,407.6,426.2z"/>
	<path class="light" d="M398.1,422.3c1.4,0,2.7-0.2,4,0c2.2,0.3,3.7,2.2,3.7,4.3c0,2.3,0,4.5,0,6.8c0,1,0.3,1.4,1.5,1.7
		c-1.7,1.8-3.5,3.6-5.2,5.5c-1.8-1.8-3.6-3.6-5.5-5.5c0.4,0,1,0,1.4,0c1,0,1.4-0.4,1.4-1.4c0-2.4,0-4.9,0-7.3
		C399.5,424.9,399.1,423.9,398.1,422.3z"/>
</g>
<circle class="st4 stroke-light" cx="394.3" cy="414.3" r="37.8"/>
<g>
	<path class="light" d="M132.6,810.4c0.1-1.3-0.3-2.3-1-3.2c-0.9-1-1.8-2.3-3.3-2.5c-0.7-0.2-1.5-0.3-2.3-0.3c-2.5,0-5.1,0-7.6,0
		c-0.8,0-1.3,0.4-1.3,1.1c-0.1,0.6,0.3,1,1.1,1.1c1.6,0.3,2.9,1.1,3.7,2.4c0.2,0.3,0.3,0.8,0.3,1.4c-1.7-0.1-3.1,0.3-4.6-0.4
		c-1.7-0.8-2.6-2.1-2.7-4c0-2,0-4,0-6.1c1.1,0,2.2,0,3.2,0c1,0,1.6-0.8,1.3-1.6c-0.1-0.3-0.3-0.6-0.6-0.9c-2.7-2.5-5.4-5-8.1-7.6
		c-0.2-0.2-0.3-0.3-0.4-0.4c-0.4-0.4-1-0.4-1.4,0c-2.8,2.8-5.5,5.6-8.3,8.3c-0.4,0.4-0.7,0.9-0.4,1.4c0.3,0.6,0.7,0.9,1.4,0.9
		c0.7,0,1.4,0,2.2,0c0,1.3,0,2.6,0,3.9c0,1,0,2,0.1,3c0.1,1.3,0.6,2.4,1.5,3.5c-1.4-0.1-2.7-0.4-3.8-1c-7.3-3.3-9.1-12.8-3.7-18.8
		c2.1-2.3,4.7-3.6,7.8-4c0.7-0.1,0.9-0.5,1-1.1c1.5-4.5,4.3-7.7,8.9-9.2c7.1-2.4,15.1,1.8,17.2,9.1c0.1,0.2,0,0.4,0.2,0.6
		c0.2,0.3,0.3,0.5,0.6,0.6c4.3,0.9,6.8,5,5.8,9.1c0,0.1-0.1,0.2-0.1,0.3c-0.2,1.1-0.1,1.3,1,1.7c3,1,4.9,4,4.5,7.2
		c-0.3,2.9-3,5.4-6.1,5.5C136.7,810.5,134.7,810.4,132.6,810.4z"/>
	<path class="light" d="M123.1,806.5c1.4,0,2.7-0.2,4,0c2.2,0.3,3.7,2.2,3.7,4.3c0,2.3,0,4.5,0,6.8c0,1,0.3,1.4,1.5,1.7
		c-1.7,1.8-3.5,3.6-5.2,5.5c-1.8-1.8-3.6-3.6-5.5-5.5c0.4,0,1,0,1.4,0c1,0,1.4-0.4,1.4-1.4c0-2.4,0-4.9,0-7.3
		C124.4,808.9,124.2,808.1,123.1,806.5z"/>
</g>
<circle class="st4 stroke-light" cx="119.3" cy="798.4" r="37.8"/>
</svg>
