<?xml version="1.0" encoding="utf-8"?>
<!-- Svg Vector Icons : http://www.onlinewebfonts.com/icon -->
<!DOCTYPE svg PUBLIC "-//W3C//DTD SVG 1.1//EN" "http://www.w3.org/Graphics/SVG/1.1/DTD/svg11.dtd">
<svg version="1.1" xmlns="http://www.w3.org/2000/svg" xmlns:xlink="http://www.w3.org/1999/xlink" x="0px" y="0px" viewBox="0 0 1000 1000" enable-background="new 0 0 1000 1000" xml:space="preserve">
<metadata> Svg Vector Icons : http://www.onlinewebfonts.com/icon </metadata>
<g><path d="M924.9,500L990,184.6l-102.7,33.9C796.5,91.3,652.6,15.7,494.3,15.7C227.3,15.7,10,233,10,500c0,267,217.3,484.3,484.3,484.3c98.8,0,194-29.5,274.8-85.6L708,810.3c-63,43.4-136.8,66.4-213.7,66.4c-207.7,0-376.7-169-376.7-376.7c0-207.7,169-376.7,376.7-376.7c111.5,0,214,48.3,285,131.2l-94.9,31.4L924.9,500z"/></g>
</svg>