<?xml version="1.0" encoding="utf-8"?>
<!-- Svg Vector Icons : http://www.onlinewebfonts.com/icon -->
<!DOCTYPE svg PUBLIC "-//W3C//DTD SVG 1.1//EN" "http://www.w3.org/Graphics/SVG/1.1/DTD/svg11.dtd">
<svg version="1.1" xmlns="http://www.w3.org/2000/svg" xmlns:xlink="http://www.w3.org/1999/xlink" x="0px" y="0px" viewBox="0 0 1000 1000" enable-background="new 0 0 1000 1000" xml:space="preserve">
<metadata> Svg Vector Icons : http://www.onlinewebfonts.com/icon </metadata>
<g><path d="M351.1,589.2"/><path d="M63.3,241.9c-29.4,0-53.3-23.9-53.3-53.3c0-29.4,23.9-53.3,53.3-53.3h873.3c29.4,0,53.3,23.9,53.3,53.3c0,29.4-23.9,53.3-53.3,53.3H63.3z"/><path d="M63.3,554.6c-29.4,0-53.3-23.9-53.3-53.3c0-29.4,23.9-53.3,53.3-53.3h873.3c29.4,0,53.3,23.9,53.3,53.3c0,29.4-23.9,53.3-53.3,53.3H63.3z"/><path d="M63.3,864.8c-29.4,0-53.3-23.9-53.3-53.3s23.9-53.3,53.3-53.3h873.3c29.4,0,53.3,23.9,53.3,53.3s-23.9,53.3-53.3,53.3H63.3z"/></g>
</svg>