<?xml version="1.0" encoding="UTF-8"?>
<svg width="120px" height="54px" viewBox="0 0 120 54" version="1.1" xmlns="http://www.w3.org/2000/svg" xmlns:xlink="http://www.w3.org/1999/xlink">
    <!-- Generator: Sketch 57.1 (83088) - https://sketch.com -->
    <title>Dotgo - New Logo</title>
    <desc>Created with Sketch.</desc>
    <defs>
        <polygon id="path-1" points="0.0398207663 0.13115 11.4665176 0.13115 11.4665176 21.5248794 0.0398207663 21.5248794"/>
    </defs>
    <g id="Page-2" stroke="none" stroke-width="1" fill="none" fill-rule="evenodd">
        <g id="RCS-BOT-Directory---Sign-in" transform="translate(-100.000000, -24.000000)">
            <g id="DotGo---New-Logo" transform="translate(100.000000, 24.000000)">
                <path d="M14.8757827,32.0654506 C14.8757827,29.0154506 12.6061342,26.5754506 9.50837061,26.5754506 C6.44127796,26.5754506 4.07923323,28.9849506 4.07923323,32.0654506 C4.07923323,35.1764506 6.44127796,37.6168319 9.50837061,37.6168319 C12.6061342,37.6168319 14.8757827,35.1459506 14.8757827,32.0654506 M3.55271368e-15,32.1264506 C3.55271368e-15,26.2094506 4.35565495,22.8239506 8.89495208,22.8239506 C11.2259425,22.8239506 13.3115655,23.7385694 14.6304153,25.2940694 L14.6304153,18.4620694 L18.8016613,18.4620694 L18.8016613,41.0328319 L14.6610863,41.0328319 L14.6610863,38.7144506 C13.3422364,40.3923319 11.1952716,41.3984506 8.83361022,41.3984506 C4.5086262,41.3984506 3.55271368e-15,37.9828319 3.55271368e-15,32.1264506" id="Fill-20" fill="#414141"/>
                <path d="M35.087655,32.1265269 C35.087655,29.1070269 32.8180064,26.6975269 29.8735974,26.6975269 C26.8985176,26.6975269 24.6591565,29.1070269 24.6591565,32.1265269 C24.6591565,35.0850269 26.8985176,37.5250269 29.8735974,37.5250269 C32.8180064,37.5250269 35.087655,35.0850269 35.087655,32.1265269 M20.5799233,32.1265269 C20.5799233,26.9106456 24.6898275,22.8240269 29.8735974,22.8240269 C35.0263131,22.8240269 39.1668882,26.9106456 39.1668882,32.1265269 C39.1668882,37.2505269 35.0263131,41.3985269 29.8735974,41.3985269 C24.6898275,41.3985269 20.5799233,37.2505269 20.5799233,32.1265269" id="Fill-22" fill="#414141"/>
                <polygon id="Fill-24" fill="#B7222C" points="42.4790799 23.1898362 42.4790799 20.4753362 46.6503259 17.638455 46.6503259 23.1898362"/>
                <path d="M46.6504409,23.1898362 L50.3006645,23.1898362 L50.3006645,26.8803362 L46.6504409,26.8803362 L46.6504409,33.5598362 C46.6504409,36.6708362 47.1105048,37.1592175 50.3006645,37.1592175 L50.3006645,41.0327175 L49.7175335,41.0327175 C44.1660958,41.0327175 42.4791949,39.2637175 42.4791949,33.5903362 L42.4791949,26.8803362 L39.4117188,26.8803362 L39.4117188,23.1898362 L42.4791949,23.1898362 L46.6504409,23.1898362 Z" id="Fill-26" fill="#414141"/>
                <path d="M60.6052907,37.1602088 C57.8180703,37.1602088 55.6366006,34.9222713 55.6366006,32.06709 C55.6366006,29.2416463 57.8180703,27.0342088 60.6052907,27.0342088 C63.4040128,27.0342088 65.512639,29.1958963 65.512639,32.06709 C65.512639,34.9680213 63.4040128,37.1602088 60.6052907,37.1602088 L60.6052907,37.1602088 Z M65.7580064,23.1912088 L65.7580064,25.4787088 C64.4391565,23.8622088 62.3539169,22.8252088 59.9918722,22.8252088 C55.4525751,22.8252088 51.0973035,26.2107088 51.0973035,32.12809 C51.0973035,37.9837088 55.6059297,41.3997088 59.9305304,41.3997088 C62.3539169,41.3997088 64.4698275,40.3627088 65.7890607,38.6547088 L65.7890607,40.7287088 C65.7890607,43.4432088 63.825738,45.8832088 60.6973035,45.8832088 C57.8449073,45.8832088 56.4340447,44.72459 55.1151949,42.31509 L51.4346837,44.5412088 C52.3088051,46.1348338 53.5624792,47.4997088 55.2570479,48.4185213 C56.7062492,49.2042775 58.4851629,49.66559 60.6359617,49.66559 C62.6487412,49.66559 64.351361,49.2115213 65.7196677,48.4185213 C68.4685495,46.8405275 69.8985815,43.9121463 69.8985815,40.5762088 L69.8985815,23.1912088 L65.7580064,23.1912088 Z" id="Fill-28" fill="#414141"/>
                <path d="M86.246147,32.1265269 C86.246147,29.1070269 83.9764984,26.6975269 81.0317061,26.6975269 C78.0570096,26.6975269 75.8176486,29.1070269 75.8176486,32.1265269 C75.8176486,35.0850269 78.0570096,37.5250269 81.0317061,37.5250269 C83.9764984,37.5250269 86.246147,35.0850269 86.246147,32.1265269 M71.7384153,32.1265269 C71.7384153,26.9106456 75.8483195,22.8240269 81.0317061,22.8240269 C86.1848051,22.8240269 90.3253802,26.9106456 90.3253802,32.1265269 C90.3253802,37.2505269 86.1848051,41.3985269 81.0317061,41.3985269 C75.8483195,41.3985269 71.7384153,37.2505269 71.7384153,32.1265269" id="Fill-30" fill="#414141"/>
                <path d="M92.2485623,20.0598119 L94.2536741,19.9820369 C94.2536741,19.9820369 94.3821086,18.0105931 92.9907987,15.7608369 C92.9907987,15.7608369 91.9161661,13.9537119 90.4938019,12.7958556 C90.4938019,12.7958556 89.2370607,11.6368556 87.2848562,10.3047681 C87.2848562,10.3047681 86.217508,9.63567438 85.1053035,8.92731188 C85.1053035,8.92731188 82.9867093,7.72828063 80.5648562,5.95279938 C80.5648562,5.95279938 80.1408307,8.01917438 80.6261981,10.1168119 C80.6261981,10.1168119 81.6847284,15.3441306 85.4783387,17.1199931 L86.1952716,15.2640681 C86.1952716,15.2640681 83.8746326,14.4009181 82.6228754,9.84574313 C82.6228754,9.84574313 85.2260703,11.2902994 87.1230671,12.6952056 C87.1230671,12.6952056 89.7266454,14.5618056 90.8561022,16.1870744 C90.8561022,16.1870744 92.1684345,17.7723119 92.2485623,20.0598119" id="Fill-32" fill="#B7222C"/>
                <path d="M99.7755144,2.54167937 L102.227655,6.30423562 C102.227655,6.30423562 103.408102,8.09001062 103.387783,9.98596688 C103.387783,9.98596688 103.559157,11.9631294 102.438901,13.5784856 C102.438901,13.5784856 101.723118,14.7218544 100.895387,15.4344106 C100.895387,15.4344106 100.005546,16.2872669 98.9305304,16.2872669 C98.9305304,16.2872669 97.924524,16.3627544 97.0216486,15.2941106 C97.0216486,15.2941106 96.203885,14.4416356 95.7146837,12.5395794 C95.7146837,12.5395794 95.3968562,10.9897981 95.3742364,9.55248563 C95.3742364,9.55248563 95.3159617,8.18989812 95.3872716,6.66527937 C95.3872716,6.66527937 95.4351949,5.48836062 95.8511693,4.39760437 C95.8511693,4.39760437 96.1456102,3.56228562 96.660115,2.99002937 C96.660115,2.99002937 97.1527668,2.47877312 97.8336613,2.44898452 C97.8336613,2.44898452 98.6203706,2.43378562 99.1724473,2.93017312 L98.8089968,5.72168562 C98.8089968,5.72168562 98.3937891,5.02247312 98.1438211,4.64656062 C98.1438211,4.64656062 98.0836294,4.55620437 97.9467604,4.58556062 C97.8068243,4.61682312 97.7190288,5.10482312 97.6745559,5.28591687 C97.5909776,5.62484812 97.6005623,5.53182312 97.5158339,5.97788562 C97.432639,6.41441687 97.3720639,6.90356062 97.3490607,7.51279812 C97.3490607,7.51279812 97.3490607,9.41676062 97.4694441,10.4026731 C97.4694441,10.4026731 97.6668882,13.0893419 98.9159617,14.2102169 C98.9159617,14.2102169 99.1954505,14.3680544 99.5661853,13.8716669 C99.5661853,13.8716669 100.936026,12.7576544 101.299859,11.1106544 C101.299859,11.1106544 101.465482,10.5456419 101.337431,9.65046688 C101.337431,9.65046688 101.118134,8.27262937 100.110978,6.67824187 L99.460754,7.00116062 L98.8089968,5.72168562 L99.1724473,2.93017312 L99.7755144,2.54167937 Z" id="Fill-34" fill="#B7222C"/>
                <path d="M100.095987,35.3782844 L101.473495,34.0461969 C101.473495,34.0461969 100.814837,33.2787406 99.8467859,33.2939906 C99.8467859,33.2939906 98.7487668,33.2188844 97.833623,34.6485719 C97.833623,34.6485719 96.789278,36.3336969 96.3200128,37.9894656 C96.3200128,37.9894656 95.6996933,40.0962531 95.2449968,41.9777219 C95.2449968,41.9777219 94.6246773,44.5519219 94.2163706,47.0796094 C94.2163706,47.0796094 93.943016,48.7048781 93.73177,50.4654906 C93.73177,50.4654906 93.4902364,52.2871031 93.4902364,53.1597844 L95.4577764,53.5059594 C95.4577764,53.5059594 96.2444856,50.6092219 96.7133674,49.2088906 C96.7133674,49.2088906 97.046147,48.2462344 97.4552204,47.0647406 C97.4552204,47.0647406 98.0076805,45.3266219 98.4918978,43.6563656 C98.4918978,43.6563656 99.1731757,41.3677219 99.4369457,38.9078969 C99.4369457,38.9078969 99.6121534,37.7039094 99.4231438,35.8975469 L99.9288307,35.3176656 L100.095987,35.3782844 Z" id="Fill-36" fill="#B7222C"/>
                <g id="Group-40" stroke-width="1" transform="translate(105.814313, 0.000000)">
                    <mask id="mask-2" fill="white">
                        <use xlink:href="#path-1"/>
                    </mask>
                    <g id="Clip-39"/>
                    <path d="M5.29169329,11.2456169 L5.92696486,13.0210981 C5.92696486,13.0210981 6.83520767,12.9612419 7.60696486,11.8472294 C7.60696486,11.8472294 8.75022364,10.3954294 9.54498403,8.20514813 C9.54498403,8.20514813 10.2638339,6.28631687 10.6038978,4.74377938 C10.6038978,4.74377938 11.1184026,2.74183562 11.4665176,0.845879375 L9.59750799,0.131035625 C9.59750799,0.131035625 8.76517572,1.38039187 8.16747604,2.30530438 C8.16747604,2.30530438 6.77501597,4.28513562 5.85220447,5.82729188 C5.85220447,5.82729188 4.70166134,7.58866687 3.65731629,9.37977937 C3.65731629,9.37977937 2.52210863,11.2757356 1.62920128,13.1572044 C1.62920128,13.1572044 0.888115016,14.5415231 0.28313099,16.7382856 C0.28313099,16.7382856 0.0254952077,17.7169544 0.0404472843,18.5903981 C0.0404472843,18.5903981 0.116357827,19.7188981 0.464472843,20.1851669 C0.464472843,20.1851669 0.903833866,21.0281106 2.31047923,21.5248794 L2.76402556,19.5381856 C2.76402556,19.5381856 1.99265176,19.4931981 2.03789137,18.5598981 C2.03789137,18.5598981 2.21923323,16.7687856 2.96146965,15.1290294 C2.96146965,15.1290294 3.96019169,12.8258981 4.7771885,11.4335731 C4.7771885,11.4335731 6.18460064,9.05571688 6.86549521,7.93407937 L8.15252396,5.96301688 C8.15252396,5.96301688 7.59277955,7.61840437 7.16108626,8.57381687 C7.16108626,8.57381687 6.88888179,9.14607312 6.31341853,10.1540981 C6.31341853,10.1540981 5.86715655,10.9745481 5.29169329,11.2456169" id="Fill-38" fill="#B7222C" mask="url(#mask-2)"/>
                </g>
                <path d="M106.006275,29.4857606 L105.703399,29.8323169 L105.930364,30.0130294 L106.006275,31.0961606 L106.762696,30.7499856 C106.762696,30.7499856 108.579182,32.3455169 110.138032,33.4595294 C110.138032,33.4595294 112.165764,34.9795731 114.163591,36.0482169 C114.163591,36.0482169 115.600907,36.8301606 117.251003,37.0562419 C117.251003,37.0562419 118.774581,37.2369544 119.491131,35.9422294 C119.491131,35.9422294 119.960013,35.0245606 119.778288,34.2121169 C119.778288,34.2121169 119.657904,32.7969169 118.446786,31.7286544 C118.446786,31.7286544 117.331898,30.5650794 115.071067,29.6664731 C115.071067,29.6664731 113.407169,28.8841481 110.138032,28.3572606 C110.138032,28.3572606 108.80538,28.1464294 107.322058,28.1998044 L108.843335,30.2162356 C108.843335,30.2162356 111.394006,30.5166606 113.724997,31.3302481 C113.724997,31.3302481 115.528064,31.9265231 116.577393,32.7896731 C116.577393,32.7896731 117.755923,33.6249919 117.755923,34.4580231 C117.755923,34.4580231 117.755923,34.7584481 117.674645,34.9868169 C117.674645,34.9868169 117.447297,35.2430169 116.585061,34.8747294 C116.585061,34.8747294 115.555284,34.5178794 114.264422,33.7351731 C114.264422,33.7351731 111.560396,32.1072356 110.138032,30.9531919 C110.138032,30.9531919 109.977681,30.79179 109.271482,30.27024 L108.843335,30.2162356 L107.322058,28.1998044 C107.322058,28.1998044 106.626978,28.2173419 105.688447,28.4022481 L106.006275,29.4857606 Z" id="Fill-41" fill="#B7222C"/>
            </g>
        </g>
    </g>
</svg>