<!-- Generated by IcoMoon.io -->
<svg version="1.1" xmlns="http://www.w3.org/2000/svg" width="1024" height="1024" viewBox="0 0 1024 1024">
<title></title>
<g id="icomoon-ignore">
</g>
<path fill="white" d="M512 0c-282.411-0.341-511.659 228.352-512 510.763v1.237c0 283.307 228.651 512 512 512 283.307 0 512-228.693 512-512 0-283.349-228.693-512-512-512zM512 887.509c-206.763 0.64-374.869-166.571-375.509-373.333v-2.176c-0.597-206.763 166.571-374.869 373.333-375.509h2.176c206.805-0.597 374.869 166.571 375.509 373.333v2.176c0.64 206.805-166.571 374.869-373.333 375.509zM744.107 385.749c0 57.984-47.787 105.771-105.856 105.771-58.283-0.299-105.472-47.488-105.771-105.771 0-58.069 47.787-105.856 105.771-105.856 58.069 0 105.856 47.787 105.856 105.856zM744.107 638.293c0 58.027-47.787 105.813-105.856 105.813-58.325-0.341-105.515-47.531-105.771-105.813 0-57.984 47.787-105.771 105.771-105.771 58.069-0.043 105.856 47.787 105.856 105.771zM491.563 638.293c0 58.027-47.787 105.813-105.771 105.813-58.368-0.299-105.6-47.488-105.856-105.813 0-57.984 47.787-105.771 105.856-105.771 57.941-0.043 105.771 47.787 105.771 105.771zM491.563 385.749c0 57.984-47.787 105.771-105.771 105.771-58.325-0.299-105.6-47.445-105.856-105.771 0-58.069 47.787-105.856 105.856-105.856 57.941 0 105.771 47.787 105.771 105.856z"></path>
</svg>
